<?xml version="1.0" encoding="utf-8"?>
<!-- Generator: Adobe Illustrator 24.0.0, SVG Export Plug-In . SVG Version: 6.00 Build 0)  -->
<svg version="1.1" id="Layer_1" xmlns="http://www.w3.org/2000/svg" xmlns:xlink="http://www.w3.org/1999/xlink" x="0px" y="0px"
	 viewBox="0 0 2847 1178" style="enable-background:new 0 0 2847 1178;" xml:space="preserve">
<style type="text/css">
	.st0{opacity:0.4;}
	.st1{clip-path:url(#SVGID_2_);}
	.st2{fill:none;stroke:#2711CC;stroke-miterlimit:10;}
</style>
<g class="st0">
	<g>
		<defs>
			<rect id="SVGID_1_" width="2847" height="1178"/>
		</defs>
		<clipPath id="SVGID_2_">
			<use xlink:href="#SVGID_1_"  style="overflow:visible;"/>
		</clipPath>
		<g class="st1">
			<path class="st2" d="M-591,609c0,0,801-135,1337.07,248.22c545.74,390.13,997.84,114.69,1282.15-112.12
				s526.58,188.3,865.09,249.92"/>
			<path class="st2" d="M-543.3,673.7c0,0,784.47-235.3,1330.99,150.72c555.22,392.24,997.84,126.87,1282.15-124.03
				s526.58,208.3,865.09,276.46"/>
			<path class="st2" d="M-495.6,738.4c0,0,767.95-335.6,1324.91,53.22c564.7,394.35,997.84,139.05,1282.15-135.94
				s526.58,228.29,865.09,303.01"/>
			<path class="st2" d="M-447.9,803.1c0,0,751.42-435.89,1318.82-44.28c574.18,396.46,997.84,151.23,1282.15-147.85
				s526.58,248.29,865.09,329.55"/>
			<path class="st2" d="M-400.2,867.8c0,0,734.89-536.19,1312.74-141.77c583.66,398.57,997.84,163.41,1282.15-159.75
				s526.58,268.29,865.09,356.09"/>
			<path class="st2" d="M-352.5,932.5c0,0,718.37-636.49,1306.66-239.27c593.13,400.68,997.84,175.59,1282.15-171.66
				s526.58,288.29,865.09,382.64"/>
			<path class="st2" d="M-304.8,997.2c0,0,701.84-736.79,1300.58-336.77c602.61,402.79,997.84,187.77,1282.15-183.57
				s526.58,308.29,865.09,409.18"/>
			<path class="st2" d="M-257.1,1061.9c0,0,685.31-837.09,1294.5-434.27c612.09,404.89,997.84,199.95,1282.15-195.48
				s526.58,328.28,865.09,435.72"/>
			<path class="st2" d="M-209.4,1126.6c0,0,668.79-937.38,1288.42-531.76c621.57,407,997.84,212.13,1282.15-207.39
				s526.58,348.28,865.09,462.26"/>
			<path class="st2" d="M-161.7,1191.3c0,0,652.26-1037.68,1282.34-629.26c631.04,409.11,997.84,224.32,1282.15-219.29
				s526.58,368.28,865.09,488.81"/>
			<path class="st2" d="M-114,1256c0,0,635.73-1137.98,1276.26-726.76s997.84,236.5,1282.15-231.2s526.58,388.28,865.09,515.35"/>
		</g>
	</g>
</g>
</svg>
