<?xml version="1.0" encoding="utf-8"?>
<!-- Generator: Adobe Illustrator 24.0.0, SVG Export Plug-In . SVG Version: 6.00 Build 0)  -->
<svg version="1.1" id="Layer_1" xmlns="http://www.w3.org/2000/svg" xmlns:xlink="http://www.w3.org/1999/xlink" x="0px" y="0px"
	 viewBox="0 0 2847 1629.58" style="enable-background:new 0 0 2847 1629.58;" xml:space="preserve">
<style type="text/css">
	.st0{opacity:0.5;}
	.st1{fill:none;stroke:url(#SVGID_1_);stroke-miterlimit:10;}
	.st2{fill:none;stroke:url(#SVGID_2_);stroke-miterlimit:10;}
	.st3{fill:none;stroke:url(#SVGID_3_);stroke-miterlimit:10;}
	.st4{fill:none;stroke:url(#SVGID_4_);stroke-miterlimit:10;}
	.st5{fill:none;stroke:url(#SVGID_5_);stroke-miterlimit:10;}
	.st6{fill:none;stroke:url(#SVGID_6_);stroke-miterlimit:10;}
	.st7{fill:none;stroke:url(#SVGID_7_);stroke-miterlimit:10;}
	.st8{fill:none;stroke:url(#SVGID_8_);stroke-miterlimit:10;}
	.st9{fill:none;stroke:url(#SVGID_9_);stroke-miterlimit:10;}
	.st10{fill:none;stroke:url(#SVGID_10_);stroke-miterlimit:10;}
	.st11{fill:none;stroke:url(#SVGID_11_);stroke-miterlimit:10;}
	.st12{fill:none;stroke:url(#SVGID_12_);stroke-miterlimit:10;}
	.st13{fill:none;stroke:url(#SVGID_13_);stroke-miterlimit:10;}
	.st14{fill:none;stroke:url(#SVGID_14_);stroke-miterlimit:10;}
	.st15{fill:none;stroke:url(#SVGID_15_);stroke-miterlimit:10;}
	.st16{fill:none;stroke:url(#SVGID_16_);stroke-miterlimit:10;}
	.st17{fill:none;stroke:url(#SVGID_17_);stroke-miterlimit:10;}
	.st18{fill:none;stroke:url(#SVGID_18_);stroke-miterlimit:10;}
	.st19{fill:none;stroke:url(#SVGID_19_);stroke-miterlimit:10;}
	.st20{fill:none;stroke:url(#SVGID_20_);stroke-miterlimit:10;}
	.st21{fill:none;stroke:url(#SVGID_21_);stroke-miterlimit:10;}
	.st22{fill:none;stroke:url(#SVGID_22_);stroke-miterlimit:10;}
	.st23{fill:none;stroke:url(#SVGID_23_);stroke-miterlimit:10;}
	.st24{fill:none;stroke:url(#SVGID_24_);stroke-miterlimit:10;}
	.st25{fill:none;stroke:url(#SVGID_25_);stroke-miterlimit:10;}
	.st26{fill:none;stroke:url(#SVGID_26_);stroke-miterlimit:10;}
	.st27{fill:none;stroke:url(#SVGID_27_);stroke-miterlimit:10;}
	.st28{fill:none;stroke:url(#SVGID_28_);stroke-miterlimit:10;}
	.st29{fill:none;stroke:url(#SVGID_29_);stroke-miterlimit:10;}
	.st30{fill:none;stroke:url(#SVGID_30_);stroke-miterlimit:10;}
	.st31{fill:none;stroke:url(#SVGID_31_);stroke-miterlimit:10;}
	.st32{fill:none;stroke:url(#SVGID_32_);stroke-miterlimit:10;}
	.st33{fill:none;stroke:url(#SVGID_33_);stroke-miterlimit:10;}
	.st34{fill:none;stroke:url(#SVGID_34_);stroke-miterlimit:10;}
	.st35{fill:none;stroke:url(#SVGID_35_);stroke-miterlimit:10;}
	.st36{fill:none;stroke:url(#SVGID_36_);stroke-miterlimit:10;}
	.st37{fill:none;stroke:url(#SVGID_37_);stroke-miterlimit:10;}
	.st38{fill:none;stroke:url(#SVGID_38_);stroke-miterlimit:10;}
	.st39{fill:none;stroke:url(#SVGID_39_);stroke-miterlimit:10;}
	.st40{fill:none;stroke:url(#SVGID_40_);stroke-miterlimit:10;}
	.st41{fill:none;stroke:url(#SVGID_41_);stroke-miterlimit:10;}
	.st42{fill:none;stroke:url(#SVGID_42_);stroke-miterlimit:10;}
	.st43{fill:none;stroke:url(#SVGID_43_);stroke-miterlimit:10;}
	.st44{fill:none;stroke:url(#SVGID_44_);stroke-miterlimit:10;}
	.st45{fill:none;stroke:url(#SVGID_45_);stroke-miterlimit:10;}
	.st46{fill:none;stroke:url(#SVGID_46_);stroke-miterlimit:10;}
	.st47{fill:none;stroke:url(#SVGID_47_);stroke-miterlimit:10;}
	.st48{fill:none;stroke:url(#SVGID_48_);stroke-miterlimit:10;}
	.st49{fill:none;stroke:url(#SVGID_49_);stroke-miterlimit:10;}
	.st50{fill:none;stroke:url(#SVGID_50_);stroke-miterlimit:10;}
	.st51{fill:none;stroke:url(#SVGID_51_);stroke-miterlimit:10;}
	.st52{fill:none;stroke:url(#SVGID_52_);stroke-miterlimit:10;}
	.st53{fill:none;stroke:url(#SVGID_53_);stroke-miterlimit:10;}
	.st54{fill:none;stroke:url(#SVGID_54_);stroke-miterlimit:10;}
	.st55{fill:none;stroke:url(#SVGID_55_);stroke-miterlimit:10;}
	.st56{fill:none;stroke:url(#SVGID_56_);stroke-miterlimit:10;}
	.st57{fill:none;stroke:url(#SVGID_57_);stroke-miterlimit:10;}
	.st58{fill:none;stroke:url(#SVGID_58_);stroke-miterlimit:10;}
	.st59{fill:none;stroke:url(#SVGID_59_);stroke-miterlimit:10;}
	.st60{fill:none;stroke:url(#SVGID_60_);stroke-miterlimit:10;}
	.st61{fill:none;stroke:url(#SVGID_61_);stroke-miterlimit:10;}
	.st62{fill:none;stroke:url(#SVGID_62_);stroke-miterlimit:10;}
	.st63{fill:none;stroke:url(#SVGID_63_);stroke-miterlimit:10;}
	.st64{fill:none;stroke:url(#SVGID_64_);stroke-miterlimit:10;}
	.st65{fill:none;stroke:url(#SVGID_65_);stroke-miterlimit:10;}
	.st66{fill:none;stroke:url(#SVGID_66_);stroke-miterlimit:10;}
	.st67{fill:none;stroke:url(#SVGID_67_);stroke-miterlimit:10;}
	.st68{fill:none;stroke:url(#SVGID_68_);stroke-miterlimit:10;}
	.st69{fill:none;stroke:url(#SVGID_69_);stroke-miterlimit:10;}
	.st70{fill:none;stroke:url(#SVGID_70_);stroke-miterlimit:10;}
	.st71{fill:none;stroke:url(#SVGID_71_);stroke-miterlimit:10;}
	.st72{fill:none;stroke:url(#SVGID_72_);stroke-miterlimit:10;}
	.st73{fill:none;stroke:url(#SVGID_73_);stroke-miterlimit:10;}
	.st74{fill:none;stroke:url(#SVGID_74_);stroke-miterlimit:10;}
	.st75{fill:none;stroke:url(#SVGID_75_);stroke-miterlimit:10;}
	.st76{fill:none;stroke:url(#SVGID_76_);stroke-miterlimit:10;}
	.st77{fill:none;stroke:url(#SVGID_77_);stroke-miterlimit:10;}
	.st78{fill:none;stroke:url(#SVGID_78_);stroke-miterlimit:10;}
	.st79{fill:none;stroke:url(#SVGID_79_);stroke-miterlimit:10;}
	.st80{fill:none;stroke:url(#SVGID_80_);stroke-miterlimit:10;}
	.st81{fill:none;stroke:url(#SVGID_81_);stroke-miterlimit:10;}
	.st82{fill:none;stroke:url(#SVGID_82_);stroke-miterlimit:10;}
	.st83{fill:none;stroke:url(#SVGID_83_);stroke-miterlimit:10;}
	.st84{fill:none;stroke:url(#SVGID_84_);stroke-miterlimit:10;}
	.st85{fill:none;stroke:url(#SVGID_85_);stroke-miterlimit:10;}
	.st86{fill:none;stroke:url(#SVGID_86_);stroke-miterlimit:10;}
	.st87{fill:none;stroke:url(#SVGID_87_);stroke-miterlimit:10;}
	.st88{fill:none;stroke:url(#SVGID_88_);stroke-miterlimit:10;}
	.st89{fill:none;stroke:url(#SVGID_89_);stroke-miterlimit:10;}
	.st90{fill:none;stroke:url(#SVGID_90_);stroke-miterlimit:10;}
	.st91{fill:none;stroke:url(#SVGID_91_);stroke-miterlimit:10;}
	.st92{fill:none;stroke:url(#SVGID_92_);stroke-miterlimit:10;}
	.st93{fill:none;stroke:url(#SVGID_93_);stroke-miterlimit:10;}
	.st94{fill:none;stroke:url(#SVGID_94_);stroke-miterlimit:10;}
	.st95{fill:none;stroke:url(#SVGID_95_);stroke-miterlimit:10;}
	.st96{fill:none;stroke:url(#SVGID_96_);stroke-miterlimit:10;}
	.st97{fill:none;stroke:url(#SVGID_97_);stroke-miterlimit:10;}
	.st98{fill:none;stroke:url(#SVGID_98_);stroke-miterlimit:10;}
	.st99{fill:none;stroke:url(#SVGID_99_);stroke-miterlimit:10;}
	.st100{fill:none;stroke:url(#SVGID_100_);stroke-miterlimit:10;}
	.st101{fill:none;stroke:url(#SVGID_101_);stroke-miterlimit:10;}
	.st102{fill:none;stroke:url(#SVGID_102_);stroke-miterlimit:10;}
	.st103{fill:none;stroke:url(#SVGID_103_);stroke-miterlimit:10;}
</style>
<g class="st0">
	<g>
		<linearGradient id="SVGID_1_" gradientUnits="userSpaceOnUse" x1="-603.1003" y1="-146.1332" x2="121.6795" y2="1109.2223">
			<stop  offset="0" style="stop-color:#FFFFFF"/>
			<stop  offset="1" style="stop-color:#0000FF"/>
		</linearGradient>
		<path class="st1" d="M1316.58-1254.24c0.09,0.68,0.18,1.36,0.27,2.04c6.01,48.28,4.14,98.01,0.34,146.35
			c-9.42,120-37.4,238.16-73.21,352.82c-62.83,201.19-150.13,394.67-246.48,581.82C849.09,117.08,676.18,394.48,478.04,651.27
			c-58.99,76.45-120.47,151.01-185.03,222.84c-64.32,71.56-134.58,137.02-206.37,201.01c-74.47,66.38-150.83,137.76-236.28,189.74
			c-83.24,50.64-172.07,92.84-264.47,122.78c-180.1,58.36-369.23,81.15-558.8,67.52c-138.98-9.99-275.44-38.25-410.48-71.57
			c-89.85-22.17-179.28-47.1-270.35-63.91c-62.5-11.54-127.99-20.25-191.34-10.39c-91.91,14.3-153.83,76.29-176.97,165.14
			c-25.08,96.29-11.71,201.36,12.56,296.38c24.28,95.07,63.18,185.83,110.54,271.59"/>
		<linearGradient id="SVGID_2_" gradientUnits="userSpaceOnUse" x1="-578.4249" y1="-160.8153" x2="150.212" y2="1101.2209">
			<stop  offset="0" style="stop-color:#FFFFFF"/>
			<stop  offset="1" style="stop-color:#0000FF"/>
		</linearGradient>
		<path class="st2" d="M1317.69-1255.32c0.09,0.66,0.17,1.31,0.25,1.97c5.93,48.41,4.06,98.25,0.31,146.71
			c-9.27,119.7-36.69,237.63-71.91,352.16c-61.49,199.92-147.08,392.34-241.76,578.54C859.22,109.9,689.57,384.98,495.32,640.24
			c-116.15,152.63-241.53,294.99-383.6,423.97c-73.19,66.45-148.02,137.62-231.59,190.82c-81.46,51.87-168.46,95.75-259.2,127.89
			c-173.93,61.6-357.28,90.84-542.47,85.24c-138.23-4.18-274.69-26.99-409.8-55.27c-87.92-18.4-175.46-39.6-264.29-53.29
			c-60.59-9.34-123.66-16.04-184.65-6.26c-88.76,14.24-151.89,71.26-175.31,157.92c-24.13,89.3-11.49,187.03,11.87,275.08
			c23.83,89.82,62.26,175.14,108.92,255.3"/>
		<linearGradient id="SVGID_3_" gradientUnits="userSpaceOnUse" x1="-553.9722" y1="-175.3668" x2="178.5965" y2="1093.4795">
			<stop  offset="0" style="stop-color:#FFFFFF"/>
			<stop  offset="1" style="stop-color:#0000FF"/>
		</linearGradient>
		<path class="st3" d="M1318.8-1256.39c0.09,0.68,0.18,1.35,0.26,2.03c5.79,48.36,3.98,98.08,0.3,146.48
			c-9.08,119.68-36.01,237.66-70.75,352.31c-60.07,198.29-143.78,389.32-236.62,574.25C870.05,101.43,704.13,373.59,514.35,626.8
			c-114.5,152.78-237.95,297.23-378.26,426.89c-71.8,66.35-144.99,137.05-226.57,191.27c-79.58,52.89-164.62,98.27-253.53,132.45
			c-169.58,65.19-349.02,100.41-531.49,101.82c-134.91,1.04-268.8-15.88-401.54-38.63c-85.94-14.73-171.55-32.29-258.11-43.12
			c-60.36-7.55-122.85-12.58-183.18-2.02c-84.36,14.77-147.25,67.32-170.67,150.39c-46.87,166.27,32.44,355.39,118.37,495.19"/>
		<linearGradient id="SVGID_4_" gradientUnits="userSpaceOnUse" x1="-529.7947" y1="-189.7581" x2="206.7686" y2="1086.0071">
			<stop  offset="0" style="stop-color:#FFFFFF"/>
			<stop  offset="1" style="stop-color:#0000FF"/>
		</linearGradient>
		<path class="st4" d="M1319.91-1257.46c0.08,0.65,0.17,1.3,0.24,1.95c5.69,48.34,3.91,98,0.31,146.39
			c-8.84,118.98-35.05,236.34-68.99,350.49c-58.69,197.36-140.77,387.66-232.06,571.92C880.18,94.33,717.07,364.92,530.51,617.09
			C418.47,768.54,297.87,913.8,160.45,1042.92c-70.43,66.18-141.99,136.3-221.56,191.44c-77.72,53.85-160.79,100.63-247.86,136.73
			c-167.05,69.27-344.49,110.31-525.99,117.89c-129.02,5.38-257.68-5.54-385.49-22.53c-85.16-11.32-170.03-25.62-255.59-33.71
			c-58.97-5.58-119.71-8.82-178.31,2.01c-80.8,14.94-144.23,63.26-167.95,143.43c-46.12,155.9,32.12,333.48,115.82,462.3"/>
		<linearGradient id="SVGID_5_" gradientUnits="userSpaceOnUse" x1="-505.83" y1="-204.0248" x2="234.8005" y2="1078.7849">
			<stop  offset="0" style="stop-color:#FFFFFF"/>
			<stop  offset="1" style="stop-color:#0000FF"/>
		</linearGradient>
		<path class="st5" d="M1321.01-1258.53c0.08,0.67,0.17,1.33,0.24,2c5.58,48.49,3.82,98.26,0.26,146.79
			c-8.72,118.88-34.44,236.19-67.89,350.38c-57.21,195.35-137.24,383.91-226.49,566.59c-136.15,278.69-296,547.05-478.73,797.73
			c-110.21,151.2-228.83,298.22-364.29,427.62c-68.93,65.85-138.8,135.16-216.24,190.99c-75.75,54.62-156.75,102.58-241.81,140.44
			c-162.97,72.54-336.44,118.89-515.06,133.22c-127.49,10.23-255.27,4.27-382.4-7.89c-82.64-7.91-165.1-18.72-247.98-23.82
			c-57.46-3.54-116.35-4.89-173.06,6.59c-76.78,15.54-139.61,60.37-163.27,137.11c-45.06,146.13,31.94,312.41,113.38,430.83"/>
		<linearGradient id="SVGID_6_" gradientUnits="userSpaceOnUse" x1="-482.0294" y1="-218.1953" x2="262.7344" y2="1071.7734">
			<stop  offset="0" style="stop-color:#FFFFFF"/>
			<stop  offset="1" style="stop-color:#0000FF"/>
		</linearGradient>
		<path class="st6" d="M1322.12-1259.59c0.08,0.69,0.17,1.38,0.25,2.07c5.45,48.44,3.73,98.08,0.25,146.56
			c-8.49,118.17-33.48,234.86-66.13,348.55c-55.84,194.43-134.24,382.25-221.93,564.28C901.13,78.81,744.1,345.56,564.59,595.15
			C457.9,743.5,343.31,890.2,212.13,1017.83C143.47,1084.64,74,1154.49-2.74,1212.04c-73.91,55.42-152.96,104.6-236.15,144.16
			c-158,75.13-326.46,126.49-500.94,147.47c-125.5,15.09-251.91,14.42-377.92,7.2c-133.94-7.67-278.14-32.79-411.11-4.04
			c-73.97,15.99-137.07,58.17-160.58,132.69c-43.18,136.89,32.15,291.69,111.27,400.18"/>
		<linearGradient id="SVGID_7_" gradientUnits="userSpaceOnUse" x1="-458.3464" y1="-232.2964" x2="290.5428" y2="1064.8179">
			<stop  offset="0" style="stop-color:#FFFFFF"/>
			<stop  offset="1" style="stop-color:#0000FF"/>
		</linearGradient>
		<path class="st7" d="M1323.23-1260.66c0.08,0.66,0.16,1.32,0.23,1.98c5.34,48.42,3.66,98.01,0.26,146.47
			c-8.31,118.17-32.82,234.92-64.97,348.75c-54.45,192.77-130.96,379.18-216.79,559.93C911.97,70.22,758.7,333.99,583.59,581.34
			c-105.37,148.85-218.85,294.89-347.08,424.9c-131.75,133.57-272.57,256.45-440.36,341.38
			c-155.78,78.85-322.28,135.33-495.6,162.18c-119.68,18.54-240.76,22.83-361.69,20.66c-132.16-2.36-273.4-21.38-403.72,8.65
			c-70.94,16.35-134.12,55.75-157.87,127.57c-42.46,128.41,31.77,273.35,108.72,372.71"/>
		<linearGradient id="SVGID_8_" gradientUnits="userSpaceOnUse" x1="-434.7383" y1="-246.3522" x2="318.4707" y2="1058.2441">
			<stop  offset="0" style="stop-color:#FFFFFF"/>
			<stop  offset="1" style="stop-color:#0000FF"/>
		</linearGradient>
		<path class="st8" d="M1324.34-1261.72c0.08,0.68,0.16,1.37,0.23,2.05c5.21,48.36,3.58,97.84,0.25,146.24
			c-8.08,117.46-31.87,233.57-63.22,346.88c-53.09,191.85-127.97,377.54-212.24,557.64C922.12,63.05,771.72,325.21,599.79,571.4
			C496.47,719.36,384.72,861.95,260.9,993.38c-126.61,134.38-266.93,257.52-429.7,344.95c-150.96,81.08-312.52,141.92-481.46,174.91
			c-117.74,23-237.4,32.21-357.2,34.74c-130.16,2.75-268.87-10.49-396.37,21.94c-66.8,16.99-128.44,54.07-152.07,121.94
			c-42,120.63,31.18,256.38,106.05,347.33"/>
		<linearGradient id="SVGID_9_" gradientUnits="userSpaceOnUse" x1="-411.1833" y1="-260.3761" x2="346.3594" y2="1051.7262">
			<stop  offset="0" style="stop-color:#FFFFFF"/>
			<stop  offset="1" style="stop-color:#0000FF"/>
		</linearGradient>
		<path class="st9" d="M1325.44-1262.79c0.07,0.65,0.15,1.31,0.22,1.96c5.11,48.35,3.51,97.77,0.25,146.15
			c-7.9,117.47-31.21,233.65-62.05,347.11c-51.71,190.19-124.71,374.45-207.1,553.26c-123.82,268.72-270.46,527.84-438,771.72
			C517.1,705.4,407.09,848.13,285.3,980.18C161.6,1114.3,24.99,1238.1-133.76,1328.31c-146.28,83.12-302.82,147.91-467.28,186.72
			c-115.86,27.34-234.09,41.39-352.78,48.59c-126.51,7.67-260.34,0.66-383.85,33.59c-65.41,17.44-128.21,52.89-151.96,119.84
			c-40.16,113.21,31.33,239.15,103.94,321.99"/>
		<linearGradient id="SVGID_10_" gradientUnits="userSpaceOnUse" x1="-387.6354" y1="-274.3939" x2="380.6522" y2="1056.3192">
			<stop  offset="0" style="stop-color:#FFFFFF"/>
			<stop  offset="1" style="stop-color:#0000FF"/>
		</linearGradient>
		<path class="st10" d="M1326.55-1263.85c0.07,0.67,0.15,1.34,0.22,2.02c5,48.51,3.42,98.05,0.2,146.6
			c-7.72,116.65-30.33,232.09-60.36,344.92c-50.58,190.02-122.33,374.28-203.58,553.13C942.6,47.92,799.79,303.7,636.65,544.9
			c-98.91,146.24-205.9,287.45-324.09,418.71c-121.56,134.99-255.37,260.5-411.28,354c-145.5,87.25-301.46,156.94-466.02,201.14
			c-110.87,29.78-224.31,47.59-338.43,58.97c-123.49,12.31-254.01,10.79-373.96,46.14c-61.4,18.1-121.97,51.9-145.54,114.81
			c-39.96,106.67,30.43,224.59,101.14,300.28"/>
		<linearGradient id="SVGID_11_" gradientUnits="userSpaceOnUse" x1="-364.0785" y1="-288.4156" x2="420.4182" y2="1070.3724">
			<stop  offset="0" style="stop-color:#FFFFFF"/>
			<stop  offset="1" style="stop-color:#0000FF"/>
		</linearGradient>
		<path class="st11" d="M1327.66-1264.91c0.07,0.7,0.15,1.39,0.22,2.09c4.87,48.45,3.33,97.88,0.19,146.36
			c-7.55,116.67-29.66,232.18-59.19,345.16c-49.22,188.36-119.08,371.18-198.44,548.74C952.77,40.72,812.84,294.83,652.88,534.79
			C556.4,679.52,452.07,819.4,336.97,949.91c-118.66,134.55-248.87,260.46-400.65,356.3c-140.47,88.7-290.95,161.66-450.24,211.18
			c-107.05,33.28-216.98,55.56-327.87,71.35c-122.33,17.42-250.95,21.22-369.61,58.15c-59.45,18.5-120.23,50.9-144.3,111.88
			c-39.75,100.69,29.43,211.02,98.32,280.13"/>
		<linearGradient id="SVGID_12_" gradientUnits="userSpaceOnUse" x1="-340.5032" y1="-302.446" x2="460.2198" y2="1084.447">
			<stop  offset="0" style="stop-color:#FFFFFF"/>
			<stop  offset="1" style="stop-color:#0000FF"/>
		</linearGradient>
		<path class="st12" d="M1328.77-1265.96c0.07,0.66,0.14,1.33,0.21,1.99c4.75,48.26,3.27,97.45,0.24,145.74
			c-7.29,116.27-28.77,231.43-57.58,344.17c-47.8,187.07-115.86,368.82-193.46,545.42c-114.58,260.79-251.18,512.6-407.4,750.78
			C576.08,666.5,473.65,806.11,360.72,936.78c-115.55,133.69-242.04,259.61-389.35,357.37c-135.5,89.92-280.53,165.77-434.45,220.2
			c-106.75,37.75-216.76,64.68-328.06,84.99c-119.17,21.75-244.53,30.63-359.7,70.16c-56.92,19.54-116.08,51.73-139.05,110.83
			c-36.84,94.77,30.11,196.06,96.67,258.57"/>
		<linearGradient id="SVGID_13_" gradientUnits="userSpaceOnUse" x1="-316.86" y1="-316.5142" x2="500.1041" y2="1098.509">
			<stop  offset="0" style="stop-color:#FFFFFF"/>
			<stop  offset="1" style="stop-color:#0000FF"/>
		</linearGradient>
		<path class="st13" d="M1329.87-1267.02c4.99,48.82,3.42,98.69,0.44,147.55C1311.65-814.4,1206.94-515.62,1087-237.3
			C975.56,21.3,842.26,271.15,689.7,507.81c-91.05,141.25-189.47,278.05-297.67,406.71c-114.41,136.06-239.58,265.3-385.62,366.91
			c-227.06,157.98-476.63,266.71-746.9,327.02c-114.34,25.52-234.1,39.6-344.61,79.86c-55.27,20.14-114.42,51.6-137.82,109.07
			c-36.58,89.84,28.96,184.53,93.86,241.54"/>
		<linearGradient id="SVGID_14_" gradientUnits="userSpaceOnUse" x1="-293.1535" y1="-330.617" x2="540.0632" y2="1112.5566">
			<stop  offset="0" style="stop-color:#FFFFFF"/>
			<stop  offset="1" style="stop-color:#0000FF"/>
		</linearGradient>
		<path class="st14" d="M1330.98-1268.07c4.85,48.6,3.34,98.17,0.46,146.81c-17.95,303.16-119.35,600.38-236.75,877.84
			C986.99,11.15,857.91,257.23,710.2,490.85c-89.95,142.27-187.34,280.13-294.44,410.06c-111.28,135.01-232.84,264.05-374.31,367.16
			c-219.3,159.85-460.94,275.86-723.55,346.01c-112.92,30.16-231.26,49.06-340.31,92.14c-53.14,20.99-110.97,52.25-134,107.88
			c-35.28,85.2,28.4,173.07,91.51,224.89"/>
		<linearGradient id="SVGID_15_" gradientUnits="userSpaceOnUse" x1="-269.3652" y1="-344.7656" x2="580.1134" y2="1126.5746">
			<stop  offset="0" style="stop-color:#FFFFFF"/>
			<stop  offset="1" style="stop-color:#0000FF"/>
		</linearGradient>
		<path class="st15" d="M1332.09-1269.13c4.71,48.55,3.26,98.03,0.45,146.62c-17.44,302.52-116.27,599.37-231.84,877.02
			C996.03,5.99,870.38,249.27,726.45,480.5c-87.51,140.58-182.22,276.92-286.27,405.8c-108.34,134.2-226.49,263.17-363.69,367.79
			c-212.48,162.03-446.96,284.76-702.6,364.32c-111.39,34.67-228.38,58.28-335.75,104.72c-50.51,21.85-105.94,53.09-128.16,106.51
			c-33.67,80.97,27.92,162.35,89.27,209.42"/>
		<linearGradient id="SVGID_16_" gradientUnits="userSpaceOnUse" x1="-245.4632" y1="-358.9778" x2="620.284" y2="1140.5403">
			<stop  offset="0" style="stop-color:#FFFFFF"/>
			<stop  offset="1" style="stop-color:#0000FF"/>
		</linearGradient>
		<path class="st16" d="M1333.2-1270.18c4.61,48.74,3.17,98.39,0.4,147.17c-17,300.2-112.37,594.98-225.2,871.4
			C1006.19-1.18,883.05,241.2,741.7,471.78c-84.94,138.56-176.87,273.05-277.74,400.54c-105.2,132.95-219.81,261.49-352.42,367.18
			c-206.72,164.74-435.03,293.83-684.63,382.49c-108.18,38.43-221.82,66.59-326.05,115.35c-48.24,22.57-101.59,53.56-123.79,104.76
			c-33.59,77.47,26.18,153.94,86.34,197.06"/>
		<linearGradient id="SVGID_17_" gradientUnits="userSpaceOnUse" x1="-221.4618" y1="-373.2464" x2="660.5582" y2="1154.457">
			<stop  offset="0" style="stop-color:#FFFFFF"/>
			<stop  offset="1" style="stop-color:#0000FF"/>
		</linearGradient>
		<path class="st17" d="M1334.31-1271.23c4.51,49.15,3.07,99.15,0.32,148.33c-16.73,299.13-109.4,593.08-220.19,869.31
			C1015.26-6.29,895.55,233.23,758,461.4c-82.46,136.79-171.73,269.66-269.58,395.94c-102.21,131.91-213.54,260.23-341.84,366.97
			c-201.11,167.32-423.27,302.33-666.66,399.76c-104.96,42.02-215.27,74.54-316.35,125.68c-46.5,23.52-98.28,54.83-119.99,104.79
			c-32.22,74.15,25.27,145.32,83.98,184.74"/>
		<linearGradient id="SVGID_18_" gradientUnits="userSpaceOnUse" x1="-197.3451" y1="-387.5794" x2="700.9495" y2="1168.3125">
			<stop  offset="0" style="stop-color:#FFFFFF"/>
			<stop  offset="1" style="stop-color:#0000FF"/>
		</linearGradient>
		<path class="st18" d="M1335.41-1272.27c4.38,48.91,2.99,98.62,0.35,147.56c-16.04,297.26-105.46,589.65-213.61,865.02
			c-95.49,243.14-210.96,478.84-343.74,703.78c-79.46,134.6-165.48,265.5-259.63,390.31C418,967.98,308.01,1098.85,181.62,1208.54
			c-195.62,169.77-411.67,310.3-648.67,416.14c-101.75,45.44-208.72,82.18-306.66,135.71c-44.87,24.52-95.01,56.29-116.19,105.22
			c-30.82,71.18,24.2,137.66,81.63,173.79"/>
		<linearGradient id="SVGID_19_" gradientUnits="userSpaceOnUse" x1="-173.1052" y1="-401.9824" x2="741.4639" y2="1182.0977">
			<stop  offset="0" style="stop-color:#FFFFFF"/>
			<stop  offset="1" style="stop-color:#0000FF"/>
		</linearGradient>
		<path class="st19" d="M1336.52-1273.32c4.22,48.66,2.91,98.08,0.37,146.77c-15.37,295.39-101.56,586.22-207.04,860.74
			c-93.01,242.05-205.91,476.87-336.11,701.1c-76.9,132.44-160.13,261.35-251.17,384.54c-97.58,132.05-204.14,262.21-325.91,372.38
			c-190.24,172.13-400.2,317.77-630.67,431.68c-97.71,48.29-200.27,88.83-294.45,143.97c-44.14,25.84-93.94,58.55-114.94,107.5
			c-29.4,68.54,22.97,130.9,79.27,164.17"/>
		<linearGradient id="SVGID_20_" gradientUnits="userSpaceOnUse" x1="-148.7468" y1="-416.4517" x2="782.094" y2="1195.8119">
			<stop  offset="0" style="stop-color:#FFFFFF"/>
			<stop  offset="1" style="stop-color:#0000FF"/>
		</linearGradient>
		<path class="st20" d="M1337.63-1274.37c4.1,48.61,2.82,97.94,0.37,146.58c-14.75,292.35-97.22,580.47-199.42,853.1
			C1048.69-34.9,939.13,197.85,812.57,420.44c-155.36,273.23-337.44,533.91-560.86,754.17
			c-178.58,176.06-387.29,324.21-608.08,444.59c-95.43,52.03-195.65,96.83-287.74,154.79c-43.39,27.3-92.69,61.29-113.07,110.56
			c-27.31,66.02,22.16,124.41,77.23,155.08"/>
		<linearGradient id="SVGID_21_" gradientUnits="userSpaceOnUse" x1="-124.2557" y1="-430.9963" x2="822.8525" y2="1209.4432">
			<stop  offset="0" style="stop-color:#FFFFFF"/>
			<stop  offset="1" style="stop-color:#0000FF"/>
		</linearGradient>
		<path class="st21" d="M1338.74-1275.41c3.96,48.57,2.73,97.79,0.36,146.39c-14.27,291.79-94.22,579.61-194.43,852.48
			c-86.31,235-191.59,463.31-313.3,682.05C680.69,676.3,503.84,934.16,286.75,1155.55C110.97,1334.8-89.7,1488.32-305.6,1616.82
			c-92.24,54.9-189.22,103.32-277.87,164.05c-41.33,28.31-87.97,62.97-107.33,111.17c-25.66,63.85,20.92,119.16,75,147.7"/>
		<linearGradient id="SVGID_22_" gradientUnits="userSpaceOnUse" x1="-99.63" y1="-445.6171" x2="863.7392" y2="1222.9872">
			<stop  offset="0" style="stop-color:#FFFFFF"/>
			<stop  offset="1" style="stop-color:#0000FF"/>
		</linearGradient>
		<path class="st22" d="M1339.84-1276.45c3.81,48.3,2.65,97.22,0.38,145.55c-13.62,289.94-90.41,576.22-187.88,848.21
			c-83.81,233.88-186.45,461.33-305.58,679.33C701.43,662.63,531,916.43,321.79,1135.99c-172.55,181.09-364.12,339.69-574.32,475.91
			c-89.11,57.75-182.79,109.73-268.22,172.98c-39.99,29.61-84.84,65.23-103.54,113.14c-24.21,62.02,19.24,114.95,72.63,141.82"/>
		<linearGradient id="SVGID_23_" gradientUnits="userSpaceOnUse" x1="-74.8787" y1="-460.3082" x2="904.743" y2="1236.4463">
			<stop  offset="0" style="stop-color:#FFFFFF"/>
			<stop  offset="1" style="stop-color:#0000FF"/>
		</linearGradient>
		<path class="st23" d="M1340.95-1277.49c3.75,49.02,2.55,98.63,0.26,147.68c-13.4,287.11-86.84,570.74-181.19,840.96
			c-80.73,231.21-179.99,456.22-295.41,672.19C724.2,646.07,559.32,897.27,356.84,1115.97
			c-100.43,108.47-203.72,212.05-317.32,307.13c-76.92,64.38-156.9,124.95-238.95,182.64c-86.01,60.47-176.41,115.87-258.57,181.64
			c-38.68,30.97-81.75,67.65-99.75,115.44c-22.75,60.4,17.43,111.53,70.27,137.1"/>
		<linearGradient id="SVGID_24_" gradientUnits="userSpaceOnUse" x1="-49.9835" y1="-475.0813" x2="945.8809" y2="1249.8064">
			<stop  offset="0" style="stop-color:#FFFFFF"/>
			<stop  offset="1" style="stop-color:#0000FF"/>
		</linearGradient>
		<path class="st24" d="M1342.06-1278.53c3.59,48.75,2.47,98.06,0.29,146.83c-12.76,285.25-83.09,567.36-174.66,836.66
			c-77.7,228.51-173.5,451.1-285.24,665.01c-135.49,259.36-294.77,507.86-490.57,725.51c-99.81,110.95-200.44,219.22-312.43,318.34
			c-72.12,63.83-146.93,124.51-223.55,182.85c-82.96,63.17-170.05,121.92-249.16,190c-37.73,32.47-79.27,70.22-97.32,118.03
			c-22.46,59.49,14.02,110.28,67.25,135.29"/>
		<linearGradient id="SVGID_25_" gradientUnits="userSpaceOnUse" x1="-25.0105" y1="-489.897" x2="987.0847" y2="1263.1031">
			<stop  offset="0" style="stop-color:#FFFFFF"/>
			<stop  offset="1" style="stop-color:#0000FF"/>
		</linearGradient>
		<path class="st25" d="M1343.17-1279.56c3.45,48.48,2.39,97.46,0.31,145.96c-12.18,284.71-79.98,566.53-169.36,836.06
			c-74.45,224.51-166.38,443.43-273.85,654.11c-130.54,255.9-284.21,501.58-473.34,717.99c-94.9,108.59-188.89,217.7-293.94,316.93
			c-71.54,67.58-145.77,132.22-221.77,194.73c-80.76,66.44-165.56,128.95-242.13,200.32c-36.62,34.13-76.6,73.41-93.57,121.82
			c-20.28,57.87,12.97,107.51,65.31,131.67"/>
		<linearGradient id="SVGID_26_" gradientUnits="userSpaceOnUse" x1="0.0804" y1="-504.7796" x2="1028.3934" y2="1276.3109">
			<stop  offset="0" style="stop-color:#FFFFFF"/>
			<stop  offset="1" style="stop-color:#0000FF"/>
		</linearGradient>
		<path class="st26" d="M1344.27-1280.6c3.34,48.72,2.29,97.92,0.26,146.66c-11.75,282.36-76.4,562.09-162.76,830.23
			c-71.42,221.78-159.92,438.24-263.7,646.83c-125.55,252.36-273.63,495.12-456.11,710.09c-94,110.73-185.9,224.91-288.91,327.67
			c-66.82,66.66-135.95,130.93-206.55,193.54c-78.6,69.7-161.09,135.96-235.08,210.67c-35.19,35.53-73.07,75.91-89.25,124.37
			c-18.98,56.84,10.52,106.58,62.82,130.58"/>
		<linearGradient id="SVGID_27_" gradientUnits="userSpaceOnUse" x1="25.2675" y1="-519.7158" x2="1069.7836" y2="1289.4391">
			<stop  offset="0" style="stop-color:#FFFFFF"/>
			<stop  offset="1" style="stop-color:#0000FF"/>
		</linearGradient>
		<path class="st27" d="M1345.38-1281.63c3.23,48.97,2.21,98.39,0.22,147.37c-11.4,281.32-73.41,560.22-157.35,828.13
			C1119.54-86.8,1034.17,127.5,933.66,334.19C813.51,581.25,671.8,819.36,497.01,1031.45c-50.31,61.04-100.93,122.04-151.53,182.94
			c-41.36,49.78-81.29,101.43-125.63,148.59c-64,68.08-130.52,133.82-198.1,198.33c-75.62,72.19-154.81,141.53-225.65,218.55
			c-34.61,37.63-71.56,79.96-87.31,129.66c-17.74,55.97,8.17,106.3,60.35,130.51"/>
		<linearGradient id="SVGID_28_" gradientUnits="userSpaceOnUse" x1="50.5346" y1="-534.6969" x2="1111.2379" y2="1302.495">
			<stop  offset="0" style="stop-color:#FFFFFF"/>
			<stop  offset="1" style="stop-color:#0000FF"/>
		</linearGradient>
		<path class="st28" d="M1346.49-1282.66c3.07,48.44,2.12,97.29,0.27,145.75c-10.67,279.47-69.65,556.82-150.59,823.78
			c-65.45,215.88-147,427.05-243.36,631c-115.35,244.16-251.64,480.35-420.77,691.42c-87.95,109.76-176.06,219.4-264.03,329.16
			c-59.73,74.52-127.06,142.83-193.69,211.18C1.56,1624.28-74.5,1696.6-141.93,1776.22c-33.01,38.98-67.51,82.24-82.54,131.95
			c-16.72,55.32,5.56,106.97,57.76,131.82"/>
		<linearGradient id="SVGID_29_" gradientUnits="userSpaceOnUse" x1="75.8593" y1="-549.7091" x2="1152.7324" y2="1315.4897">
			<stop  offset="0" style="stop-color:#FFFFFF"/>
			<stop  offset="1" style="stop-color:#0000FF"/>
		</linearGradient>
		<path class="st29" d="M1347.6-1283.69c2.96,48.7,2.03,97.78,0.23,146.49c-10.27,277.13-66.18,552.35-144,817.88
			c-62.93,214.73-141.73,424.99-235.33,628.24c-109.93,238.7-239.9,470.02-401.4,677.84c-144.1,185.44-282.23,376.33-440.16,550.29
			C57.8,1613.2-14.16,1687.6-77.67,1768.62c-32.57,41.55-66.26,87.25-80.54,138.91c-15.01,54.33,4.24,106.9,55.67,132.37"/>
		<linearGradient id="SVGID_30_" gradientUnits="userSpaceOnUse" x1="101.2531" y1="-564.76" x2="1194.2777" y2="1328.4141">
			<stop  offset="0" style="stop-color:#FFFFFF"/>
			<stop  offset="1" style="stop-color:#0000FF"/>
		</linearGradient>
		<path class="st30" d="M1348.71-1284.72c2.81,48.4,1.95,97.14,0.25,145.55c-9.72,276.7-63.16,551.72-138.6,817.53
			c-59.31,208.99-133.56,413.89-221.97,612.32C883.04,527.14,758.07,756.77,602.13,963.85
			c-81.73,108.53-163.24,217.25-244.08,326.46c-56.96,76.94-112.13,154.75-173.93,227.91c-67.8,80.26-138.27,159.12-199.78,244.43
			c-30.96,42.95-62.31,89.7-75.83,141.59c-14.07,54.01,1.83,108.71,53.09,135.56"/>
		<linearGradient id="SVGID_31_" gradientUnits="userSpaceOnUse" x1="126.6841" y1="-579.8304" x2="1235.8406" y2="1341.2848">
			<stop  offset="0" style="stop-color:#FFFFFF"/>
			<stop  offset="1" style="stop-color:#0000FF"/>
		</linearGradient>
		<path class="st31" d="M1349.81-1285.74c2.69,48.41,1.86,97.13,0.23,145.55c-9.22,274.33-59.62,547.19-131.81,811.51
			c-56.57,207.14-127.71,410.44-212.88,607.55C905.21,510.64,786.13,736.4,637.18,940.59c-77.59,106.36-154.78,213.17-231.1,320.52
			c-57.01,80.19-111.24,162.61-169.27,242.04c-61.47,84.14-130.41,162.48-188.29,249.35c-30.48,45.74-61.03,95.26-73.74,149.4
			c-12.52,53.38,0.78,109.52,50.99,137.73"/>
		<linearGradient id="SVGID_32_" gradientUnits="userSpaceOnUse" x1="152.1502" y1="-594.9195" x2="1277.418" y2="1354.1014">
			<stop  offset="0" style="stop-color:#FFFFFF"/>
			<stop  offset="1" style="stop-color:#0000FF"/>
		</linearGradient>
		<path class="st32" d="M1350.92-1286.77c2.58,48.68,1.77,97.65,0.19,146.35c-8.81,271.99-56.28,542.71-125.24,805.53
			c-53.62,204.34-121.27,405.15-202.73,600.08C927.98,492.9,814.61,715.14,672.22,917c-130.36,184.81-259.69,370.83-382.7,560.79
			c-58.15,89.8-123.2,175.26-178.93,266.59c-28.82,47.23-57.13,97.84-69.08,152.41c-11.72,53.51-1.28,112.28,48.41,142.64"/>
		<linearGradient id="SVGID_33_" gradientUnits="userSpaceOnUse" x1="177.6378" y1="-610.0193" x2="1318.9955" y2="1366.8701">
			<stop  offset="0" style="stop-color:#FFFFFF"/>
			<stop  offset="1" style="stop-color:#0000FF"/>
		</linearGradient>
		<path class="st33" d="M1352.03-1287.79c2.45,48.7,1.68,97.66,0.18,146.38c-8.32,269.61-52.84,538.15-118.5,799.41
			c-50.89,202.49-115.42,401.7-193.56,595.32c-89.97,222.93-197.44,440.92-332.88,639.77
			c-125.02,183.54-248.55,368.65-364.89,558.01c-57.61,93.78-115.97,188.16-169.63,284.26c-27.18,48.67-53.29,100.36-64.51,155.41
			c-11,53.97-3.11,115.46,45.85,148.41"/>
		<linearGradient id="SVGID_34_" gradientUnits="userSpaceOnUse" x1="203.1229" y1="-625.116" x2="1360.5487" y2="1379.6042">
			<stop  offset="0" style="stop-color:#FFFFFF"/>
			<stop  offset="1" style="stop-color:#0000FF"/>
		</linearGradient>
		<path class="st34" d="M1353.14-1288.81c2.3,48.11,1.6,96.44,0.22,144.56c-7.72,269.24-49.77,537.61-112.82,799.17
			C1138.46,78.32,982.14,503.61,742.31,868.87c-119,181.22-236.02,364.32-345.27,551.79c-57.53,98.72-110.47,199.1-160.49,301.75
			c-25.53,52.38-51.34,105.43-61.92,163.23c-9.93,54.23-3.82,117.8,43.62,153.25"/>
		<linearGradient id="SVGID_35_" gradientUnits="userSpaceOnUse" x1="229.3893" y1="-640.6623" x2="1402.4753" y2="1391.1824">
			<stop  offset="0" style="stop-color:#FFFFFF"/>
			<stop  offset="1" style="stop-color:#0000FF"/>
		</linearGradient>
		<path class="st35" d="M1354.24-1289.83c2.2,48.75,1.5,97.7,0.15,146.45c-7.43,267.67-46.95,534.57-107,795.26
			c-95.5,414.57-242.09,831.66-470.04,1192.48c-112.16,177.53-221.92,357.16-323.55,541.14
			c-55.17,99.89-108.68,201.25-153.19,306.41c-25.13,59.37-48.9,121.13-59.27,185.06c-9.56,58.97-3.15,117.41,41.06,160.72"/>
		<linearGradient id="SVGID_36_" gradientUnits="userSpaceOnUse" x1="255.98" y1="-656.3937" x2="1444.5222" y2="1402.2218">
			<stop  offset="0" style="stop-color:#FFFFFF"/>
			<stop  offset="1" style="stop-color:#0000FF"/>
		</linearGradient>
		<path class="st36" d="M1355.35-1290.85c2.05,48.13,1.42,96.44,0.19,144.58c-6.82,265.96-43.55,531.33-100.34,791.03
			c-89.03,407.11-226.03,817.38-442.8,1174.83c-107.44,177.17-212.06,356.7-307.71,540.75c-51.72,99.51-101.5,200.58-142.15,305.2
			c-23.77,61.18-45.57,124.54-54.79,189.78c-9.18,64.96-1.03,127.39,38.81,180.75"/>
		<linearGradient id="SVGID_37_" gradientUnits="userSpaceOnUse" x1="281.5254" y1="-671.5205" x2="1485.4827" y2="1413.7947">
			<stop  offset="0" style="stop-color:#FFFFFF"/>
			<stop  offset="1" style="stop-color:#0000FF"/>
		</linearGradient>
		<path class="st37" d="M1356.46-1291.87c1.94,48.8,1.33,97.76,0.12,146.56c-6.49,262.96-40.39,525.45-93.61,782.89
			c-82.61,399.59-210.04,802.99-415.54,1156.97c-101.29,174.49-199.36,351.49-288.09,532.93c-48.88,99.96-95.5,201.52-133.1,306.34
			c-22.81,63.6-43.04,129.17-51.7,196.38c-9.29,72.12,0.05,140.64,36.17,204.1"/>
		<linearGradient id="SVGID_38_" gradientUnits="userSpaceOnUse" x1="306.4629" y1="-686.2945" x2="1525.8356" y2="1425.7211">
			<stop  offset="0" style="stop-color:#FFFFFF"/>
			<stop  offset="1" style="stop-color:#0000FF"/>
		</linearGradient>
		<path class="st38" d="M1357.57-1292.88c1.81,48.53,1.24,97.2,0.13,145.74c-5.99,262.03-37.44,523.72-87.64,780.83
			c-76.32,390.9-194.01,786.11-387.58,1135.58c-95.11,171.71-186.64,346.06-268.55,524.69c-73.96,161.3-153.11,334.87-172.98,513.35
			c-8.73,78.47,1.72,153.11,33.91,225.12"/>
		<linearGradient id="SVGID_39_" gradientUnits="userSpaceOnUse" x1="331.4275" y1="-701.0823" x2="1566.1589" y2="1437.5352">
			<stop  offset="0" style="stop-color:#FFFFFF"/>
			<stop  offset="1" style="stop-color:#0000FF"/>
		</linearGradient>
		<path class="st39" d="M1358.67-1293.89c1.68,48.55,1.15,97.23,0.12,145.79c-5.56,261.15-34.62,522.06-81.8,778.88
			c-70.18,382.05-178.11,768.01-359.48,1112.99c-88.83,168.97-173.83,340.36-249,515.97c-70.62,164.98-142.68,340.63-160.81,520.95
			c-8.65,86.07,2.33,168.54,31.32,249.77"/>
		<linearGradient id="SVGID_40_" gradientUnits="userSpaceOnUse" x1="356.4185" y1="-715.8837" x2="1606.4528" y2="1449.2391">
			<stop  offset="0" style="stop-color:#FFFFFF"/>
			<stop  offset="1" style="stop-color:#0000FF"/>
		</linearGradient>
		<path class="st40" d="M1359.78-1294.9c1.55,48.27,1.06,96.65,0.12,144.93c-5.08,260.28-31.73,520.42-75.76,776.92
			c-64.07,373.28-162.4,750.87-331.59,1091.1c-82.56,166.02-160.99,334.47-229.54,506.88c-67.4,169.53-133.07,348.57-148.88,531.81
			c-8,92.78,3.32,182.45,29.04,271.6"/>
		<linearGradient id="SVGID_41_" gradientUnits="userSpaceOnUse" x1="381.4353" y1="-730.6985" x2="1646.7177" y2="1460.835">
			<stop  offset="0" style="stop-color:#FFFFFF"/>
			<stop  offset="1" style="stop-color:#0000FF"/>
		</linearGradient>
		<path class="st41" d="M1360.89-1295.91c1.41,47.98,0.98,96.05,0.13,144.03c-4.57,257.98-28.62,515.88-68.99,770.66
			C1234.03-15.26,1145.08,355.45,987.6,692.14c-76.83,164.28-149.23,331.01-211.59,501.45
			c-63.19,172.71-121.62,353.46-135.35,538.01c-7.43,99.85,3.83,197.36,26.68,294.52"/>
		<linearGradient id="SVGID_42_" gradientUnits="userSpaceOnUse" x1="406.4778" y1="-745.5262" x2="1686.9545" y2="1472.3245">
			<stop  offset="0" style="stop-color:#FFFFFF"/>
			<stop  offset="1" style="stop-color:#0000FF"/>
		</linearGradient>
		<path class="st42" d="M1362-1296.92c1.29,48.4,0.89,96.88,0.09,145.28c-4.21,256.45-25.87,512.87-62.9,766.63
			c-52.13,357.18-131.62,719.28-276.54,1051.05c-127.4,291.66-251.9,597.9-301.39,914.46c-23.35,149.37-18.2,295.25,10.24,443.27"/>
		<linearGradient id="SVGID_43_" gradientUnits="userSpaceOnUse" x1="431.5457" y1="-760.3671" x2="1727.1637" y2="1483.7092">
			<stop  offset="0" style="stop-color:#FFFFFF"/>
			<stop  offset="1" style="stop-color:#0000FF"/>
		</linearGradient>
		<path class="st43" d="M1363.11-1297.93c1.16,48.11,0.8,96.27,0.1,144.38c-3.74,255.66-23.1,511.34-56.81,764.77
			c-46.35,348.4-116.54,701.86-248.7,1028.56c-117.86,291.35-228.46,595.72-271.24,908.89c-21.69,158.74-15.53,314.83,9.21,472.64"
			/>
		<linearGradient id="SVGID_44_" gradientUnits="userSpaceOnUse" x1="456.639" y1="-775.2206" x2="1767.3459" y2="1494.9905">
			<stop  offset="0" style="stop-color:#FFFFFF"/>
			<stop  offset="1" style="stop-color:#0000FF"/>
		</linearGradient>
		<path class="st44" d="M1364.21-1298.93c1.03,48.22,0.71,96.48,0.08,144.7c-3.32,254.15-20.35,508.36-50.55,760.72
			c-40.69,340.01-101.77,684.98-221.01,1006.89c-107.8,291.03-204.61,593.34-241.11,902.99c-19.84,168.29-13.16,334.69,8.19,502.36"
			/>
		<linearGradient id="SVGID_45_" gradientUnits="userSpaceOnUse" x1="481.7571" y1="-790.087" x2="1807.5016" y2="1506.1699">
			<stop  offset="0" style="stop-color:#FFFFFF"/>
			<stop  offset="1" style="stop-color:#0000FF"/>
		</linearGradient>
		<path class="st45" d="M1365.32-1299.93c0.9,47.9,0.62,95.84,0.08,143.74c-2.86,251.91-17.49,503.89-43.92,754.43
			c-35.12,332.86-87.34,670.48-193.7,988.6c-97.16,290.61-180.29,590.76-210.97,896.76c-17.85,178.04-11.05,354.83,7.16,532.45"/>
		<linearGradient id="SVGID_46_" gradientUnits="userSpaceOnUse" x1="506.9001" y1="-804.9661" x2="1847.6315" y2="1517.2488">
			<stop  offset="0" style="stop-color:#FFFFFF"/>
			<stop  offset="1" style="stop-color:#0000FF"/>
		</linearGradient>
		<path class="st46" d="M1366.43-1300.93c0.77,48.02,0.53,96.06,0.06,144.08c-2.45,250.44-14.86,500.95-37.68,750.36
			c-29.71,324.62-73.28,653.55-165.99,966.68c-85.89,290.12-155.57,587.94-180.83,890.24c-15.7,187.93-9.12,375.14,6.14,562.81"/>
		<linearGradient id="SVGID_47_" gradientUnits="userSpaceOnUse" x1="532.0673" y1="-819.8576" x2="1887.7356" y2="1528.2288">
			<stop  offset="0" style="stop-color:#FFFFFF"/>
			<stop  offset="1" style="stop-color:#0000FF"/>
		</linearGradient>
		<path class="st47" d="M1367.54-1301.93c0.64,48.14,0.44,96.29,0.05,144.42c-2.05,248.99-12.27,498.03-31.43,746.29
			c-24.43,316.48-59.67,636.65-138.29,944.64c-73.89,289.47-130.47,584.88-150.7,883.49c-13.41,197.95-7.35,395.6,5.12,593.4"/>
		<linearGradient id="SVGID_48_" gradientUnits="userSpaceOnUse" x1="557.2587" y1="-834.7612" x2="1927.8148" y2="1539.1116">
			<stop  offset="0" style="stop-color:#FFFFFF"/>
			<stop  offset="1" style="stop-color:#0000FF"/>
		</linearGradient>
		<path class="st48" d="M1368.64-1302.93c0.51,47.9,0.36,95.82,0.04,143.72c-1.61,246.02-9.59,492.08-24.83,737.64
			c-19.25,310.34-46.49,623.69-110.95,928.15c-61.1,288.6-105,581.55-120.56,876.5c-10.98,208.13-5.71,416.16,4.1,624.2"/>
		<linearGradient id="SVGID_49_" gradientUnits="userSpaceOnUse" x1="582.4738" y1="-849.6768" x2="1967.8696" y2="1549.899">
			<stop  offset="0" style="stop-color:#FFFFFF"/>
			<stop  offset="1" style="stop-color:#0000FF"/>
		</linearGradient>
		<path class="st49" d="M1369.75-1303.93c0.39,48.03,0.27,96.06,0.03,144.09c-1.21,244.59-7.13,489.21-18.64,733.53
			c-14.25,302.49-33.93,607.04-83.2,905.98c-47.39,287.54-79.18,577.9-90.41,869.32c-8.42,218.41-4.17,436.79,3.07,655.16"/>
		<linearGradient id="SVGID_50_" gradientUnits="userSpaceOnUse" x1="607.7122" y1="-864.6041" x2="2007.9006" y2="1560.5935">
			<stop  offset="0" style="stop-color:#FFFFFF"/>
			<stop  offset="1" style="stop-color:#0000FF"/>
		</linearGradient>
		<path class="st50" d="M1370.86-1304.92c0.26,47.79,0.18,95.58,0.02,143.36c-0.8,244.76-4.73,489.54-12.55,734.19
			c-9.38,293.56-21.99,588.23-55.34,880.08c-58.82,514.87-69.01,1030.43-58.23,1548.21"/>
		<linearGradient id="SVGID_51_" gradientUnits="userSpaceOnUse" x1="632.973" y1="-879.543" x2="2047.9083" y2="1571.1968">
			<stop  offset="0" style="stop-color:#FFFFFF"/>
			<stop  offset="1" style="stop-color:#0000FF"/>
		</linearGradient>
		<path class="st51" d="M1371.97-1305.91c0.13,47.54,0.09,95.08,0.01,142.63c-0.86,529.4-2.5,1060.5-33.95,1589
			c-31.15,523.49-34.27,1047.53-29.11,1571.86"/>
		<linearGradient id="SVGID_52_" gradientUnits="userSpaceOnUse" x1="658.2562" y1="-894.493" x2="2087.8936" y2="1581.7114">
			<stop  offset="0" style="stop-color:#FFFFFF"/>
			<stop  offset="1" style="stop-color:#0000FF"/>
		</linearGradient>
		<path class="st52" d="M1373.07-1306.91c0,47.29,0,94.58,0,141.87c0,521.24,0,1042.48,0,1563.72c0,531.81,0,1063.63,0,1595.44"/>
		<linearGradient id="SVGID_53_" gradientUnits="userSpaceOnUse" x1="683.5608" y1="-909.4534" x2="2127.8564" y2="1592.1401">
			<stop  offset="0" style="stop-color:#FFFFFF"/>
			<stop  offset="1" style="stop-color:#0000FF"/>
		</linearGradient>
		<path class="st53" d="M1374.18-1307.89c-1.11,413.58,2.51,827.41,14.71,1240.82c4.31,146.31,9.75,292.69,19.23,438.73
			c27.75,427.37,33.21,855.94,31.47,1284.21c-0.45,111.57-1.37,223.15-2.36,334.72"/>
		<linearGradient id="SVGID_54_" gradientUnits="userSpaceOnUse" x1="708.8864" y1="-924.4245" x2="2167.7986" y2="1602.4856">
			<stop  offset="0" style="stop-color:#FFFFFF"/>
			<stop  offset="1" style="stop-color:#0000FF"/>
		</linearGradient>
		<path class="st54" d="M1375.29-1308.88c-2.21,410.22,4.66,821.5,29.47,1231c8.55,141.12,19.34,282.47,38.4,422.53
			c58.14,427.39,66.29,860.24,62.95,1291.23c-0.91,117.03-2.75,234.05-4.72,351.07"/>
		<linearGradient id="SVGID_55_" gradientUnits="userSpaceOnUse" x1="734.232" y1="-939.4053" x2="2207.72" y2="1612.7507">
			<stop  offset="0" style="stop-color:#FFFFFF"/>
			<stop  offset="1" style="stop-color:#0000FF"/>
		</linearGradient>
		<path class="st55" d="M1376.4-1309.87c-3.29,407.43,6.49,817.42,44.5,1223.16c12.69,135.45,28.8,271.34,57.31,404.36
			c91.26,425.91,99.31,866.58,94.4,1300.92c-1.37,121.56-4.13,243.1-7.06,364.64"/>
		<linearGradient id="SVGID_56_" gradientUnits="userSpaceOnUse" x1="759.5972" y1="-954.3958" x2="2247.6218" y2="1622.9386">
			<stop  offset="0" style="stop-color:#FFFFFF"/>
			<stop  offset="1" style="stop-color:#0000FF"/>
		</linearGradient>
		<path class="st56" d="M1377.51-1310.85c-4.33,402.21,8.06,809.11,58.83,1208.27c16.83,132.35,38.29,265.36,76.91,393.29
			c126.84,420.23,132.16,871.72,125.89,1307.11c-1.83,127.22-5.52,254.4-9.43,381.57"/>
		<linearGradient id="SVGID_57_" gradientUnits="userSpaceOnUse" x1="784.9808" y1="-969.395" x2="2287.5046" y2="1633.0527">
			<stop  offset="0" style="stop-color:#FFFFFF"/>
			<stop  offset="1" style="stop-color:#0000FF"/>
		</linearGradient>
		<path class="st57" d="M1378.61-1311.83c-1.82,135.49,0.94,271.15,5.51,406.56c8.96,265.19,25.46,531.74,68.51,793.82
			c20.9,127.19,47.86,255.2,95.65,375.27c77.79,195.46,115.3,404.93,136.01,613.6c23.05,232.33,25.4,466.37,21.38,699.63
			c-2.29,132.86-6.91,265.65-11.82,398.43"/>
		<linearGradient id="SVGID_58_" gradientUnits="userSpaceOnUse" x1="810.3822" y1="-984.403" x2="2327.3699" y2="1643.0966">
			<stop  offset="0" style="stop-color:#FFFFFF"/>
			<stop  offset="1" style="stop-color:#0000FF"/>
		</linearGradient>
		<path class="st58" d="M1379.72-1312.81c-2.17,134.65,1.1,269.54,6.54,404.07c10.58,261.33,29.9,524.78,81.52,781.58
			c25.06,124.68,57.97,250.21,115.55,364.18c94.67,187.39,138.9,396.52,163.28,603.82c28.02,238.13,30.36,478.83,25.56,718.29
			c-2.76,137.52-8.3,274.96-14.15,412.37"/>
		<linearGradient id="SVGID_59_" gradientUnits="userSpaceOnUse" x1="835.8004" y1="-999.4189" x2="2367.2178" y2="1653.0737">
			<stop  offset="0" style="stop-color:#FFFFFF"/>
			<stop  offset="1" style="stop-color:#0000FF"/>
		</linearGradient>
		<path class="st59" d="M1380.83-1313.79c-2.56,135.47,1.31,271.29,7.78,406.59c12.34,257.95,34.58,519.06,95.53,770.6
			c29.18,120.45,68.16,241.23,134.23,346.9c111.48,178.28,162.58,387.75,190.58,594.2c33.06,243.79,35.3,491.2,29.7,736.77
			c-3.24,142.13-9.68,284.17-16.48,426.17"/>
		<linearGradient id="SVGID_60_" gradientUnits="userSpaceOnUse" x1="861.2345" y1="-1014.4424" x2="2407.0498" y2="1662.9884">
			<stop  offset="0" style="stop-color:#FFFFFF"/>
			<stop  offset="1" style="stop-color:#0000FF"/>
		</linearGradient>
		<path class="st60" d="M1381.94-1314.77c-2.91,134.63,1.47,269.69,8.8,404.1c13.94,255.61,38.96,515.77,109.41,762.73
			c33.47,117.33,78.79,233.99,153.27,331.63c128.25,168.13,186.66,379.84,218.08,586.02c37.76,247.78,39.95,500.23,33.72,750.29
			c-3.68,147.87-11.1,295.61-18.89,443.31"/>
		<linearGradient id="SVGID_61_" gradientUnits="userSpaceOnUse" x1="886.6834" y1="-1029.4727" x2="2446.8669" y2="1672.8445">
			<stop  offset="0" style="stop-color:#FFFFFF"/>
			<stop  offset="1" style="stop-color:#0000FF"/>
		</linearGradient>
		<path class="st61" d="M1383.04-1315.75c-3.3,135.45,1.67,271.48,10.1,406.64c15.64,250.94,43.44,507.66,122.3,747.54
			c37.97,115.5,90.27,228.45,173.02,318.77c144.51,157.74,210.6,371,245.63,578c42.93,253.62,44.67,513.45,37.53,769.91
			c-4.21,151.45-12.46,302.74-21.13,453.99"/>
		<linearGradient id="SVGID_62_" gradientUnits="userSpaceOnUse" x1="912.1461" y1="-1044.509" x2="2486.6699" y2="1682.6462">
			<stop  offset="0" style="stop-color:#FFFFFF"/>
			<stop  offset="1" style="stop-color:#0000FF"/>
		</linearGradient>
		<path class="st62" d="M1384.15-1316.72c-3.66,135.2,1.85,271.11,11.22,405.95c17.23,247.97,47.83,503.47,135.89,737.44
			c42.72,113.49,102.17,221.6,192.24,304.2c159.1,145.9,233.58,358.84,272.45,566.07c48.67,259.48,50.06,526.91,42.17,789.92
			c-4.68,156.14-13.86,312.09-23.47,467.99"/>
		<linearGradient id="SVGID_63_" gradientUnits="userSpaceOnUse" x1="937.6215" y1="-1059.5511" x2="2526.4602" y2="1692.3984">
			<stop  offset="0" style="stop-color:#FFFFFF"/>
			<stop  offset="1" style="stop-color:#0000FF"/>
		</linearGradient>
		<path class="st63" d="M1385.26-1317.69c-3.97,133.28,1.93,267.38,11.96,400.24c18.67,247.39,52.06,504.82,150.78,734.51
			c47.75,111.1,114.3,213.01,210.55,287.63c172.84,134.02,256.39,346.26,299.21,554.62c54.07,263.11,55.43,535.94,47.04,803.35
			c-5.1,162.79-15.32,325.37-26,487.87"/>
		<linearGradient id="SVGID_64_" gradientUnits="userSpaceOnUse" x1="963.1083" y1="-1074.5981" x2="2566.239" y2="1702.1057">
			<stop  offset="0" style="stop-color:#FFFFFF"/>
			<stop  offset="1" style="stop-color:#0000FF"/>
		</linearGradient>
		<path class="st64" d="M1386.37-1318.66c-4.32,133.03,2.1,267.04,13.04,399.56c20.2,244.54,56.53,501.33,164.49,724.35
			c53.15,109.8,127.19,205.77,229.69,273.42c187.55,123.78,280.16,336.18,327.03,548.66c59.32,268.92,59.85,549.6,50.48,823.51
			c-5.65,165.29-16.66,330.34-28.13,495.31"/>
		<linearGradient id="SVGID_65_" gradientUnits="userSpaceOnUse" x1="988.6056" y1="-1089.6494" x2="2606.0076" y2="1711.7728">
			<stop  offset="0" style="stop-color:#FFFFFF"/>
			<stop  offset="1" style="stop-color:#0000FF"/>
		</linearGradient>
		<path class="st65" d="M1387.47-1319.63c-4.74,134.43,2.36,270.06,14.58,403.88c21.89,239.59,61.31,492.87,176.65,707.24
			c58.93,109.53,141.02,200.17,249.92,261.37c200.17,112.49,302.68,323.49,354,539.21c64.85,272.6,65.02,559.3,55.08,837.76
			c-6.1,170.86-18.1,341.43-30.58,511.92"/>
		<linearGradient id="SVGID_66_" gradientUnits="userSpaceOnUse" x1="1014.1118" y1="-1104.7043" x2="2645.7668" y2="1721.4049">
			<stop  offset="0" style="stop-color:#FFFFFF"/>
			<stop  offset="1" style="stop-color:#0000FF"/>
		</linearGradient>
		<path class="st66" d="M1388.58-1320.6c-5.06,133.12,2.48,267.59,15.39,400.02c23.26,238.5,65.92,493.65,191.47,701.91
			c65.03,107.86,154.51,191.45,268.23,245.93c213.87,102.46,326.92,314.26,382.38,535.96c68.9,275.43,68.75,566.58,58.17,848.52
			c-6.58,175.43-19.52,350.55-32.94,525.56"/>
		<linearGradient id="SVGID_67_" gradientUnits="userSpaceOnUse" x1="1039.6257" y1="-1119.762" x2="2685.5183" y2="1731.0074">
			<stop  offset="0" style="stop-color:#FFFFFF"/>
			<stop  offset="1" style="stop-color:#0000FF"/>
		</linearGradient>
		<path class="st67" d="M1389.69-1321.56c-5.44,133.15,2.65,267.88,16.59,400.23c24.88,236.27,70.99,491.72,206.02,692.4
			c71.42,106.14,168.25,182.55,286.41,230.8c224.97,91.87,349.13,301.15,409.36,527.44c74.23,278.89,73.9,575.75,62.76,862.09
			c-7.03,180.74-20.97,361.13-35.4,541.4"/>
		<linearGradient id="SVGID_68_" gradientUnits="userSpaceOnUse" x1="1065.146" y1="-1134.8214" x2="2725.2632" y2="1740.5857">
			<stop  offset="0" style="stop-color:#FFFFFF"/>
			<stop  offset="1" style="stop-color:#0000FF"/>
		</linearGradient>
		<path class="st68" d="M1390.8-1322.53c-5.76,133.19,2.84,268.15,17.79,400.42c26.37,233.29,76.01,486.83,218.35,679.65
			c78.18,105.91,183.24,176.23,306.82,219.19c109.07,37.91,205.2,104.24,277.85,194.14c75.82,93.82,124.59,206.73,157.51,321.99
			c81.02,283.71,80.11,588.74,68.24,881.1c-7.52,185.08-22.39,369.76-37.76,554.32"/>
		<linearGradient id="SVGID_69_" gradientUnits="userSpaceOnUse" x1="1106.4407" y1="-1158.9863" x2="2780.7725" y2="1741.0413">
			<stop  offset="0" style="stop-color:#FFFFFF"/>
			<stop  offset="1" style="stop-color:#0000FF"/>
		</linearGradient>
		<path class="st69" d="M1391.91-1323.49c-6.07,131.9,2.91,265.76,18.53,396.65c27.66,231.68,80.77,485.21,230.98,671.03
			c85.27,105.49,198.56,169.63,327.39,207.65c114.48,33.78,217.15,97.26,295.49,187.64c80.32,92.67,132.32,206.56,167.35,323.19
			c86.39,287.64,84.79,599.35,72.13,896.62c-8.03,188.48-23.77,376.53-40.02,564.45"/>
		<linearGradient id="SVGID_70_" gradientUnits="userSpaceOnUse" x1="1159.4326" y1="-1189.9031" x2="2848.271" y2="1735.2506">
			<stop  offset="0" style="stop-color:#FFFFFF"/>
			<stop  offset="1" style="stop-color:#0000FF"/>
		</linearGradient>
		<path class="st70" d="M1393.01-1324.45c-6.46,132.21,3.12,266.65,19.84,397.71c29.4,230.49,86.96,484.29,246.65,661.95
			c92.17,102.54,212.32,159.06,344.34,192.01c120.21,30.01,230.02,91.09,314.13,182.65c84.83,92.33,140.21,207.78,177.2,326.65
			c43.86,140.96,62.48,290.59,72.67,437.43c11.07,159.47,9.64,319.61,2.44,479.22c-8.53,189.27-25.34,378.05-42.38,566.7"/>
		<linearGradient id="SVGID_71_" gradientUnits="userSpaceOnUse" x1="1211.7871" y1="-1220.4503" x2="2915.8743" y2="1731.1151">
			<stop  offset="0" style="stop-color:#FFFFFF"/>
			<stop  offset="1" style="stop-color:#0000FF"/>
		</linearGradient>
		<path class="st71" d="M1394.12-1325.41c-6.88,132.5,3.34,267.55,21.17,398.73c31.05,228.48,92.87,480.52,259.8,649.92
			c99.49,100.96,227.27,150.99,363.79,179.67c125.45,26.35,241.9,84.79,331.8,176.97c92.81,95.16,149.19,213.77,187.04,339.86
			c89.94,299.62,93.75,620.99,78.97,930.96c-9.03,189.42-26.7,378.29-44.63,567.03"/>
		<linearGradient id="SVGID_72_" gradientUnits="userSpaceOnUse" x1="1263.2235" y1="-1250.4656" x2="2982.5869" y2="1727.5591">
			<stop  offset="0" style="stop-color:#FFFFFF"/>
			<stop  offset="1" style="stop-color:#0000FF"/>
		</linearGradient>
		<path class="st72" d="M1395.23-1326.36c-7.19,131.8,3.46,266.38,22.1,396.74c32.63,228.22,99.04,480.38,274.56,642.13
			c106.77,98.39,241.71,141.69,382.04,166.4c129.42,22.79,251.4,77.74,346.84,169.26c100.48,96.34,157.09,223.92,198.2,355
			c94.69,301.94,99.87,627.11,84.38,940.49c-9.45,191.12-28.13,381.64-47.13,572"/>
		<linearGradient id="SVGID_73_" gradientUnits="userSpaceOnUse" x1="1314.0734" y1="-1280.1404" x2="3048.7434" y2="1724.3961">
			<stop  offset="0" style="stop-color:#FFFFFF"/>
			<stop  offset="1" style="stop-color:#0000FF"/>
		</linearGradient>
		<path class="st73" d="M1396.34-1327.32c-7.58,132.07,3.69,267.24,23.45,397.7c34.2,225.69,104.65,473.9,284.74,627.72
			c114.72,97.98,258.25,135.75,404.44,157.1c135.42,19.78,264.54,72.96,366.12,166.15c102.52,94.05,163.08,237.46,205.4,367.31
			c99.75,306.04,105.87,636.87,89.16,955.44c-9.98,190.33-29.45,380.01-49.27,569.52"/>
		<linearGradient id="SVGID_74_" gradientUnits="userSpaceOnUse" x1="1362.4369" y1="-1308.3782" x2="3112.4478" y2="1722.7295">
			<stop  offset="0" style="stop-color:#FFFFFF"/>
			<stop  offset="1" style="stop-color:#0000FF"/>
		</linearGradient>
		<path class="st74" d="M1397.44-1328.27c-7.9,131.38,3.8,266.12,24.37,395.74c36.04,227.17,112.18,476.65,302.55,622.33
			c121.73,93.15,270.67,124.2,419.65,142.06c134.66,16.15,287.76,63.96,383.79,165.26c101.35,106.92,168.74,242.79,215.23,381.4
			c102.96,306.95,110.63,639.37,93.28,959.71c-10.38,191.7-30.89,382.68-51.77,573.46"/>
		<linearGradient id="SVGID_75_" gradientUnits="userSpaceOnUse" x1="1411.4666" y1="-1336.9985" x2="3176.8552" y2="1720.7445">
			<stop  offset="0" style="stop-color:#FFFFFF"/>
			<stop  offset="1" style="stop-color:#0000FF"/>
		</linearGradient>
		<path class="st75" d="M1398.55-1329.22c-8.18,130.71,3.91,265.02,25.27,393.83c37.6,226.81,118.32,473.51,314.35,612.12
			c129.52,91.58,286.54,117.11,440.89,132.15c76.75,7.48,152.85,24.04,224.54,52.9c68.02,27.38,124.79,64.12,175.87,116.82
			c105.95,109.31,177.31,248.88,226.42,391.78c106.4,309.59,115.27,645.31,96.72,969.1c-10.93,190.72-32.21,380.65-53.91,570.38"/>
		<linearGradient id="SVGID_76_" gradientUnits="userSpaceOnUse" x1="1460.267" y1="-1365.4851" x2="3241.0742" y2="1718.9639">
			<stop  offset="0" style="stop-color:#FFFFFF"/>
			<stop  offset="1" style="stop-color:#0000FF"/>
		</linearGradient>
		<path class="st76" d="M1399.66-1330.17c-8.5,130.04,4.03,263.97,26.16,391.96c39.19,226.62,124.56,470.54,326.03,602.08
			c137.47,89.76,302.31,109.96,462.25,122.4c79.92,6.22,159.36,21.84,234.47,50.35c71.38,27.09,130.23,71.31,183.61,125.51
			c109.74,111.44,184.6,253.99,236.26,400.43c109.43,310.17,120.07,647.09,100.82,972.35c-11.34,191.72-33.65,382.57-56.41,573.21"
			/>
		<linearGradient id="SVGID_77_" gradientUnits="userSpaceOnUse" x1="1508.8069" y1="-1393.8196" x2="3305.0774" y2="1717.412">
			<stop  offset="0" style="stop-color:#FFFFFF"/>
			<stop  offset="1" style="stop-color:#0000FF"/>
		</linearGradient>
		<path class="st77" d="M1400.77-1331.12c-9.01,131.69,4.45,267.78,28.31,397.12c41.88,227.04,134.1,466.95,342.99,589.14
			c144.44,84.49,314.01,98.95,477.08,108.9c82.67,5.05,165.48,19.81,243.71,47.88c71.95,25.81,137.54,80.23,190.97,133.66
			c113.25,113.24,191.72,257.97,246.11,407.47c113.51,312.02,126.05,651.64,105.88,979.88c-11.8,191.89-35.06,382.83-58.8,573.53"/>
		<linearGradient id="SVGID_78_" gradientUnits="userSpaceOnUse" x1="1539.2432" y1="-1411.7" x2="3351.0244" y2="1726.3973">
			<stop  offset="0" style="stop-color:#FFFFFF"/>
			<stop  offset="1" style="stop-color:#0000FF"/>
		</linearGradient>
		<path class="st78" d="M1401.87-1332.07c-9.28,130.12,4.44,264.87,28.69,392.53c43.49,228.92,141.03,467.2,356.61,582.79
			c152.06,81.54,328.61,91.14,497.01,98.98c85.08,3.96,178.34,14.13,256.51,50.33c72.59,33.62,137.91,81.5,194.77,137.55
			c117.71,116.02,200.14,264.64,257.32,418.57c116.63,313.98,130.74,655.91,109.31,986.97c-12.33,190.52-36.39,380.03-60.93,569.29"
			/>
		<linearGradient id="SVGID_79_" gradientUnits="userSpaceOnUse" x1="1566.4984" y1="-1427.7423" x2="3393.8425" y2="1737.3103">
			<stop  offset="0" style="stop-color:#FFFFFF"/>
			<stop  offset="1" style="stop-color:#0000FF"/>
		</linearGradient>
		<path class="st79" d="M1402.98-1333.01c-9.61,129.45,4.56,263.9,29.57,390.71c45.28,229.57,147.91,464.04,368.16,573.01
			c160.02,79.17,344.06,84.16,518.51,90.15c91.06,3.12,182.31,14.74,265.76,53.21c76.35,35.2,145.05,85.55,204.86,144.38
			c120.63,118.66,206.17,269.93,265.8,427.21c119.21,314.41,135.31,656.99,113,989.31c-12.78,190.35-37.8,379.59-63.32,568.57"/>
		<linearGradient id="SVGID_80_" gradientUnits="userSpaceOnUse" x1="1593.3363" y1="-1443.5414" x2="3436.2981" y2="1748.5624">
			<stop  offset="0" style="stop-color:#FFFFFF"/>
			<stop  offset="1" style="stop-color:#0000FF"/>
		</linearGradient>
		<path class="st80" d="M1404.09-1333.95c-9.98,130.14,4.88,265.75,31.27,392.97c47.64,229.64,156.15,458.49,380.36,560.05
			c167.63,75.92,358.43,76.51,538.55,80.86c95.81,2.31,187.35,16,275.01,56.45c78.94,36.42,150.1,88.29,212.22,148.85
			c123.99,120.89,213.24,274.74,275.65,435.27c122.74,315.72,141.39,659.77,118.06,994.54c-13.24,189.96-39.22,378.74-65.71,567.22"
			/>
		<linearGradient id="SVGID_81_" gradientUnits="userSpaceOnUse" x1="1619.7168" y1="-1459.0754" x2="3478.3564" y2="1760.183">
			<stop  offset="0" style="stop-color:#FFFFFF"/>
			<stop  offset="1" style="stop-color:#0000FF"/>
		</linearGradient>
		<path class="st81" d="M1405.2-1334.9c-10.27,128.66,4.86,262.99,31.6,388.63c49.77,233.82,165.15,460.69,397.55,555.26
			c174.41,70.98,370.25,67.52,554.97,70.45c99.41,1.58,193.49,17.94,284.25,60.04c82.72,38.37,157.21,92.83,222.34,156.39
			c126.85,123.79,219.17,280.58,284.1,444.54c125.03,315.77,146.01,659.8,121.74,995.47c-13.69,189.37-40.63,377.46-68.1,565.23"/>
		<linearGradient id="SVGID_82_" gradientUnits="userSpaceOnUse" x1="1644.6826" y1="-1473.7905" x2="3519.0635" y2="1772.7323">
			<stop  offset="0" style="stop-color:#FFFFFF"/>
			<stop  offset="1" style="stop-color:#0000FF"/>
		</linearGradient>
		<path class="st82" d="M1406.31-1335.83c-10.68,129.34,5.18,264.78,33.32,390.8c24.99,111.9,64.11,222.76,127.9,318.72
			c68.56,103.15,165.63,180.6,281.83,223.74c181.92,67.55,384.23,60.13,575,62.03c201.46,2,380.93,86.95,524.28,226.68
			c129.39,126.12,224.87,284.89,292.54,451.55c128.85,317.36,152.56,663.3,126.97,1001.82c-14.21,187.91-42.01,374.44-70.35,560.63"
			/>
		<linearGradient id="SVGID_83_" gradientUnits="userSpaceOnUse" x1="1669.7329" y1="-1488.553" x2="3559.9226" y2="1785.3517">
			<stop  offset="0" style="stop-color:#FFFFFF"/>
			<stop  offset="1" style="stop-color:#0000FF"/>
		</linearGradient>
		<path class="st83" d="M1407.41-1336.77c-11.01,128.93,5.34,264.35,34.34,389.74c25.89,111.93,66.61,222.71,132.88,317.34
			c71.42,101.99,171.88,175.8,289.7,215.64c189.41,64.04,398.19,53.01,595.06,54C2868.81-358,3159.47-9.48,3304.04,340.8
			c130.81,316.96,157.24,662.15,130.66,1001.12c-14.66,186.9-43.44,372.31-72.74,557.36"/>
		<linearGradient id="SVGID_84_" gradientUnits="userSpaceOnUse" x1="1694.583" y1="-1503.1978" x2="3600.6536" y2="1798.213">
			<stop  offset="0" style="stop-color:#FFFFFF"/>
			<stop  offset="1" style="stop-color:#0000FF"/>
		</linearGradient>
		<path class="st84" d="M1408.52-1337.71c-11.34,128.53,5.5,263.93,35.35,388.69c26.8,111.97,69.14,222.68,137.91,315.89
			c75.22,101.96,180.37,172.42,301.33,208.86c195.91,59.01,409.81,45.28,611.33,45.22c418.49-0.11,723.65,369.38,872.47,724.64
			C3499.47,662,3528.86,1006,3501.24,1345.24c-15.11,185.65-44.88,369.71-75.13,553.38"/>
		<linearGradient id="SVGID_85_" gradientUnits="userSpaceOnUse" x1="1719.0901" y1="-1517.6428" x2="3641.1177" y2="1811.4064">
			<stop  offset="0" style="stop-color:#FFFFFF"/>
			<stop  offset="1" style="stop-color:#0000FF"/>
		</linearGradient>
		<path class="st85" d="M1409.63-1338.64c-11.67,127.91,5.62,263.07,36.2,386.99c27.49,111.41,71.07,221.3,141.42,312.88
			c77.91,101.41,186.39,168.87,309.12,202.64c204.86,56.37,423.7,35.32,633.11,38.91c430.99,7.39,743.27,380.43,900,748.62
			c134.65,316.33,167.1,659.74,138.16,999.82c-15.62,183.58-46.28,365.45-77.37,546.92"/>
		<linearGradient id="SVGID_86_" gradientUnits="userSpaceOnUse" x1="1743.0679" y1="-1531.7806" x2="3681.1331" y2="1825.0468">
			<stop  offset="0" style="stop-color:#FFFFFF"/>
			<stop  offset="1" style="stop-color:#0000FF"/>
		</linearGradient>
		<path class="st86" d="M1410.74-1339.57c-11.98,127.3,5.74,262.22,37.04,385.33c28.46,111.91,73.84,222.08,146.98,312.46
			c81.43,100.62,193.9,164.3,318.77,194.92c212.08,52.01,435.5,26.72,651,32.17C3006.7-403.5,3328.94-18.39,3492.05,359
			c136.14,314.97,172.16,656.36,142.26,995.99c-16.05,182.32-47.77,362.8-79.88,542.84"/>
		<linearGradient id="SVGID_87_" gradientUnits="userSpaceOnUse" x1="1766.5717" y1="-1545.6429" x2="3720.76" y2="1839.1104">
			<stop  offset="0" style="stop-color:#FFFFFF"/>
			<stop  offset="1" style="stop-color:#0000FF"/>
		</linearGradient>
		<path class="st87" d="M1411.84-1340.51c-12.38,127.9,6.09,263.93,38.82,387.27c29.17,109.93,75.49,217.79,149.19,305.47
			c84.68,100.74,201.17,161.61,328.61,189.68c219.75,48.4,448.8,18.86,671.12,26.46c453.47,15.52,785.46,413.44,955.06,800.1
			c137.86,314.31,177.4,654.37,146.08,994.26c-16.57,179.8-49.18,357.62-82.12,535"/>
		<linearGradient id="SVGID_88_" gradientUnits="userSpaceOnUse" x1="1789.5933" y1="-1559.2253" x2="3759.9944" y2="1853.6095">
			<stop  offset="0" style="stop-color:#FFFFFF"/>
			<stop  offset="1" style="stop-color:#0000FF"/>
		</linearGradient>
		<path class="st88" d="M1412.95-1341.43c-12.73,127.49,6.24,263.57,39.83,386.25c30.15,110.1,78.16,217.7,154.24,303.95
			c87.76,99.49,207.5,156.65,336.33,182.01c227.32,44.75,462.13,11.16,691.26,21.21c463.4,20.31,804.3,429.46,980.85,823.99
			c140.49,313.96,184.52,653.28,151.77,994.15c-17.05,177.48-50.64,352.82-84.48,527.71"/>
		<linearGradient id="SVGID_89_" gradientUnits="userSpaceOnUse" x1="1812.1057" y1="-1572.5118" x2="3798.8145" y2="1868.5686">
			<stop  offset="0" style="stop-color:#FFFFFF"/>
			<stop  offset="1" style="stop-color:#0000FF"/>
		</linearGradient>
		<path class="st89" d="M1414.06-1342.36c-13.01,126.93,6.4,262.72,40.66,384.62c31.09,110.63,81.06,218.5,159.86,303.4
			c91.49,98.56,215.05,151.87,345.95,174.48c234.06,40.43,473.94,3.29,709.12,16.02c474.96,25.71,825.19,449.26,1008.38,853.27
			c141.75,312.62,189.9,649.85,155.59,990.29c-17.58,174.49-52.08,346.7-86.72,518.44"/>
		<linearGradient id="SVGID_90_" gradientUnits="userSpaceOnUse" x1="1834.1232" y1="-1585.5109" x2="3837.239" y2="1883.9875">
			<stop  offset="0" style="stop-color:#FFFFFF"/>
			<stop  offset="1" style="stop-color:#0000FF"/>
		</linearGradient>
		<path class="st90" d="M1415.17-1343.29c-13.36,126.53,6.56,262.4,41.66,383.64c31.79,109.79,82.86,216.46,162.78,299.48
			c94.86,98.55,222.42,149.04,355.8,169.29c241.39,36.65,487.35-3.98,729.29,11.78C3191.33-447.4,3550.66-8.7,3740.6,404.93
			c75.24,163.85,129.21,337.85,154.57,516.53c22.06,155.44,21.33,312.87,4.85,468.8c-18.1,171.27-53.52,340.11-88.96,508.46"/>
		<linearGradient id="SVGID_91_" gradientUnits="userSpaceOnUse" x1="1855.6344" y1="-1598.2156" x2="3875.2615" y2="1899.8812">
			<stop  offset="0" style="stop-color:#FFFFFF"/>
			<stop  offset="1" style="stop-color:#0000FF"/>
		</linearGradient>
		<path class="st91" d="M1416.27-1344.21c-13.66,126.19,6.73,262.04,42.67,382.67c32.77,109.98,85.64,216.4,167.87,297.86
			c99.15,98.23,231.49,144.94,367.74,162.44c105.82,13.59,213.05,12.41,319.49,9.79c65.27-1.6,130.69-5.33,195.98-5.13
			c76.27,0.23,153.87-2.99,229.72,2.83c499.32,38.33,867.97,494.4,1064.57,918.74c76.15,164.37,131.87,338.85,157.81,518.36
			c21.91,151.64,21.23,305.24,4.41,457.34c-18.6,168.19-55.02,333.76-91.32,498.82"/>
		<linearGradient id="SVGID_92_" gradientUnits="userSpaceOnUse" x1="1876.4764" y1="-1610.5325" x2="3912.7246" y2="1916.3527">
			<stop  offset="0" style="stop-color:#FFFFFF"/>
			<stop  offset="1" style="stop-color:#0000FF"/>
		</linearGradient>
		<path class="st92" d="M1417.38-1345.13c-14.01,125.81,6.92,261.74,43.66,381.7c33.75,110.2,88.48,216.32,173,296.18
			c102.4,96.76,237.74,139.88,375.38,155.1c108.83,12.03,218.82,9.43,328.06,6.02c65.94-2.06,132.08-6.18,198.04-4.69
			c79.6,1.8,160.13-4.02,239.26,3.03c271.69,24.19,510.11,177.88,696.56,370.29c162.75,167.95,294.24,367.23,393.77,578.48
			c77.71,164.95,135.95,340.05,163.17,520.64c22.51,149.36,22.14,300.75,4.76,450.61c-19.11,164.83-56.54,326.83-93.68,488.33"/>
		<linearGradient id="SVGID_93_" gradientUnits="userSpaceOnUse" x1="1896.8826" y1="-1622.5959" x2="3949.8662" y2="1933.276">
			<stop  offset="0" style="stop-color:#FFFFFF"/>
			<stop  offset="1" style="stop-color:#0000FF"/>
		</linearGradient>
		<path class="st93" d="M1418.49-1346.05c-14.42,126.32,7.31,263.35,45.49,383.39c34.51,108.48,90.19,212.35,175.03,289.76
			c105.9,96.63,245.17,136.81,385.26,149.93c111.85,10.48,224.6,6.49,336.67,2.36c69.02-2.54,137.63-4.92,206.69-3.77
			c80.48,1.34,162.28-4.97,242.19,3.18c280.3,28.58,524.45,191.86,715.41,391.87c165.81,173.67,300.72,378.16,403.61,594.78
			c77.73,163.64,137.4,337.14,165.61,516.45c23.1,146.8,23.05,295.68,5.12,443.03c-19.61,161.18-58.08,319.33-96.04,476.96"/>
		<linearGradient id="SVGID_94_" gradientUnits="userSpaceOnUse" x1="1916.7372" y1="-1634.3392" x2="3986.5762" y2="1950.7271">
			<stop  offset="0" style="stop-color:#FFFFFF"/>
			<stop  offset="1" style="stop-color:#0000FF"/>
		</linearGradient>
		<path class="st94" d="M1419.6-1346.97c-14.76,125.95,7.49,263.04,46.5,382.41c35.54,108.74,93.07,212.28,180.14,288.1
			c109.16,95.07,251.38,131.75,392.86,142.75c114.84,8.93,230.35,3.63,345.25-1.18c72.08-3.01,143.34-3.57,215.46-2.69
			c81.32,0.99,164.42-5.7,245.06,3.61c289.03,33.38,538.84,206.76,734.26,414.66c167.27,177.96,304.52,385.61,410.5,605.36
			c79.49,164.82,141.95,339.58,171.38,520.63c23.27,143.17,23.47,288.4,5.07,432.12c-20.13,157.25-59.64,311.23-98.4,464.69"/>
		<linearGradient id="SVGID_95_" gradientUnits="userSpaceOnUse" x1="1936.0455" y1="-1645.7654" x2="4022.8652" y2="1968.7122">
			<stop  offset="0" style="stop-color:#FFFFFF"/>
			<stop  offset="1" style="stop-color:#0000FF"/>
		</linearGradient>
		<path class="st95" d="M1420.71-1347.89c-15.05,125.59,7.67,262.73,47.5,381.44c36.59,109.06,96.03,212.13,185.29,286.39
			c113.58,94.5,260.52,127.37,404.88,135.98c116.35,6.94,233.13,0.46,349.41-4.88c72.78-3.34,144.65-2.27,217.46-1.49
			c84.34,0.9,171.17-6.43,254.67,4.39c297.85,38.6,553.33,222.58,753.13,438.69c170.22,184.12,310.83,397.22,420.33,622.54
			c79.73,164.06,143.86,337.86,174.2,518.24c23.43,139.29,23.91,280.63,5.02,420.48c-20.66,153.02-61.23,302.51-100.76,451.49"/>
		<linearGradient id="SVGID_96_" gradientUnits="userSpaceOnUse" x1="1954.7802" y1="-1656.8585" x2="4058.7107" y2="1987.2563">
			<stop  offset="0" style="stop-color:#FFFFFF"/>
			<stop  offset="1" style="stop-color:#0000FF"/>
		</linearGradient>
		<path class="st96" d="M1421.81-1348.8c-15.42,125.4,7.92,262.86,48.69,381.03c37.6,108.99,98.8,211.28,189.85,283.77
			c117.45,93.5,268.21,122.88,414.83,129.4c119.09,5.29,238.4-2.42,357.33-8.26c75.42-3.7,150.26-0.59,225.73,0.05
			c84.85,0.72,172.85-6.75,256.72,5.36C3218.84-513.6,3477.74-321.68,3681-99.99c174.39,190.21,319.18,409.36,433.15,640.63
			c80.96,164.3,147.73,338.26,179.59,519.21c23.93,135.89,24.87,273.89,5.38,410.38c-21.21,148.49-62.85,293.17-103.12,437.34"/>
		<linearGradient id="SVGID_97_" gradientUnits="userSpaceOnUse" x1="1972.9243" y1="-1667.6091" x2="4094.1023" y2="2006.379">
			<stop  offset="0" style="stop-color:#FFFFFF"/>
			<stop  offset="1" style="stop-color:#0000FF"/>
		</linearGradient>
		<path class="st97" d="M1422.92-1349.72c-15.73,125.06,8.11,262.55,49.69,380.08c38.31,108.31,100.68,209.5,192.65,280.18
			c121.18,93.13,275.54,119.57,424.75,124.29c122.03,3.86,244.12-5.05,365.91-11.35c75.82-3.92,151.74,1.01,227.65,1.68
			c87.82,0.77,179.82-7.15,266.42,6.67c313.51,50.04,578.25,254.21,786.09,485.26c175.83,195.48,322.85,418.72,439.98,653.89
			c81.95,164.53,151.2,338.63,184.3,520.1c23.92,131.11,25.26,264.23,5.39,395.94c-21.72,143.94-64.55,283.73-105.6,423.05"/>
		<linearGradient id="SVGID_98_" gradientUnits="userSpaceOnUse" x1="1990.4911" y1="-1678.0247" x2="4129.0586" y2="2026.0825">
			<stop  offset="0" style="stop-color:#FFFFFF"/>
			<stop  offset="1" style="stop-color:#0000FF"/>
		</linearGradient>
		<path class="st98" d="M1424.03-1350.63c-16.07,124.7,8.32,262.29,50.68,379.13c39.4,108.67,103.75,209.34,197.81,278.43
			c124.41,91.39,281.65,114.54,432.3,117.42c124.95,2.39,249.81-7.63,374.48-14.3c78.35-4.19,158.04,2.85,236.56,3.57
			c88.47,0.82,182.19-7.09,269.18,8.21c321.13,56.5,590.14,270.82,801.95,509.71c179.3,202.23,329.99,431.72,451.33,673.01
			c82.32,163.69,153.63,336.69,188.21,517.35c24.34,127.14,26.28,256.32,5.74,384.11c-19.75,122.9-56.7,242.27-93.61,360.87
			c-4.77,15.34-9.57,30.68-14.35,46.03"/>
		<linearGradient id="SVGID_99_" gradientUnits="userSpaceOnUse" x1="2007.4521" y1="-1688.0885" x2="4163.5562" y2="2046.3929">
			<stop  offset="0" style="stop-color:#FFFFFF"/>
			<stop  offset="1" style="stop-color:#0000FF"/>
		</linearGradient>
		<path class="st99" d="M1425.14-1351.54c-16.4,124.54,8.57,262.41,51.87,378.72c40.45,108.66,106.61,208.48,202.38,275.81
			c128.35,90.24,289.23,109.97,442.26,110.98c60.09,0.4,120.17-2.07,180.17-5.28c69.17-3.7,139.19-12.25,208.44-12.16
			c77.13,0.11,154.51,5.07,231.7,5.93c43.64,0.49,87.28,0.87,130.92,1.58c49.12,0.79,99.03-0.73,147.22,8.54
			c329.45,63.38,603.17,289.29,819,536.75c182.04,208.72,335.84,443.98,461.16,690.76c82.81,163.09,156.35,335.22,192.52,515.3
			c24.72,123.07,27.24,248.15,5.88,371.89c-20.24,117.26-57.89,230.72-95.15,343.44c-5,15.12-10.01,30.24-15.01,45.36"/>
		<linearGradient id="SVGID_100_" gradientUnits="userSpaceOnUse" x1="2023.8042" y1="-1697.7991" x2="4197.5981" y2="2067.3223">
			<stop  offset="0" style="stop-color:#FFFFFF"/>
			<stop  offset="1" style="stop-color:#0000FF"/>
		</linearGradient>
		<path class="st100" d="M1426.24-1352.44c-16.73,124.19,8.79,262.15,52.87,377.79c41.21,108.11,108.56,206.67,205.14,272.35
			c131.98,89.77,296.62,106.64,452.18,105.96c60.53-0.27,121.02-3.21,181.43-6.8c69.19-4.11,140.33-14.42,209.57-11.12
			c82.22,3.92,164.55,4.98,246.84,6.12c44.09,0.61,88.17,1.23,132.25,2.28c49.48,1.18,100.19-0.17,148.6,9.97
			c337.89,70.75,616.19,308.71,836.03,565.11c185.48,216.31,342.89,458.58,472.53,712.14c82.58,161.51,157.66,331.65,195.3,509.92
			c24.93,118.11,28.23,238.21,6.29,357.03c-20.78,112.53-59.6,220.87-97.54,328.5c-5.03,14.28-10.08,28.56-15.1,42.84"/>
		<linearGradient id="SVGID_101_" gradientUnits="userSpaceOnUse" x1="2039.5225" y1="-1707.1418" x2="4231.166" y2="2088.8958">
			<stop  offset="0" style="stop-color:#FFFFFF"/>
			<stop  offset="1" style="stop-color:#0000FF"/>
		</linearGradient>
		<path class="st101" d="M1427.35-1353.35c-17.08,124.03,9.05,262.28,54.06,377.37c42.3,108.15,111.48,205.82,209.7,269.77
			c135.95,88.52,304.15,102.02,462.15,99.59c134.97-2.08,270.49-23.15,405.22-17.57c80.56,3.34,161.2,4.37,241.81,5.77
			c44.25,0.77,88.5,1.64,132.74,3.03c52.07,1.64,106.35,0.24,157.14,11.77c347.03,78.76,630.2,329.97,854.27,596.24
			c187.46,222.77,347.37,470.49,480.82,729.06c83.4,161.59,161.14,331.62,200.43,510.07c24.75,112.43,28.66,226.79,6.07,339.89
			c-21.4,107.13-61.29,209.66-99.75,311.55c-5.08,13.45-10.16,26.91-15.22,40.37"/>
		<linearGradient id="SVGID_102_" gradientUnits="userSpaceOnUse" x1="2054.6028" y1="-1716.1147" x2="4264.2607" y2="2111.1255">
			<stop  offset="0" style="stop-color:#FFFFFF"/>
			<stop  offset="1" style="stop-color:#0000FF"/>
		</linearGradient>
		<path class="st102" d="M1428.46-1354.26c-17.37,123.73,9.27,262,55.05,376.45c43.43,108.58,114.69,205.61,214.89,267.93
			c139.21,86.58,309.99,97.11,469.63,93.07c135.98-3.44,271.63-23.02,407.54-17.65c85.66,3.38,171.4,4.45,257.1,6.34
			c44.68,0.99,89.36,2.19,134.01,4.02c52.35,2.15,107.64,1.07,158.52,13.53c355.65,87.15,643.23,351.41,871.3,627.35
			c190.11,230,352.97,484.15,490.66,748.69c83.66,160.74,163.52,329.52,204.74,506.9c24.95,107.36,29.76,216.6,6.2,324.61
			c-21.98,100.72-62.63,196.44-101.28,291.62c-5.31,13.07-10.61,26.14-15.89,39.22"/>
		<linearGradient id="SVGID_103_" gradientUnits="userSpaceOnUse" x1="2069.0459" y1="-1724.718" x2="4296.8901" y2="2134.0215">
			<stop  offset="0" style="stop-color:#FFFFFF"/>
			<stop  offset="1" style="stop-color:#0000FF"/>
		</linearGradient>
		<path class="st103" d="M1429.57-1355.16c-17.74,123.55,9.55,262.15,56.24,376.03c44.55,108.65,117.68,204.72,219.47,265.32
			c143.2,85.25,317.42,92.49,479.61,86.84c65.27-2.27,130.44-6.99,195.56-11.87c34.41-2.58,68.8-5.24,103.22-7.71
			c40.92-2.94,82.07,1.19,123.05,2.64c83.96,2.97,167.97,4.15,251.95,6.44c47.4,1.29,94.8,2.91,142.16,5.36
			c52.45,2.72,108.66,2.03,159.43,15.42c363.38,95.82,654.69,372.44,886.42,657.51c194.1,238.77,360.91,501.25,503.62,773.67
			c83.4,159.2,164.82,325.91,207.91,501.34c24.96,101.61,30.86,205.11,6.38,307.36c-22.67,94.73-64.47,183.94-103.48,272.75
			c-5.35,12.18-10.7,24.37-16.01,36.57"/>
	</g>
</g>
</svg>
