<?xml version="1.0" encoding="utf-8"?>
<!-- Generator: Adobe Illustrator 24.0.0, SVG Export Plug-In . SVG Version: 6.00 Build 0)  -->
<svg version="1.1" id="Layer_1" xmlns="http://www.w3.org/2000/svg" xmlns:xlink="http://www.w3.org/1999/xlink" x="0px" y="0px"
	 viewBox="0 0 2164 908" style="enable-background:new 0 0 2164 908;" xml:space="preserve">
<style type="text/css">
	.st0{fill:none;stroke:#173696;stroke-width:0.5241;stroke-miterlimit:10;}
</style>
<g>
	<g>
		<g>
			<path class="st0" d="M-942.61,326.25c98.94-6.14,198.59-8.95,297.29,2.31c64.76,7.39,127.82,22.3,191.12,37.33
				c59.83,14.21,120.03,25.71,181.67,27.57c88.42,2.66,176.45-12.21,260.91-35.58c83.55-23.12,165.07-55.41,240.36-99.69
				c55.34-32.54,106.41-71.3,156.87-110.84C495.35,61.33,608.24-14.46,733.73-74.96c86.2-41.56,169.12-73.41,265.19-79.19
				c85.46-5.14,153.75-39,217.42-94.54c75.49-65.85,126.53-149.58,172.56-238.79c40.6-78.68,83.6-155.77,126.3-233.31"/>
		</g>
		<g>
			<path class="st0" d="M-921.99,374.7c98.82-7.29,198.35-11.17,297.14-1.17c65.3,6.61,129.03,20.7,193,34.84
				c60.49,13.38,121.32,24.07,183.43,25.15c88.44,1.53,176.3-14.25,260.47-38.61c81.82-23.68,161.72-56.22,235.17-100.66
				c54.88-33.2,105.23-72.75,154.89-113.17C509.15,93.95,619.55,17.49,743.09-43.75c86.38-42.82,169.53-75.04,266.17-82.22
				c86.01-6.39,154.72-40.41,218.26-97.18c73.87-66.01,122.51-149.34,165.71-238.7c38.01-78.61,78.5-155.52,119.67-232.51"/>
		</g>
		<g>
			<path class="st0" d="M-899.32,422.68c98.69-8.45,198.09-13.4,296.95-4.68c65.82,5.81,130.22,19.06,194.84,32.29
				c61.14,12.52,122.58,22.39,185.15,22.66c88.46,0.39,176.11-16.31,260-41.67c81.71-24.7,161.33-58.35,234.17-104.18
				c52.83-33.24,101.1-72.65,148.7-112.86C524.81,126.11,632.76,48.97,754.32-12.99c53.16-27.1,107.95-53.72,165.92-69.63
				c33.23-9.12,66.97-12.69,101.16-15.72c86.52-7.68,155.67-41.9,219.04-99.93c72.24-66.16,118.51-149.09,158.89-238.53
				c35.43-78.5,73.41-155.19,113.05-231.64"/>
		</g>
		<g>
			<path class="st0" d="M-874.59,470.14c99.35-9.69,199.44-15.73,299.15-8.02c65.51,5.07,129.75,17.33,194.22,29.47
				c61.02,11.5,122.34,20.49,184.59,20.14c89.21-0.49,177.45-18.2,261.74-44.79c81.57-25.74,160.95-60.48,233.1-107.72
				c50.79-33.25,97.01-72.45,142.56-112.42C542.34,157.65,647.82,79.94,767.42,17.27c52.19-27.35,106.01-54.16,163.02-70.68
				c34.46-9.98,69.38-14.18,104.92-17.9c87-9.1,156.55-43.43,219.75-102.76c70.64-66.32,114.55-148.8,152.07-238.28
				c32.85-78.34,68.33-154.78,106.46-230.68"/>
		</g>
		<g>
			<path class="st0" d="M-847.84,517.04c99.2-10.86,199.13-18.01,298.9-11.61c66.01,4.24,130.88,15.62,195.98,26.82
				c61.64,10.61,123.54,18.74,186.23,17.56c89.2-1.67,177.23-20.31,261.2-47.93c79.85-26.26,157.51-61.22,227.85-108.54
				c50.34-33.86,95.83-73.81,140.58-114.62c98.83-90.11,201.82-168.38,319.46-231.76C834.28,19,887.86-8.3,944.74-25.42
				c34.88-10.5,70.32-15.2,106.35-19.51c87.45-10.45,157.47-45.1,220.39-105.69c69.05-66.48,110.62-148.45,145.26-237.94
				c30.25-78.14,63.26-154.28,99.9-229.66"/>
		</g>
		<g>
			<path class="st0" d="M-819.06,563.32c99.02-12.05,198.81-20.31,298.61-15.22c66.51,3.39,131.99,13.87,197.7,24.11
				c62.24,9.7,124.72,16.95,187.83,14.92c89.17-2.86,176.98-22.45,260.61-51.1c78.13-26.76,154.13-61.92,222.66-109.25
				c49.89-34.46,94.61-75.18,138.52-116.81c96.04-91.05,196.6-169.82,312.27-233.89c53.68-29.73,109.28-58.68,168.6-76.24
				c33.05-9.78,66.79-14.53,100.85-19.07c87.85-11.71,158.41-46.89,220.97-108.71c67.45-66.65,106.7-148.08,138.48-237.53
				c27.67-77.9,58.2-153.69,93.35-228.55"/>
		</g>
		<g>
			<path class="st0" d="M-788.27,608.94c98.84-13.24,198.45-22.62,298.27-18.86c66.99,2.52,133.08,12.08,199.37,21.33
				c62.83,8.77,125.86,15.12,189.38,12.22c89.13-4.06,176.7-24.61,259.99-54.29c77.97-27.78,153.7-64.02,221.5-112.77
				c47.85-34.41,90.54-74.83,132.42-116.12c93.28-91.95,191.34-171.17,305.07-235.92c53.4-30.4,108.75-59.87,167.94-78.1
				c33.44-10.3,67.65-15.58,102.16-20.71c88.23-13.12,159.27-48.73,221.47-111.82c65.88-66.81,102.84-147.68,131.7-237.03
				c25.08-77.63,53.16-153.01,86.83-227.37"/>
		</g>
		<g>
			<path class="st0" d="M-755.49,653.85c99.44-14.55,199.72-25.11,300.35-22.47c66.62,1.75,132.49,10.29,198.55,18.44
				c64.18,7.93,128.53,13.35,193.22,9.33c88.27-5.49,174.8-26.91,257-57.37c77.02-28.53,151.77-65.39,218.29-114.83
				c46.61-34.65,87.9-75.27,128.36-116.77c90.48-92.81,186.09-172.45,297.86-237.87c53.1-31.08,108.2-61.07,167.25-80
				c33.82-10.84,68.49-16.67,103.43-22.41c88.57-14.56,160.11-50.66,221.9-115.02c64.28-66.96,99.02-147.26,124.95-236.46
				c22.47-77.3,48.14-152.26,80.34-226.11"/>
		</g>
		<g>
			<path class="st0" d="M-720.73,698c99.22-15.76,199.31-27.47,299.93-26.19c67.08,0.85,133.52,8.43,200.13,15.58
				c64.74,6.95,129.62,11.42,194.69,6.48c88.19-6.69,174.45-29.09,256.27-60.57c76.81-29.56,151.29-67.5,216.98-118.36
				c44.6-34.53,83.91-74.77,122.37-115.87c87.63-93.63,180.84-173.65,290.64-239.72c52.08-31.34,106.17-61.48,164.19-81.14
				c34.92-11.83,70.82-18.4,107-24.96c88.88-16.1,160.89-52.61,222.25-118.31c62.76-67.2,95.2-146.76,118.21-235.8
				c19.88-76.94,43.12-151.4,73.86-224.77"/>
		</g>
		<g>
			<path class="st0" d="M-684.01,741.35c98.99-16.98,198.88-29.84,299.48-29.93c67.52-0.06,134.51,6.54,201.67,12.66
				c65.29,5.95,130.69,9.44,196.13,3.57c88.1-7.9,174.08-31.28,255.5-63.81c75.08-30,147.86-68.08,211.76-118.87
				c44.16-35.1,82.67-76.02,120.28-117.88c84.83-94.43,175.55-174.76,283.41-241.47c51.75-32.01,105.56-62.7,163.41-83.06
				c35.26-12.41,71.61-19.66,108.2-26.81c89.13-17.42,161.73-54.78,222.52-121.68c61.22-67.38,91.45-146.27,111.49-235.07
				c17.27-76.54,38.12-150.45,67.42-223.36"/>
		</g>
		<g>
			<path class="st0" d="M-645.34,783.85c98.75-18.2,198.42-32.22,298.97-33.69c67.94-0.99,135.48,4.61,203.16,9.68
				c65.82,4.93,131.72,7.43,197.51,0.61c87.98-9.12,173.68-33.49,254.68-67.06c73.35-30.4,144.49-68.6,206.61-119.29
				c43.7-35.65,81.4-77.27,118.11-119.9c81.95-95.18,170.28-175.8,276.18-243.14c51.41-32.69,104.93-63.93,162.6-85.01
				c35.59-13.01,72.38-20.88,109.36-28.72c89.38-18.93,162.48-56.95,222.71-125.15c59.66-67.55,87.74-145.74,104.78-234.25
				c14.65-76.08,33.14-149.43,61-221.88"/>
		</g>
		<g>
			<path class="st0" d="M-604.75,825.45c97.67-19.27,196.29-34.38,295.94-37.41c69.18-2.1,138.06,2.52,207.08,6.57
				c67.1,3.94,134.27,5.38,201.15-2.69c87.04-10.5,171.66-35.74,251.51-70.06c73.12-31.43,143.96-70.69,205.21-122.78
				c41.7-35.46,77.43-76.63,112.17-118.74c79.09-95.88,164.99-176.75,268.94-244.72c50.37-32.94,102.85-64.33,159.45-86.11
				c36.64-14.1,74.61-22.82,112.78-31.56c89.58-20.52,163.18-59.18,222.82-128.7c58.12-67.75,84.02-145.18,98.1-233.36
				c12.07-75.59,28.17-148.29,54.6-220.32"/>
		</g>
		<g>
			<path class="st0" d="M-562.25,866.1c97.39-20.49,195.77-36.77,295.33-41.18c69.58-3.08,138.97,0.49,208.48,3.44
				c67.6,2.87,135.24,3.27,202.44-5.8c86.89-11.72,171.19-37.96,250.59-73.33c71.38-31.8,140.53-71.15,200.01-123.06
				c41.27-36.02,76.18-77.82,110.02-120.7c32.02-40.59,64.29-80.89,101.01-117.39c48.87-48.58,103.84-90.59,160.68-128.81
				c50-33.61,102.17-65.57,158.56-88.08c36.95-14.75,75.32-24.14,113.86-33.62c89.75-22.08,163.84-61.5,222.84-132.33
				c56.61-67.95,80.38-144.63,91.43-232.38c9.45-75.05,23.22-147.07,48.24-218.68"/>
		</g>
		<g>
			<path class="st0" d="M-517.86,905.77c97.1-21.72,195.22-39.18,294.68-44.97c69.97-4.08,139.85-1.57,209.84,0.26
				c68.08,1.78,136.18,1.12,203.68-8.96c86.71-12.95,170.69-40.19,249.62-76.61c71.13-32.82,139.97-73.24,198.52-126.55
				c39.28-35.78,72.25-77.06,104.15-119.36c30.18-40.03,60.59-79.76,95.44-115.9c47.96-49.74,102.52-92.65,159-131.69
				c49.61-34.3,101.47-66.83,157.62-90.07c37.25-15.42,75.99-25.51,114.88-35.74c89.89-23.66,164.47-63.91,222.77-136.04
				c55.05-68.12,76.82-144.1,84.78-231.33c6.8-74.45,18.3-145.79,41.9-216.97"/>
		</g>
		<g>
			<path class="st0" d="M-471.61,944.41c96.78-22.95,194.64-41.59,293.97-48.79c70.34-5.09,140.69-3.68,211.14-2.98
				c68.55,0.68,137.08-1.07,204.86-12.18c86.52-14.19,170.15-42.44,248.6-79.91c70.13-33.5,137.98-74.49,195.15-128.39
				c38.08-35.9,69.66-77.22,100.13-119.57c28.82-40.06,57.89-79.81,91.55-116.01c46.65-50.17,100.17-93.45,155.64-132.89
				c48.56-34.52,99.34-67.21,154.39-91.12c38.23-16.6,78.07-27.69,118.12-38.9c90.01-25.19,165.04-66.36,222.61-139.83
				c53.55-68.35,73.25-143.53,78.15-230.2c4.17-73.81,13.38-144.38,35.59-215.18"/>
		</g>
		<g>
			<path class="st0" d="M-423.51,981.97c95.65-23.99,192.4-43.71,290.75-52.4c71.5-6.32,143.14-6.04,214.85-6.5
				c68.23-0.44,136.4-3.22,203.72-15.07c87.13-15.33,171.16-44.75,249.8-83.63c68.39-33.81,134.63-74.84,190.06-128.51
				c37.61-36.41,68.34-78.37,97.83-121.41c27.88-40.69,56.07-81,89.16-117.7c44.98-49.89,96.91-93.02,150.77-132.41
				c48.14-35.2,98.58-68.47,153.37-93.12c38.49-17.32,78.69-29.15,119.05-41.17c90.09-26.81,165.59-68.91,222.35-143.7
				c52.11-68.67,69.68-142.92,71.55-228.99c1.59-73.12,8.48-142.85,29.31-213.32"/>
		</g>
		<g>
			<path class="st0" d="M-373.58,1018.4c95.3-25.22,191.76-46.13,289.93-56.22c71.84-7.39,143.91-8.24,216.04-9.88
				c68.65-1.57,137.22-5.46,204.79-18.36c86.91-16.59,170.57-47.05,248.68-87c68.06-34.82,134.06-76.9,188.4-131.98
				c35.64-36.13,64.48-77.43,92.09-119.81c26.09-40.03,52.47-79.71,83.73-115.96c44-51.02,95.47-95.05,148.93-135.27
				c47.71-35.89,97.79-69.75,152.31-95.15c38.73-18.05,79.27-30.66,119.92-43.49c90.13-28.45,166.07-71.54,222-147.66
				c50.63-68.9,66.18-142.34,64.96-227.71c-1.03-72.38,3.61-141.26,23.05-211.39"/>
		</g>
		<g>
			<path class="st0" d="M-321.85,1053.67c94.94-26.45,191.07-48.56,289.06-60.06c72.16-8.47,144.66-10.48,217.19-13.32
				c69.05-2.71,138-7.73,205.8-21.71c86.66-17.86,169.95-49.36,247.51-90.4c66.35-35.11,130.58-77.21,183.25-131.96
				c35.23-36.62,63.21-78.53,89.83-121.6c25.1-40.62,50.56-80.87,81.26-117.58c42.38-50.68,92.27-94.53,144.14-134.68
				c49.2-38.09,101.08-73.87,157.91-100.39c36.91-17.22,75.49-29.78,114.05-42.69c90.08-30.15,166.53-74.23,221.54-151.69
				c49.13-69.17,62.77-141.71,58.4-226.34c-3.7-71.59-1.23-139.57,16.83-209.38"/>
		</g>
		<g>
			<path class="st0" d="M-268.34,1087.74c94.56-27.69,190.36-51,288.14-63.91c72.46-9.56,145.36-12.75,218.27-16.82
				c69.44-3.88,138.74-10.04,206.76-25.1c86.4-19.13,169.29-51.69,246.28-93.81c66.03-36.13,129.93-79.3,181.48-135.42
				c33.31-36.26,59.39-77.48,84.17-119.81c23.36-39.91,47.06-79.41,75.93-115.66c41.28-51.83,90.77-96.57,142.2-137.54
				c48.74-38.83,100.24-75.24,156.78-102.58c37.12-17.95,75.99-31.29,114.8-45c90.05-31.82,166.91-77,220.99-155.79
				c47.66-69.44,59.34-141.13,51.86-224.9c-6.32-70.73-6.05-137.78,10.64-207.3"/>
		</g>
		<g>
			<path class="st0" d="M-213.08,1120.55c94.95-29.18,191.22-53.85,289.62-68.13c71.94-10.44,144.39-14.75,216.83-20.01
				c161.01-11.69,312-46.27,452.64-125.8c64.99-36.76,127.9-80.46,178.01-137.1c32.13-36.31,56.85-77.45,80.2-119.72
				c22.01-39.83,44.39-79.25,72.09-115.47c39.91-52.18,88.37-97.26,138.76-138.58c48.26-39.57,99.37-76.63,155.59-104.8
				c37.32-18.7,76.46-32.83,115.51-47.37c89.99-33.52,167.26-79.85,220.33-159.98c24.71-37.31,43.66-79.23,49.07-124.87
				c3.9-32.91,0.43-65.83-3.73-98.52c-8.89-69.79-10.84-135.93,4.47-205.15"/>
		</g>
		<g>
			<path class="st0" d="M-156.08,1152.06c94.53-30.44,190.44-56.34,288.59-72.05c72.21-11.56,145.01-17.08,217.79-23.58
				c161.15-14.39,312.33-51.04,452.13-132.75C865.7,886.7,926.94,843,975.42,786.76c31.69-36.76,55.49-78.51,77.78-121.39
				c20.99-40.39,42.44-80.31,69.59-116.98c38.33-51.77,85.17-96.61,134-137.84c47.11-39.78,97.11-76.99,152.11-105.86
				c38.16-20.04,78.33-35.3,118.41-50.98c89.93-35.19,167.53-82.72,219.57-164.23c23.87-37.39,41.97-79.32,45.99-124.74
				c2.89-32.6-1.78-64.96-7.15-97.05c-11.5-68.82-15.6-133.95-1.66-202.92"/>
		</g>
		<g>
			<path class="st0" d="M-97.39,1182.24c94.09-31.71,189.62-58.84,287.5-75.99c72.45-12.7,145.6-19.43,218.69-27.19
				c161.25-17.11,312.57-55.86,451.49-139.77c62.88-37.98,123.85-82.74,171.05-140.36c29.77-36.34,51.77-77.31,72.27-119.35
				c19.3-39.57,39.03-78.73,64.42-114.83c37.19-52.87,83.52-98.61,131.89-140.67c46.59-40.51,96.18-78.38,150.83-108.09
				c38.32-20.83,78.72-36.93,118.99-53.49c89.79-36.92,167.77-85.71,218.7-168.56c23.49-38.21,40.76-80.9,43.03-127.02
				c1.55-31.45-4.26-62.46-10.66-93.09c-14.16-67.8-20.34-131.83-7.75-200.62"/>
		</g>
		<g>
			<path class="st0" d="M-37.02,1211.04c93.63-32.98,188.77-61.35,286.36-79.95c72.68-13.86,146.14-21.82,219.52-30.85
				c161.3-19.85,312.74-60.73,450.73-146.85c61.15-38.16,120.44-82.85,165.97-140.03c29.37-36.89,50.45-78.28,69.89-120.98
				c18.25-40.1,37.01-79.7,61.83-116.26c35.58-52.42,80.44-97.91,127.21-139.82c45.41-40.69,93.9-78.77,147.31-109.09
				c39.12-22.21,80.49-39.48,121.71-57.29c89.6-38.71,167.92-88.73,217.71-172.96c22.63-38.29,39.03-80.99,39.86-126.82
				c0.57-31.13-6.4-61.55-13.94-91.55c-16.76-66.7-25.04-129.65-13.82-198.25"/>
		</g>
		<g>
			<path class="st0" d="M25,1238.43c93.93-34.54,189.46-64.35,287.59-84.43c72.09-14.75,145.03-23.87,217.85-34.06
				c161.3-22.57,312.84-65.66,449.85-153.99c60.1-38.75,118.41-83.95,162.47-141.57c28.22-36.9,47.88-78.11,65.92-120.66
				c16.93-39.93,34.32-79.35,58-115.85c34.19-52.7,78.03-98.5,123.77-140.74c44.86-41.42,92.9-80.16,145.93-111.32
				c39.23-23.05,80.8-41.21,122.18-59.95c89.39-40.47,168.06-91.86,216.62-177.43c21.37-37.65,36.83-79.48,36.65-124.18
				c-0.12-31.72-8.27-62.16-17.15-92.37c-19.38-65.88-28.98-127.08-19.86-195.8"/>
		</g>
		<g>
			<path class="st0" d="M88.65,1264.35c93.43-35.83,188.53-66.9,286.33-88.46c72.27-15.93,145.49-26.3,218.55-37.78
				c161.26-25.34,312.85-70.63,448.84-161.2c59.68-39.75,117.62-86.02,160.33-144.98c26.34-36.36,44.29-76.77,60.58-118.37
				c15.28-39.03,31.05-77.61,53.01-113.46c32.94-53.78,76.24-100.47,121.48-143.53c44.28-42.15,91.87-81.57,144.5-113.56
				c39.33-23.91,81.06-42.98,122.58-62.66c89.15-42.25,168.09-95.06,215.4-181.97c20.53-37.72,35.14-79.58,33.55-123.95
				c-1.12-31.39-10.42-61.18-20.44-90.7c-21.84-64.29-34.34-125.03-25.86-193.29"/>
		</g>
		<g>
			<path class="st0" d="M153.88,1288.77c92.91-37.12,187.56-69.47,285-92.5c72.44-17.12,145.9-28.77,219.18-41.55
				c161.18-28.12,312.78-75.65,447.69-168.47c57.94-39.87,114.33-86.06,155.4-144.5c25.9-36.85,42.86-77.73,58.03-119.87
				c14.22-39.52,28.99-78.48,50.39-114.79c31.38-53.25,73.15-99.64,116.83-142.52c43.1-42.32,89.51-81.91,140.91-114.49
				c40.01-25.36,82.65-45.76,125.03-66.75c88.94-44.04,168.05-98.25,214.07-186.57c19.69-37.79,33.44-79.68,30.44-123.7
				c-2.12-31.06-12.56-60.18-23.71-88.97c-24.39-62.99-38.93-122.56-31.83-190.7"/>
		</g>
		<g>
			<path class="st0" d="M220.67,1311.65c92.37-38.42,186.55-72.04,283.61-96.55c72.59-18.33,146.27-31.26,219.75-45.37
				c161.05-30.92,312.63-80.71,446.42-175.8c57.51-40.87,113.53-88.13,153.15-147.92c24.06-36.3,39.31-76.25,52.79-117.4
				c13.09-39.99,26.85-79.35,47.66-116.11c29.85-52.71,70.17-98.77,112.29-141.45c42.49-43.05,88.42-83.32,139.38-116.73
				c40.06-26.26,82.82-47.62,125.29-69.6c88.63-45.85,167.97-101.58,212.62-191.25c18.85-37.86,31.74-79.79,27.33-123.42
				c-3.11-30.73-14.68-59.15-26.94-87.2c-26.91-61.62-43.47-119.99-37.76-188.04"/>
		</g>
		<g>
			<path class="st0" d="M289,1332.95c91.04-39.39,183.92-74.03,279.73-99.97c73.49-19.89,148.21-34.26,222.68-49.89
				c160.87-33.75,312.35-85.81,445-183.19c56.41-41.42,111.44-89.17,149.51-149.33c22.94-36.25,36.86-75.94,48.94-116.84
				c11.73-39.73,24.16-78.81,43.85-115.46c28.43-52.93,67.75-99.28,108.84-142.24c41.87-43.78,87.29-84.73,137.8-118.99
				c40.08-27.18,82.95-49.51,125.49-72.49c88.27-47.69,167.85-104.99,211.04-195.98c17.61-37.1,29.69-78.41,24.57-120.77
				c-3.77-31.22-16.82-59.78-30.5-87.72c-29.71-60.66-47.04-116.91-43.65-185.31"/>
		</g>
		<g>
			<path class="st0" d="M358.82,1352.62c90.46-40.68,182.82-76.61,278.21-104.01c73.59-21.14,148.49-36.85,223.1-53.84
				c160.65-36.58,312.03-90.96,443.45-190.64c55.92-42.41,110.58-91.28,147.05-152.73c21.16-35.65,33.38-74.36,43.89-114.19
				c10.22-38.72,21.03-76.84,39.06-112.79c27.05-53.94,65.82-101.19,106.36-144.98c42.94-46.38,89.88-89.52,142.38-125.57
				c38.26-26.27,79.03-48.35,119.41-71.13c86.79-48.96,168.33-108.07,209.34-200.79c16.63-37.6,28.01-78.54,21.52-120.47
				c-4.78-30.88-18.97-58.68-33.74-85.82c-32.22-59.17-51.45-114.15-49.51-182.51"/>
		</g>
		<g>
			<path class="st0" d="M430.11,1370.64c89.85-41.98,181.69-79.19,276.62-108.06c73.67-22.41,148.72-39.47,223.45-57.83
				c160.38-39.41,311.62-96.17,441.76-198.14c55.39-43.4,109.68-93.41,144.47-156.16c19.39-34.97,30.05-72.69,38.97-111.43
				c8.68-37.7,17.99-74.8,34.39-110.01c25.6-54.96,63.8-103.12,103.77-147.73c42.26-47.16,88.66-91.04,140.67-127.99
				c38.25-27.18,79.08-50.22,119.48-73.99c86.36-50.79,168.06-111.6,207.51-205.66c15.8-37.67,26.33-78.67,18.47-120.16
				c-5.79-30.53-21.11-57.55-36.95-83.86c-34.69-57.62-55.8-111.29-55.34-179.64"/>
		</g>
		<g>
			<path class="st0" d="M502.84,1386.97c88.46-42.91,178.97-81.17,272.59-111.37c74.5-24.03,150.47-42.68,226.11-62.64
				c160.05-42.24,311.13-101.42,439.92-205.7c54.24-43.91,107.53-94.43,140.64-157.47c18.32-34.88,27.71-72.28,35.3-110.7
				c7.38-37.38,15.42-74.14,30.75-109.2c24.08-55.11,61.26-103.54,100.15-148.42c40.99-47.3,86.15-91.39,136.83-128.91
				c38.82-28.74,80.41-53.22,121.55-78.42c85.93-52.62,167.74-115.25,205.55-210.58c14.97-37.74,24.64-78.8,15.4-119.81
				c-6.8-30.18-23.24-56.4-40.12-81.85c-37.13-55.99-60.1-108.34-61.13-176.7"/>
		</g>
		<g>
			<path class="st0" d="M576.96,1401.55c87.82-44.2,177.75-83.74,270.88-115.4c74.52-25.34,150.6-45.38,226.3-66.76
				c159.69-45.1,310.55-106.72,437.94-213.32c51.38-43,101.84-92.07,133.61-152.54c19.22-36.59,28.12-75.67,34.81-116.11
				c6.24-37.74,13.21-74.79,27.97-110.3c22.63-54.44,58.3-102.5,95.68-147.13c40.26-48.07,84.86-92.9,135.01-131.32
				c38.76-29.69,80.36-55.19,121.48-81.41c85.42-54.49,167.36-118.95,203.45-215.57c14.42-38.6,23.21-80.46,11.72-121.7
				c-8.05-28.9-25.23-53.58-42.64-77.54c-39.51-54.37-64.32-105.27-66.88-173.69"/>
		</g>
		<g>
			<path class="st0" d="M652.45,1414.36c87.15-45.49,176.49-86.32,269.09-119.45c74.53-26.66,150.67-48.12,226.42-70.93
				c159.27-47.98,309.85-112.05,435.81-220.98c50.28-43.48,99.76-93.05,129.91-153.79c18.12-36.5,25.71-75.2,30.99-115.26
				c4.93-37.37,10.63-74.03,24.31-109.38c21.12-54.56,55.78-102.88,92.09-147.77c39.52-48.85,83.52-94.42,133.14-133.75
				c38.68-30.66,80.26-57.18,121.33-84.45c84.88-56.36,166.87-122.69,201.22-220.62c13.57-38.68,21.47-80.61,8.57-121.28
				c-9.05-28.52-27.28-52.37-45.66-75.47c-41.86-52.61-68.51-102.14-72.59-170.61"/>
		</g>
		<g>
			<path class="st0" d="M729.27,1425.36c86.46-46.79,175.18-88.91,267.24-123.51c74.5-28,150.7-50.88,226.46-75.14
				c158.81-50.87,309.08-117.43,433.53-228.7c49.69-44.43,98.82-95.17,127.16-157.1c16.4-35.83,22.46-73.4,26.22-112.25
				c3.64-37.68,8.28-74.59,21.36-110.39c19.68-53.84,53-101.82,87.79-146.39c38.22-48.95,80.97-94.73,129.22-134.57
				c39.13-32.31,81.4-60.32,123.08-89.15c84.28-58.29,166.28-126.49,198.85-225.73c12.72-38.76,19.71-80.76,5.42-120.82
				c-10.04-28.13-29.32-51.13-48.65-73.36c-44.17-50.79-72.63-98.93-78.27-167.46"/>
		</g>
		<g>
			<path class="st0" d="M807.38,1434.51c86.48-48.51,175.35-92.23,267.67-128.5c73.71-28.95,149.12-53.01,224.07-78.48
				c158.29-53.79,308.21-122.84,431.09-236.48c49.07-45.38,97.84-97.32,124.27-160.42c14.68-35.05,19.2-71.53,21.59-109.15
				c2.32-36.54,5.47-72.29,17-107.29c18.03-54.74,50.76-103.67,84.92-149.04c69.88-92.8,155.87-161.58,250-229.31
				c83.66-60.2,165.63-130.37,196.34-230.89c11.87-38.85,17.94-80.92,2.25-120.34c-11.04-27.73-31.35-49.86-51.6-71.19
				c-46.42-48.9-76.7-95.62-83.91-164.24"/>
		</g>
		<g>
			<path class="st0" d="M886.75,1441.78c85.73-49.82,173.94-94.86,265.67-132.62c73.64-30.31,149.05-55.8,223.95-82.73
				c157.73-56.7,307.24-128.3,428.5-244.3c47.91-45.83,95.68-98.28,120.38-161.56c13.63-34.93,16.9-70.98,17.96-108.14
				c1.03-36.1,2.94-71.39,13.41-106.2c16.48-54.79,48.2-103.98,81.28-149.58c68.58-94.53,154.2-165.13,247.55-234.96
				c82.67-61.83,165.17-134.22,193.69-236.11c10.93-39.08,16.16-81.08-0.92-119.84c-12.04-27.32-33.36-48.56-54.51-68.98
				c-48.62-46.96-80.69-92.24-89.5-160.95"/>
		</g>
		<g>
			<path class="st0" d="M130.85-269.61C49.63-163.54-59.14-91.06-170.86-20.78c-99.48,62.58-230.07,137.6-256,260.85
				c-10.35,49.21-2.26,96.62,34.04,134c31.08,32,73.29,51.36,113.22,69.69c40.6,18.64,82.78,36.15,118.38,63.68
				c39.56,30.59,64.26,71.85,75.96,118.98c25.42,102.45-26.44,184.15-86.92,265.33c-27.1,36.39-56.13,73.77-70.62,117.34
				c-17.48,52.52-4.48,101.51,27.63,144.58c79.03,106,233.07,118.39,355.74,126.95c134.66,9.39,270.74,15.53,391.83,82.01"/>
		</g>
		<g>
			<path class="st0" d="M169.78-246.98C93.08-140.74-11.86-67.23-119.8,4.17c-96.03,63.52-222.66,140.26-243.89,262.12
				c-8.56,49.14,1.46,95.63,38.46,131.56c31.9,30.97,74.37,49.27,114.6,66.6c40.94,17.64,83.36,34.11,119.65,60.53
				c40.21,29.27,66.44,69.35,79.96,115.75c13.35,45.77,13.27,93.21-3.36,139.37c-16.28,45.17-44.83,84.6-72.13,123.59
				c-25.83,36.89-53.55,75.1-65.85,119.06c-14.56,52.01,1.25,98.98,34.02,139.54c82.92,102.64,236.37,111.56,359.4,117.33
				c135.1,6.33,271.12,9.58,394.57,71.73"/>
		</g>
		<g>
			<path class="st0" d="M208.96-225.32C136.76-119.01,35.67-44.56-68.5,27.87c-92.57,64.36-215.24,142.81-231.82,263.12
				c-6.76,49.04,5.16,94.56,42.82,129.05c32.69,29.94,75.4,47.17,115.94,63.51c41.26,16.63,83.92,32.07,120.87,57.37
				c40.84,27.96,68.55,66.84,83.91,112.45c15.21,45.19,17,92.87,1.63,139.49c-14.46,43.86-40.73,82.52-65.79,120.85
				c-24.45,37.39-51.24,76.36-61.03,120.69c-11.33,51.29,6.97,96.29,40.27,134.38c86.72,99.19,239.5,104.69,362.89,107.66
				c135.49,3.25,271.45,3.62,397.13,61.41"/>
		</g>
		<g>
			<path class="st0" d="M248.38-204.64C180.74-98.34,83.39-23.04-16.99,50.32c-89.17,65.17-207.83,145.21-219.78,263.86
				c-5.01,49.8,9.48,94.85,48.97,128.02c33.26,27.94,75.22,43.75,115.37,58.86c40.84,15.37,82.76,29.55,119.95,52.87
				c42.5,26.66,72.39,64.84,89.87,110.41c17.14,44.69,20.84,92.3,6.71,139.53c-12.71,42.47-36.72,80.44-59.63,117.97
				c-22.39,36.67-46.74,74.92-55.14,117.72c-10.19,51.91,10.48,96.71,45.33,133.58c90.4,95.63,242.48,97.79,366.21,97.94
				c135.85,0.16,271.72-2.34,399.5,51.04"/>
		</g>
		<g>
			<path class="st0" d="M288.03-184.94C224.88-78.78,131.33-2.7,34.72,71.54c-85.81,65.94-200.36,147.42-207.79,264.35
				c-6.75,106.28,81.11,150.11,169.83,181.11c41.13,14.37,83.26,27.55,121.02,49.75c43.09,25.34,74.4,62.25,93.71,106.92
				c19.06,44.09,24.75,91.63,11.89,139.49c-11.05,41.1-32.87,78.18-53.67,114.93c-20.37,36-42.28,73.27-49.43,114.61
				c-9.09,52.59,14.03,97.03,50.47,132.7c93.98,91.99,245.29,90.86,369.35,88.18c136.15-2.94,271.94-8.32,401.67,40.64"/>
		</g>
		<g>
			<path class="st0" d="M327.88-166.2C269.19-60.27,179.48,16.48,86.61,91.52C4.14,158.16-106.27,241.01-109.23,356.09
				c-2.71,105.45,86.55,146.62,175.19,175.26c41.4,13.38,83.73,25.55,122.05,46.63c43.67,24.03,76.35,59.65,97.48,103.37
				c19.49,40.33,28,84.68,19.18,130.12c-8.39,43.19-29.73,82.42-49.92,121c-19.07,36.44-39.71,74.42-44.45,115.93
				c-5.91,51.77,19.41,93.82,56.22,127.16c97.44,88.27,247.95,83.9,372.3,78.37c137-6.09,271.36-13.33,403.64,30.2"/>
		</g>
		<g>
			<path class="st0" d="M367.94-148.43C313.69-42.83,227.81,34.54,138.66,110.28C59.47,177.56-46.72,261.7-45.28,374.82
				c1.33,104.5,91.88,143,180.45,169.34c91.89,27.32,177.28,55.85,224.19,143.25c21.34,39.77,31.71,83.8,24.28,129.86
				c-6.73,41.7-26.01,80.02-44.08,117.72c-17.66,36.84-37.17,75.58-39.42,117.15c-2.74,50.76,24.77,90.47,61.8,121.51
				c100.79,84.46,250.45,76.91,375.07,68.52c137.18-9.24,271.52-19.36,405.42,19.72"/>
		</g>
		<g>
			<path class="st0" d="M408.17-131.61C358.35-26.46,276.26,51.43,190.85,127.81C114.95,195.7,13,281.08,18.76,392.08
				c5.37,103.44,97.09,139.28,185.59,163.33c92.33,25.1,178.35,51.46,228.72,136.43c23.1,38.97,35.75,82.97,29.47,129.51
				c-5.42,40.19-22.34,77.5-38.44,114.31c-15.7,35.9-33.13,73.78-34.07,113.68c-1.22,51.52,28.26,90.37,66.94,120.33
				c104,80.56,252.79,69.91,377.66,58.62c137.27-12.41,271.63-25.42,407,9.21"/>
		</g>
		<g>
			<path class="st0" d="M448.56-115.76C403.34-11.13,324.81,67.21,243.17,144.13c-73.23,68.99-169.8,154.93-160.3,263.73
				C91.76,509.7,185.04,543.3,273.49,565.12c92.77,22.88,179.34,47.1,233.13,129.55c24.47,37.51,39.24,80.41,35,126.68
				c-3.62,39.51-18.83,76.6-33.26,113.16c-14.07,35.66-29.74,73.37-28.91,112.43c1.08,51.19,32.68,88.49,72.14,116.7
				c107.15,76.59,254.99,62.87,380.07,48.68c137.35-15.58,271.65-31.51,408.38-1.34"/>
		</g>
		<g>
			<path class="st0" d="M489.11-100.85C448.28,3.09,373.56,81.87,295.59,159.25c-70.03,69.5-162.22,156.44-148.57,262.95
				c12.88,100.56,107.13,131.49,195.53,151.1c93.2,20.67,180.31,42.77,237.4,122.59c25.35,35.44,42.03,76.32,40.5,121.45
				c-1.35,39.65-15.16,77.16-28.15,114.18c-12.21,34.79-25.69,71.28-23.92,108.77c2.44,51.68,36.62,88.41,77.38,115.27
				c110.11,72.57,257.03,55.82,382.28,38.7c137.37-18.77,271.6-37.63,409.56-11.92"/>
		</g>
		<g>
			<path class="st0" d="M529.79-86.9C493.3,16.34,422.37,95.33,348.09,173.15c-66.86,70.05-154.64,157.82-136.91,261.92
				c16.89,99.14,111.91,127.44,200.32,144.86c93.61,18.44,181.24,38.52,241.53,115.57c26.06,33.31,44.72,72.21,45.8,116.11
				c0.97,39.57-11.43,77.75-22.97,115.09c-10.89,35.24-22.75,72.17-18.67,109.53c5.51,50.35,41.42,84.48,82.22,109.22
				c112.95,68.48,258.93,48.75,384.31,28.68c137.35-21.98,271.46-43.78,410.53-22.54"/>
		</g>
		<g>
			<path class="st0" d="M570.59-73.89c-32.17,102.41-99.21,181.53-169.93,259.75c-63.65,70.4-147.01,159.02-125.32,260.64
				c20.84,97.63,116.6,123.29,204.99,138.55c94.03,16.24,182.1,34.23,245.53,108.47c27.24,31.88,47.82,69.57,50.9,113.02
				c2.75,38.69-7.86,76.54-17.71,113.53c-9.3,34.93-19.41,71.55-13.65,107.96c7.87,49.82,45.69,82.22,87.17,105.28
				c115.71,64.32,260.67,41.66,386.14,18.62c137.26-25.2,271.24-49.97,411.3-33.19"/>
		</g>
		<g>
			<path class="st0" d="M611.5-61.82c-27.86,101.35-91.18,180.74-158.22,259.2c-60.61,70.94-139.36,160.04-113.79,259.12
				c24.77,96.01,121.15,119.03,209.53,132.17c94.44,14.04,182.94,29.96,249.4,101.31c28.92,31.05,51.56,68.2,56.17,112.07
				c3.9,37.07-4.78,73.69-12.75,109.62c-7.81,35.21-16.52,72.48-8.3,108.46c10.98,48.08,50.28,78.04,91.63,99.05
				c118.28,60.12,262.27,34.54,387.79,8.52c137.14-28.43,270.92-56.22,411.86-43.88"/>
		</g>
		<g>
			<path class="st0" d="M652.5-50.69c-23.6,100.24-83.19,179.71-146.57,258.4c-57.53,71.44-131.67,160.91-102.35,257.36
				c28.66,94.26,125.56,114.69,213.96,125.72c94.84,11.84,183.72,25.7,253.12,94.09c30.03,29.59,54.54,65.4,61.22,108.73
				c5.57,36.14-1.37,72.35-7.7,107.88c-6.21,34.86-13.11,71.73-3.29,106.63c13.32,47.36,54.31,75.54,96.29,94.96
				c120.76,55.85,263.73,27.42,389.24-1.62c136.95-31.69,270.52-62.48,412.21-54.6"/>
		</g>
		<g>
			<path class="st0" d="M693.57-40.49c-19.38,99.04-75.16,178.52-134.98,257.35c-54.48,71.8-122.77,159.61-90.98,255.36
				c31.12,93.74,132.5,110.51,218.25,119.2c95.25,9.65,184.44,21.4,256.71,86.79c31.1,28.14,57.44,62.55,66.19,105.28
				c7.2,35.16,1.99,70.94-2.7,106.04c-4.61,34.49-9.7,70.91,1.66,104.69c15.66,46.56,58.27,72.93,100.85,90.76
				c123.11,51.54,265.04,20.28,390.49-11.8c136.7-34.96,270.03-68.79,412.35-65.34"/>
		</g>
		<g>
			<path class="st0" d="M734.71-31.22c-15.21,97.72-67.27,177.1-123.47,256.06c-51.45,72.27-115.14,160.18-79.7,253.12
				c34.99,91.77,136.59,105.93,222.42,112.6c95.63,7.43,185.18,17.16,260.15,79.44c32.71,27.17,61.15,60.9,71.61,103.91
				c8.15,33.49,4.72,68.02,1.7,101.91c-2.98,33.37-6.18,68.44,5.76,100.55c17.43,46.87,62.26,72.03,106.12,88.56
				c125.26,47.22,266.22,13.13,391.55-22.01c136.39-38.24,269.44-75.14,412.28-76.12"/>
		</g>
		<g>
			<path class="st0" d="M775.89-22.87c-11.09,96.3-59.34,175.55-112.03,254.52c-48.45,72.62-107.45,160.67-68.5,250.64
				c38.81,89.68,140.53,101.27,226.46,105.93c95.99,5.21,185.86,12.92,263.45,72.02c33.72,25.68,63.92,57.91,76.51,100.2
				c9.67,32.48,7.92,66.49,6.48,99.91c-1.43,32.96-2.88,67.49,10.5,98.47c19.83,45.9,66.15,69.16,110.58,84.11
				c127.33,42.83,267.24,5.97,392.4-32.27c135.99-41.55,268.76-81.54,412-86.92"/>
		</g>
		<g>
			<path class="st0" d="M817.11-15.45c-7.03,94.8-51.53,173.74-100.67,252.75c-45.44,73.06-99.75,160.94-57.4,247.93
				c42.58,87.47,144.32,96.54,230.37,99.2c96.33,2.97,186.51,8.68,266.6,64.54c34.7,24.2,66.6,54.89,81.32,96.38
				c11.15,31.44,11.07,64.89,11.2,97.8c0.13,32.52,0.41,66.47,15.18,96.28c22.22,44.85,69.93,66.18,114.95,79.56
				c129.26,38.42,268.14-1.21,393.06-42.55c135.56-44.86,267.95-87.97,411.5-97.75"/>
		</g>
		<g>
			<path class="st0" d="M858.34-8.95c-3.03,93.15-43.74,171.81-89.38,250.73c-42.48,73.45-91.98,161.11-46.4,244.99
				c46.27,85.15,147.96,91.75,234.14,92.39c96.65,0.72,187.16,4.43,269.6,57c35.08,22.37,68.03,50.76,85.13,90.46
				c13.34,30.97,15,64.4,16.78,97.6c1.67,31.24,3.47,63.86,18.71,91.99c24.39,45.01,73.79,64.83,120.31,76.91
				c131.01,34.01,268.89-8.4,393.51-52.87c135.07-48.2,267.03-94.45,410.78-108.61"/>
		</g>
		<g>
			<path class="st0" d="M899.57-3.35c0.91,91.43-36.07,169.63-78.18,248.47c-40.64,76.09-82.51,160.7-35.49,241.82
				c47.7,82.28,151.45,86.88,237.78,85.52c96.95-1.54,187.76,0.17,272.46,49.39c36,20.93,70.48,47.74,89.66,86.5
				c14.76,29.83,18.11,62.6,21.48,95.23c3.18,30.75,6.65,62.71,23.17,89.67c26.81,43.77,77.47,61.61,124.56,72.1
				c132.68,29.55,269.49-15.63,393.77-63.23c134.54-51.53,265.98-100.98,409.84-119.5"/>
		</g>
		<g>
			<path class="st0" d="M940.79,1.33c4.77,89.55-28.42,167.34-67.07,245.98c-37.59,76.49-74.65,160.52-24.68,238.42
				c51.21,79.83,154.79,81.96,241.29,78.57c97.23-3.81,188.32-4.11,275.16,41.73c36.91,19.49,72.84,44.71,94.09,82.44
				c16.14,28.65,21.15,60.72,26.12,92.76c4.69,30.23,9.82,61.48,27.56,87.25c29.21,42.44,81.03,58.28,128.71,67.19
				c134.2,25.08,269.96-22.85,393.81-73.61c133.92-54.89,264.82-107.53,408.69-130.42"/>
		</g>
		<g>
			<path class="st0" d="M981.98,5.1c8.57,87.67-20.9,164.77-56.05,243.26c-34.47,76.97-66.82,160.04-13.98,234.79
				c54.64,77.29,157.99,76.99,244.66,71.57c97.48-6.1,188.86-8.41,277.72,34.01c37.8,18.05,75.13,41.65,98.43,78.29
				c17.47,27.46,24.13,58.78,30.69,90.19c6.2,29.68,12.98,60.17,31.89,84.73c31.58,41.02,84.48,54.85,132.74,62.18
				c135.58,20.59,270.3-30.08,393.65-84.03c133.23-58.28,263.54-114.13,407.31-141.35"/>
		</g>
		<g>
			<path class="st0" d="M1023.12,7.98c12.28,85.6-13.4,162.08-45.13,240.3c-31.38,77.36-58.88,159.52-3.4,230.93
				c57.98,74.63,161.04,71.97,247.88,64.49c97.68-8.42,189.37-12.75,280.11,26.23c38.68,16.62,77.34,38.56,102.68,74.03
				c18.75,26.24,27.04,56.78,35.19,87.52c7.71,29.1,16.11,58.78,36.15,82.12c33.91,39.5,87.81,51.33,136.66,57.08
				c136.82,16.1,270.53-37.31,393.27-94.49c132.45-61.7,262.15-120.78,405.7-152.31"/>
		</g>
		<g>
			<path class="st0" d="M1064.21,9.95c15.9,83.45-6.06,159.16-34.31,237.11c-28.21,77.86-50.95,158.74,7.08,226.86
				c61.24,71.89,163.95,66.9,250.97,57.35c97.88-10.74,189.84-17.1,282.36,18.39c39.55,15.17,79.47,35.46,106.82,69.68
				c19.98,25.01,29.9,54.71,39.62,84.74c9.22,28.48,19.22,57.31,40.35,79.42c36.2,37.89,91.01,47.73,140.46,51.89
				c137.94,11.6,270.59-44.57,392.69-104.97c131.63-65.11,260.61-127.46,403.88-163.3"/>
		</g>
		<g>
			<path class="st0" d="M1105.23,11.03c19.43,81.19,1.23,156.12-23.58,233.7c-25.01,78.19-42.93,157.83,17.43,222.56
				c64.4,69.05,166.71,61.77,253.92,50.15c98.04-13.07,190.26-21.5,284.44,10.5c40.4,13.73,81.53,32.33,110.86,65.24
				c21.17,23.76,32.68,52.59,43.98,81.87c10.73,27.82,22.3,55.75,44.47,76.62c38.45,36.2,94.09,44.04,144.14,46.6
				c138.96,7.09,270.5-51.86,391.9-115.48c130.74-68.52,258.94-134.19,401.82-174.31"/>
		</g>
		<g>
			<path class="st0" d="M1146.16,11.22c21.76,79.74,8.57,152.07-12.98,230.05c-21.7,78.52-34.96,156.65,27.66,218.04
				c67.46,66.14,169.34,56.61,256.72,42.88c98.17-15.43,190.63-25.92,286.37,2.55c41.86,12.45,85.01,29.77,116.37,62.21
				c21.43,22.17,34.21,49.63,46.7,77.39c12.54,27.88,26.18,55.39,50.28,75.2c40.39,33.2,96.19,38.84,145.95,39.75
				c139.86,2.56,270.29-59.15,390.89-126.02c129.78-71.96,257.13-140.94,399.53-185.34"/>
		</g>
		<g>
			<path class="st0" d="M1186.99,10.53c26.56,76.27,15.36,149.64-2.48,226.19c-18.36,78.81-26.96,155.32,37.77,213.31
				c70.46,63.13,171.83,51.41,259.37,35.55c98.27-17.8,190.97-30.4,288.13-5.46c42.7,10.96,86.97,26.53,120.29,57.5
				c22.52,20.94,36.83,47.45,50.83,74.4c14.09,27.12,29.28,53.62,54.34,72.13c42.45,31.36,98.94,35.06,149.31,34.36
				c140.61-1.94,269.94-66.45,389.66-136.59c128.74-75.43,255.18-147.73,397.02-196.39"/>
		</g>
		<g>
			<path class="st0" d="M1227.7,8.95c28.41,74.92,22.53,145.01,7.91,222.1c-15.01,79.14-18.89,153.78,47.74,208.36
				c73.33,60.07,174.15,46.13,261.88,28.17c98.34-20.14,191.26-34.93,289.73-13.52c43.54,9.46,88.87,23.26,124.1,52.69
				c23.57,19.69,39.38,45.23,54.88,71.32c15.63,26.3,32.34,51.76,58.33,68.97c44.46,29.45,101.58,31.21,152.54,28.89
				c141.24-6.44,269.46-73.74,388.22-147.19c127.64-78.94,253.07-154.56,394.27-207.45"/>
		</g>
		<g>
			<path class="st0" d="M1268.27,6.49c31.53,72.34,29.23,141.29,18.17,217.79c-11.47,79.34-10.72,152.09,57.58,203.2
				c76.06,56.91,176.37,40.86,264.23,20.72c98.37-22.55,191.48-39.48,291.17-21.64c43.68,7.82,89.22,19.59,126.04,46.49
				c25.45,18.59,43.15,43.67,60.6,69.45c17.66,26.09,36.33,50.93,64.21,66.86c46.12,26.36,102.8,26.11,153.68,22.18
				c141.79-10.96,268.83-81.07,386.55-157.81c126.45-82.43,250.83-161.42,391.29-218.54"/>
		</g>
		<g>
			<path class="st0" d="M1308.7,3.16c34.59,69.74,35.86,137.35,28.32,213.26c-7.9,79.45-2.66,150.13,67.28,197.82
				c78.73,53.69,178.47,35.55,266.44,13.21c98.36-24.98,191.67-44.1,292.45-29.8c44.48,6.31,90.96,16.34,129.54,41.58
				c26.44,17.29,45.62,41.3,64.57,66.1c19.22,25.15,39.38,48.84,68.11,63.43c47.93,24.34,105.13,22.21,156.58,16.62
				c142.2-15.45,268.04-88.42,384.67-168.46c125.19-85.91,248.45-168.32,388.07-229.65"/>
		</g>
		<g>
			<path class="st0" d="M1348.97-1.04c37.56,67.18,42.4,133.17,38.34,208.51c-1.78,32.98-3.65,66.8,4.47,99.16
				c10.36,41.29,37.48,71.43,72.37,93.08c81.23,50.4,180.47,30.24,268.49,5.63c98.3-27.48,191.77-48.77,293.55-38.02
				c45.28,4.79,92.64,13.06,132.93,36.58c27.39,15.99,48.03,38.88,68.46,62.66c20.75,24.15,42.38,46.66,71.93,59.91
				c49.67,22.26,107.35,18.25,159.36,10.97c142.5-19.93,267.14-95.78,382.56-179.13c123.85-89.43,245.9-175.24,384.62-240.78"/>
		</g>
		<g>
			<path class="st0" d="M1389.06-6.11c40.4,64.47,48.74,128.94,48.22,203.55c-0.22,32.47-0.44,65.75,9.18,97.1
				c12.47,40.63,41.36,69.26,77.08,89.35c83.66,47.05,182.31,24.86,270.39-1.99c98.21-29.95,191.81-53.48,294.49-46.28
				c45.35,3.18,92.78,9.54,134.27,30.5c29.21,14.76,51.7,36.87,74.2,60.11c21.82,22.54,44.12,43.4,73.63,55.42
				c51.84,21.1,110.71,15.25,164.04,6.12c142.7-24.43,266.11-103.13,380.23-189.83c122.39-92.97,243.23-182.21,380.93-251.92"/>
		</g>
		<g>
			<path class="st0" d="M1428.96-12.04c43.12,61.7,54.91,124.57,57.97,198.37c1.32,31.93,2.75,64.62,13.84,94.94
				c14.6,39.9,45.2,66.98,81.69,85.51c85.97,43.65,184.03,19.46,272.13-9.68c98.08-32.44,191.79-58.25,295.25-54.6
				c46.1,1.63,94.32,6.25,137.36,25.41c30.11,13.4,54.02,34.31,77.99,56.4c23.27,21.44,46.93,41.11,77.21,51.8
				c53.49,18.89,112.78,11.12,166.63,0.23c142.78-28.89,264.92-110.52,377.68-200.55c120.89-96.52,240.37-189.19,376.99-263.07"/>
		</g>
		<g>
			<path class="st0" d="M1468.66-18.84c45.65,58.86,60.88,120.16,67.58,192.99c2.81,30.5,5.62,61.89,17.5,90.46
				c16.74,40.26,48.89,66.32,87.14,83.78c88.13,40.23,185.6,14,273.72-17.41c97.9-34.9,191.69-63.08,295.84-62.98
				c47.59,0.05,97.27,3.07,142.36,21.07c30.14,12.04,54.88,31.29,79.66,51.76c23.98,19.81,48.45,37.97,78.52,47.49
				c55.54,17.57,116.31,7.7,171.26-5.15c142.78-33.37,263.55-117.92,374.9-211.29c119.34-100.08,237.33-196.19,372.81-274.25"/>
		</g>
		<g>
			<path class="st0" d="M1508.13-26.48c48.13,56.02,66.73,115.55,77.05,187.39c4.3,29.91,8.69,60.65,21.93,88.17
				c18.92,39.35,52.69,63.79,91.68,79.67c90.2,36.74,187.09,8.53,275.14-25.21c97.68-37.43,191.51-67.95,296.26-71.39
				c48.91-1.61,100.36-0.43,147.37,16.41c30.09,10.78,55.54,28.52,81.1,47.27c26,19.07,52.43,36.43,84.12,44.37
				c56.57,14.17,116.56,2.66,171.38-11.88c142.66-37.84,262.1-125.31,371.88-222.05c117.65-103.67,234.16-203.23,368.4-285.43"/>
		</g>
		<g>
			<path class="st0" d="M1547.36-34.98c50.49,53.16,72.43,110.84,86.37,181.59c5.77,29.29,11.74,59.35,26.28,85.79
				c21.09,38.36,56.42,61.14,96.11,75.45c92.14,33.21,188.45,3.04,276.4-33.06c97.42-39.98,191.26-72.89,296.5-79.86
				c49.61-3.28,101.77-3.94,150.22,10.89c30.91,9.46,57.62,25.95,84.48,43.46c27.35,17.83,55.04,33.89,87.43,40.49
				c57.98,11.82,118.67-1.42,173.55-18.02c142.03-42.95,259.83-132.14,368.64-232.84c115.9-107.26,230.81-210.28,363.73-296.63"/>
		</g>
		<g>
			<path class="st0" d="M1586.35-44.33c52.75,50.27,77.96,106.04,95.55,175.58c7.25,28.65,14.77,57.97,30.58,83.3
				c23.26,37.28,60.06,58.38,100.45,71.13c93.97,29.66,189.71-2.45,277.5-40.97c97.11-42.62,190.87-77.87,296.57-88.36
				c49.68-4.93,101.48-7.27,150.79,4.74c32.51,7.92,61.22,23.47,89.93,40.11c29.37,17.03,59,31.79,92.97,36.89
				c58.53,8.78,118.75-6.37,173.26-24.6c141.72-47.38,258.08-139.6,365.16-243.64c114.08-110.84,227.3-217.37,358.81-307.85"/>
		</g>
		<g>
			<path class="st0" d="M1625.07-54.52c54.89,47.38,83.33,101.14,104.57,169.37c8.71,27.97,17.77,56.52,34.8,80.73
				c25.4,36.11,63.61,55.51,104.69,66.7c95.67,26.08,190.84-8,278.44-48.93c96.75-45.21,190.43-82.91,296.45-96.92
				c49.58-6.55,101.29-10.77,151.18-1.28c34.18,6.51,64.58,20.82,95.35,36.46c30.07,15.29,60.03,28.48,93.9,32.45
				c60.49,7.08,121.73-10.12,177.33-30.5c141.3-51.8,256.19-147.05,361.45-254.46c112.15-114.45,223.62-224.46,353.65-319.07"/>
		</g>
		<g>
			<path class="st0" d="M1663.5-65.55c56.94,44.48,88.53,96.18,113.43,162.95c10.16,27.25,20.75,54.99,38.96,78.05
				c27.52,34.85,67.06,52.53,108.82,62.18c97.28,22.48,191.82-13.59,279.21-56.94c96.36-47.8,189.87-88.01,296.16-105.53
				c52.28-8.62,106.97-14.85,160.03-5.86c32.47,5.5,62.18,17.87,92.06,31.21c30.5,13.62,61.07,25.24,94.65,28.18
				c62.27,5.44,124.92-14.2,181.36-36.73c140.78-56.2,254.19-154.52,357.5-265.3c110.11-118.07,219.78-231.58,348.24-330.3"/>
		</g>
		<g>
			<path class="st0" d="M1701.65-77.42c58.89,41.57,93.58,91.14,122.13,156.34c11.61,26.51,23.7,53.38,43.06,75.29
				c29.61,33.51,70.42,49.46,112.84,57.56c98.74,18.85,192.73-19.2,279.81-65c95.9-50.44,189.23-93.15,295.68-114.18
				c52.15-10.3,106.64-18.36,160.2-12.07c33.99,4,65.48,15.2,97.23,27.41c32.43,12.47,64.84,22.93,99.88,24.14
				c62.68,2.17,124.51-19.09,180.64-43.36c140.19-60.61,251.99-162.02,353.32-276.16c108.02-121.68,215.75-238.72,342.57-341.55"/>
		</g>
		<g>
			<path class="st0" d="M1739.48-90.11c60.75,38.67,98.47,86.05,130.67,149.52c13.04,25.72,26.61,51.7,47.07,72.43
				c31.66,32.09,73.68,46.29,116.76,52.84c100.12,15.22,193.5-24.78,280.25-73.12c95.41-53.17,188.43-98.33,295.02-122.86
				c52.01-11.97,106.24-21.83,160.18-18.16c35.47,2.42,68.79,12.27,102.35,23.34c34.34,11.32,68.57,20.41,105.05,19.81
				c62.96-1.03,123.96-23.85,179.75-49.85c139.48-65,249.68-169.51,348.89-287.04c105.8-125.32,211.57-245.87,336.65-352.8"/>
		</g>
	</g>
</g>
</svg>
