<?xml version="1.0" encoding="utf-8"?>
<!-- Generator: Adobe Illustrator 24.0.0, SVG Export Plug-In . SVG Version: 6.00 Build 0)  -->
<svg version="1.1" id="Layer_1" xmlns="http://www.w3.org/2000/svg" xmlns:xlink="http://www.w3.org/1999/xlink" x="0px" y="0px"
	 viewBox="0 0 100 100" style="enable-background:new 0 0 100 100;" xml:space="preserve">
<style type="text/css">
	.st0{fill:#004EFF;}
</style>
<g>
	
		<image style="overflow:visible;opacity:0.75;" width="185" height="185" xlink:href="93DF7A71.png"  transform="matrix(1 0 0 1 -42.3297 -42.3297)">
	</image>
	<g>
		<g>
			<path class="st0" d="M47.2,77.9c0-3.2,0-6.1,0-9.2c-3.2,0-6.3,0-9.4,0c-3,0-3.8-0.8-3.8-3.8c0-4,0-7.9,0-12.1c-4,0-7.8,0-11.7,0
				c0.1,0.2,0.1,0.5,0.3,0.7c1,1.4,1.1,2.8-0.3,3.9c-1.4,1.1-2.7,0.6-3.8-0.5c-1.6-1.6-3.1-3.1-4.7-4.7c-1.5-1.6-1.5-2.9,0-4.4
				c1.3-1.3,2.6-2.6,3.9-3.9c1.3-1.3,2.6-2.7,4.5-1.2c1.7,1.4,1.2,3-0.2,4.6c4.1,0,7.9,0,12,0c0-3.4,0-6.7,0-10c0-0.9,0-1.8,0-2.8
				c0.1-2.2,1-3.1,3.2-3.1c3.3-0.1,6.6,0,10.1,0c0-3.1,0-6,0-9.1c-0.5,0.3-0.9,0.8-1.3,0.7c-1.2-0.1-2.7-0.1-3.3-0.8
				c-0.5-0.6-0.4-2.4,0.1-3.2c1.6-2,3.5-3.7,5.4-5.5c1.3-1.2,2.7-1,4,0.2c1.6,1.5,3.1,3.1,4.7,4.7c1.2,1.2,1.8,2.5,0.6,3.9
				c-1.2,1.4-2.6,1.3-4,0.2c-0.2-0.1-0.4-0.1-0.7-0.3c0,3,0,5.8,0,9c3.1,0,6.1,0,9.1,0c3.4,0,4.1,0.7,4.1,4.1c0,3.9,0,7.8,0,11.8
				c4,0,7.8,0,11.8,0c-0.4-0.6-0.9-1.1-0.9-1.5c0.1-1,0.1-2.4,0.8-3c0.6-0.5,2.4-0.7,3-0.2c2.2,1.8,4.2,3.8,6.1,6
				c1,1.2,0.6,2.5-0.5,3.6c-1.5,1.5-2.9,2.9-4.4,4.4c-1.2,1.3-2.6,2.2-4.3,0.8c-1.6-1.4-1.1-2.9,0.2-4.5c-4,0-7.7,0-11.9,0
				c0,1.8,0,3.6,0,5.4c0,2.4,0,4.8,0,7.2c-0.1,2.3-1,3.2-3.3,3.2c-3.3,0-6.5,0-9.9,0c0,3.1,0,5.9,0,9c0.4-0.2,0.8-0.5,1.2-0.6
				c1.3-0.6,2.5-0.5,3.5,0.6c0.9,1.2,0.8,2.4-0.2,3.5c-1.7,1.8-3.5,3.6-5.3,5.3c-1.3,1.2-2.7,1.1-4-0.1c-1.4-1.4-2.8-2.8-4.2-4.2
				c-1.3-1.2-2.5-2.6-1.1-4.4C43.9,76,45.5,76.6,47.2,77.9z M39.4,36.8c0,8.9,0,17.6,0,26.3c7.1,0,14.1,0,21.1,0
				c0-8.9,0-17.6,0-26.3C53.4,36.8,46.5,36.8,39.4,36.8z"/>
			<path class="st0" d="M49.9,47.3c-1.2,2.1-2.7,3.2-5,2.6c-1.8-0.5-2.9-1.9-2.9-3.8c0-1.9,0.9-3.3,2.8-3.8c2.4-0.7,3.9,0.5,4.8,2
				c1.5-0.8,2.9-1.8,4.4-2.2c0.8-0.2,2,0.5,2.8,1.2c1.7,1.5,1.5,4.2-0.2,5.7C54.6,50.8,52.2,50.2,49.9,47.3z"/>
			<path class="st0" d="M55.5,61c-0.9-0.6-1.7-0.9-2.3-1.5c-2.2-2-4.3-2.1-6.3,0c-1.3,1.2-2.6,1.6-3.9,0.4c-1.4-1.2-1.1-2.6-0.1-4
				c3.4-4.4,11.1-4.4,14.3,0.2c0.5,0.7,0.7,2,0.5,2.9C57.4,59.8,56.3,60.3,55.5,61z"/>
		</g>
	</g>
</g>
</svg>
