<?xml version="1.0" encoding="utf-8"?>
<!-- Generator: Adobe Illustrator 24.0.0, SVG Export Plug-In . SVG Version: 6.00 Build 0)  -->
<svg version="1.1" id="Layer_1" xmlns="http://www.w3.org/2000/svg" xmlns:xlink="http://www.w3.org/1999/xlink" x="0px" y="0px"
	 viewBox="0 0 100 100" style="enable-background:new 0 0 100 100;" xml:space="preserve">
<style type="text/css">
	.st0{fill:#004EFF;}
</style>
<g>
	
		<image style="overflow:visible;opacity:0.75;" width="172" height="186" xlink:href="2192C7A5.png"  transform="matrix(1 0 0 1 -36 -43)">
	</image>
	<g>
		<g>
			<path class="st0" d="M49.6,81.3c-9.1,0-18.1,0-27.2,0c-3.4,0-4.6-1.2-4.1-4.5c1.6-11.1,3.3-22.2,5-33.3c0.3-2.3,1.5-3.1,3.8-3.1
				c2.8,0,6,0.8,8.3-0.3c2.3-1.1,3.7-4.1,5.4-6.3c1.1-1.4,2.1-1.3,3.1,0.1c0.9,1.1,1.9,2.2,2.6,3.4c1.5,2.8,3.8,3.3,6.8,3.2
				c6.3-0.2,12.7-0.1,19-0.1c2.5,0,3.5,0.8,3.9,3.2c1.7,11.2,3.5,22.5,5.2,33.7c0.4,2.5-1.1,4-3.9,4C68.2,81.3,58.9,81.3,49.6,81.3z
				 M50.8,43c0.5,7.7-2.4,12-8.2,12.1c-2.4,0.1-4.6-0.7-6.3-2.4c-2.7-2.7-3.2-6-2.3-9.8c-1.9,0-3.6,0.2-5.3,0
				c-2.1-0.3-2.7,0.7-2.9,2.5c-1.1,7.9-2.4,15.9-3.6,23.8c-0.5,3-0.9,6-1.3,9.1c12.1,0,23.9,0,35.7,0c0.3-3.9,2-5.9,4.9-6.1
				c3-0.2,4.8,1.9,5.5,6c3.9,0,7.8,0,11.6,0c0.1-0.3,0.1-0.5,0.1-0.6c-1.7-11.2-3.3-22.3-5.1-33.5c-0.1-0.5-1-1.2-1.6-1.2
				C69.4,42.9,67,43,64.5,43C60,43,55.4,43,50.8,43z M42.3,36.2c-1.5,1.9-2.7,3.5-4,5.1c-0.3,0.4-0.7,0.9-1,1.3
				c-1.8,2.7-1.4,6.3,1,8.4c2.1,1.9,5.7,1.9,7.9,0.1c2.4-2,2.9-5.7,1.1-8.3C45.8,40.5,44.1,38.5,42.3,36.2z M61.6,79.3
				c1-0.9,1.7-1.5,2.3-2.1c-0.7-0.7-1.4-1.8-2.3-2.1c-1.4-0.3-2.4,0.7-2.3,2.1C59.4,77.9,60.6,78.4,61.6,79.3z"/>
			<path class="st0" d="M50.1,91.4c-9.7,0-19.4,0-29,0c-2.1,0-3.9-0.4-5.1-2.4c-1.1-2-0.3-3.9,0.5-5.6c0.2-0.4,1.2-0.5,1.8-0.8
				c0.2,0.6,0.5,1.1,0.6,1.7c0,0.4-0.3,0.9-0.5,1.3c-0.6,2,0,3,2.2,3c19.6,0,39.1,0,58.7,0c2.2,0,2.7-0.7,2.4-2.9
				c-0.2-1.1-1.3-2.8,0.8-3.2c1.9-0.3,1.6,1.7,1.9,2.8c0.8,3.6-1.1,6-4.8,6C69.7,91.4,59.9,91.4,50.1,91.4z"/>
			<path class="st0" d="M72.8,24c-0.4,4.6-2.9,8.3-6.9,9.8c-3.9,1.4-8.3,0.3-11-2.8c-2.8-3.3-3.6-8.2-1.3-11.8
				c2.3-3.5,5.1-6.8,7.7-10.1c0.8-1,1.7-0.8,2.4,0.1c2.4,3.1,5,6.1,7.2,9.4C71.9,20.3,72.2,22.3,72.8,24z M62.4,12.1
				c-2.2,2.8-4.2,5.3-6.1,7.9c-2.2,3.1-1.6,7.4,1.1,9.9c2.6,2.4,6.8,2.5,9.6,0.3c2.8-2.3,3.7-6.7,1.7-9.8
				C66.8,17.6,64.6,15,62.4,12.1z"/>
			<path class="st0" d="M35.4,72.3c-2.8,0-5.1-2.2-5.1-5c0-2.8,2.2-5.1,5-5.1c2.7,0,5.1,2.3,5.1,5C40.5,70,38.2,72.3,35.4,72.3z
				 M38,67.9c0-0.3,0-0.7,0-1c-0.9-0.7-1.6-1.7-2.6-1.9c-1.3-0.3-2.3,0.7-2.4,2.2c-0.1,1.5,0.8,2.5,2.2,2.4
				C36.2,69.4,37.1,68.5,38,67.9z"/>
			<path class="st0" d="M69.1,54.2c0.1,2.9-2,5.1-4.9,5.1c-2.9,0.1-5.1-2-5.1-4.9c-0.1-2.9,2-5.1,4.9-5.1
				C66.9,49.3,69.1,51.4,69.1,54.2z M64.7,51.7c-0.3,0-0.6,0-0.9,0c-0.7,0.9-1.7,1.7-1.9,2.7c-0.3,1.4,0.8,2.3,2.2,2.4
				c1.4,0.1,2.5-0.9,2.3-2.2C66.3,53.4,65.3,52.6,64.7,51.7z"/>
			<path class="st0" d="M50.1,60.4c0.9,0,1.9-0.1,2.8,0.1c0.4,0.1,1,0.8,1,1.2c0,0.4-0.6,1.2-1,1.2c-1.9,0.1-3.9,0.1-5.9,0
				c-0.4,0-1.1-0.9-1-1.2c0.1-0.5,0.7-1.2,1.2-1.3C48.2,60.3,49.2,60.4,50.1,60.4C50.1,60.4,50.1,60.4,50.1,60.4z"/>
			<path class="st0" d="M68.8,69.8c-1-0.6-2.8-1.2-2.8-1.8c0-2,1.9-1.3,3.1-1.4c0.3,0,0.5,0,0.8,0c1.1,0,2.4-0.2,2.4,1.4
				c0,1.6-1.4,1.3-2.5,1.3c-0.3,0-0.5,0-0.8,0C69,69.5,68.9,69.6,68.8,69.8z"/>
			<path class="st0" d="M46.2,73.9c-1-0.3-3,0.7-2.9-1.4c0.1-1.9,1.9-1.1,3.1-1.3c0.6-0.1,1.3-0.2,1.8,0.1c0.6,0.3,1,0.9,1.5,1.3
				c-0.5,0.5-0.9,1.1-1.5,1.3C47.7,74.1,47,73.9,46.2,73.9z"/>
			<path class="st0" d="M29.8,58.2c-1-0.9-1.7-1.5-2.4-2.1c0.8-0.4,1.5-1.1,2.4-1.3c1-0.2,2.4-0.1,2.3,1.4
				C32,56.8,30.8,57.4,29.8,58.2z"/>
			<path class="st0" d="M25.9,76.1c-1-0.9-2.1-1.5-2.2-2.1c-0.1-1.6,1.4-1.5,2.4-1.3c0.8,0.1,1.4,0.8,2.1,1.2
				C27.6,74.5,26.9,75.2,25.9,76.1z"/>
		</g>
	</g>
</g>
</svg>
