<?xml version="1.0" encoding="utf-8"?>
<!-- Generator: Adobe Illustrator 24.0.0, SVG Export Plug-In . SVG Version: 6.00 Build 0)  -->
<svg version="1.1" id="Layer_1" xmlns="http://www.w3.org/2000/svg" xmlns:xlink="http://www.w3.org/1999/xlink" x="0px" y="0px"
	 viewBox="0 0 100 100" style="enable-background:new 0 0 100 100;" xml:space="preserve">
<style type="text/css">
	.st0{fill:#004EFF;}
</style>
<g>
	
		<image style="overflow:visible;opacity:0.75;" width="172" height="180" xlink:href="1CACA28E.png"  transform="matrix(1 0 0 1 -36 -40)">
	</image>
	<g>
		<g>
			<path class="st0" d="M47.3,12c1.9,0,3.7,0,5.6,0c1.4,0.2,2.9,0.4,4.3,0.8c14.3,3.6,23.7,12.5,26.6,27.1c2.9,14.4-2.2,26.2-14,35
				c-0.4,0.3-0.7,0.6-1,0.8c3.7,2.6,7.4,4.2,12,3.7c1.7-0.2,2.3,0.5,2.3,2.2c0,1.2,0,2.4,0,3.6c0,2.6-0.3,2.9-2.9,2.9
				c-19.9,0-39.9,0-59.8,0c-0.4,0-0.9,0-1.3,0c-1.3,0-1.9-0.6-1.9-1.9c0-1.5,0-3,0-4.4c0-1.9,0.5-2.4,2.4-2.4c1.7,0,3.6,0.3,5.2-0.2
				c2.3-0.7,4.4-2.1,6.6-3.2c-0.1-0.2-0.1-0.3-0.2-0.4c-0.4-0.3-0.9-0.7-1.3-1c-6-4.4-10.2-10-12.5-17c-0.8-2.6-1.2-5.4-1.8-8.1
				c0-1.9,0-3.7,0-5.6c0.1-0.4,0.2-0.8,0.3-1.3c2.2-14.4,10.1-24.1,23.9-28.9C42.1,12.8,44.7,12.5,47.3,12z M49.8,75.4
				c4.4-0.5,8.9-1.1,13.4-1.7c0.9-0.1,2-0.1,2.8-0.6c10.5-6,16.6-18.7,14.9-30.7c-2.5-17.8-19-29.7-36.6-26.6
				C32,18.1,22.1,27.8,19.5,40.2c-2.6,12.2,2.5,25,12.8,32c1.3,0.9,2.7,1.7,4.4,1.8C41,74.3,45.2,74.9,49.8,75.4z M20.4,84.5
				c19.8,0,39.4,0,59.1,0c0-0.7,0-1.2,0-1.8c-19.8,0-39.4,0-59.1,0C20.4,83.4,20.4,83.9,20.4,84.5z M67.7,79.2c-2-1-3.3-2.3-5.3-1.8
				c-8.1,1.6-16.2,1.6-24.2,0.2c-2.2-0.4-3.7,0.6-5.8,1.7C44.3,79.2,55.7,79.2,67.7,79.2z"/>
			<path class="st0" d="M29.2,58.5c-4.5-2.6-5.9-13.7-3.1-21.4c2.9-7.9,11.1-15.3,16.2-14.4c-1,0.9-1.7,1.7-2.6,2.4
				c-4.6,4-8.2,8.6-10.1,14.5c-1.6,5-1.8,10.1-1,15.2C28.9,55.9,29,57.1,29.2,58.5z"/>
			<path class="st0" d="M35.3,46.2c0.6,0.4,1.1,0.6,1.5,0.9c1.3,1.2,2.4,1.1,3.8,0c0.7-0.6,1.6-1.2,2.2-0.3c0.3,0.5,0,1.6-0.4,2.2
				c-0.9,1.3-0.9,2.5,0,3.8c0.4,0.6,0.7,1.8,0.4,2.2c-0.7,0.9-1.6,0.3-2.4-0.4c-1.1-1-2.5-1-3.6,0c-0.7,0.7-1.6,1.3-2.3,0.3
				c-0.3-0.4,0-1.6,0.4-2.2c1-1.3,1-2.3-0.1-3.7c-0.4-0.5-0.6-1.3-0.6-1.9C34.3,46.9,34.9,46.6,35.3,46.2z"/>
			<path class="st0" d="M39,37.6c-1.2,0-1.8-0.8-1.9-2c-0.3-2.7,3-7,5.6-7.4c1.3-0.2,2.1,0.3,2.4,1.6C45.9,32.5,42.1,37.5,39,37.6z"
				/>
		</g>
	</g>
</g>
</svg>
