<?xml version="1.0" encoding="utf-8"?>
<!-- Generator: Adobe Illustrator 24.0.0, SVG Export Plug-In . SVG Version: 6.00 Build 0)  -->
<svg version="1.1" id="Layer_1" xmlns="http://www.w3.org/2000/svg" xmlns:xlink="http://www.w3.org/1999/xlink" x="0px" y="0px"
	 viewBox="0 0 100 100" style="enable-background:new 0 0 100 100;" xml:space="preserve">
<style type="text/css">
	.st0{fill:#004EFF;}
</style>
<g>
	
		<image style="overflow:visible;opacity:0.75;" width="187" height="197" xlink:href="DE4FEB3A.png"  transform="matrix(1 0 0 1 -43.0622 -48.0622)">
	</image>
	<g>
		<g>
			<path class="st0" d="M42,90.1c-0.3-1.6-0.6-3.2-0.7-4.8c-0.1-1-0.3-1.6-1.3-1.9c-0.8-0.2-1.7-0.4-2.3-0.9c-1.8-1.3-3-0.7-4.4,0.9
				c-2.2,2.4-2.3,2.3-4.6,0.1c-2.8-2.8-5.6-5.6-8.4-8.4c-1.4-1.4-1.4-2,0-3.4c0.8-0.8,1.7-1.6,2.6-2.4c-0.8-1.9-1.4-3.8-2.2-5.5
				c-0.1-0.3-0.6-0.5-0.9-0.6c-0.2-0.1-0.5,0-0.7,0c-5.2,0-4.7,0.3-4.7-4.9c0-2.6,0-5.1,0-7.7c0-1.4,0.7-2.1,2-2.1
				c5.2,0,10.3,0,15.5,0c1.5,0,2.1,0.8,1.9,2.3c-1.2,8.9,1.9,14.9,10,19c1,0.5,1.6,1.1,1.2,2.2c-0.5,1.2-1.6,0.9-2.6,0.5
				c-6.7-2.7-11.9-10-12-17.3c0-1.1,0-2.2,0-3.5c-4.3,0-8.5,0-12.9,0c0,2.7,0,5.3,0,8.2c1.1,0,2.1,0.1,3.2,0c1.5-0.1,2.4,0.5,2.8,2
				c0.6,2,1.4,3.9,2.4,5.7c0.7,1.3,0.7,2.3-0.5,3.3c-0.8,0.7-1.6,1.4-2.3,2c2.9,2.9,5.5,5.5,8.4,8.3c0.6-0.7,1.5-1.6,2.3-2.5
				c0.7-0.8,1.5-0.9,2.6-0.4c2.1,1,4.3,1.9,6.5,2.7c1.2,0.4,1.6,1.1,1.6,2.2c0,1.2,0,2.3,0,3.6c3.9,0,7.5,0,11.5,0
				c0-1.2,0-2.4,0-3.5c0-1.2,0.5-1.9,1.7-2.3c2.2-0.8,4.3-1.7,6.4-2.7c1.1-0.5,1.9-0.4,2.7,0.4c0.8,0.9,1.5,1.8,2.2,2.6
				c2.9-2.9,5.5-5.5,8.3-8.3c-0.7-0.7-1.6-1.5-2.4-2.3c-0.9-0.8-1-1.6-0.5-2.7c1-2.1,1.7-4.4,2.8-6.5c0.3-0.7,1.2-1.4,2-1.5
				c1.2-0.3,2.4-0.1,3.7-0.1c0-2.9,0-5.5,0-8.2c-4.3,0-8.5,0-12.6,0c-0.4,2.8-0.4,5.6-1.1,8.1c-1.8,6.4-6.1,10.7-12.3,13.1
				c-1,0.4-2.2,0.7-2.6-0.7c-0.4-1.3,0.5-1.7,1.5-2.2c8.1-3.2,12.2-10.3,10.9-19c-0.3-2.1,0.1-2.6,2.2-2.6c4.9,0,9.8,0,14.8,0
				c2,0,2.4,0.5,2.4,2.4c0,3.3,0,6.6,0,10c0,1.6-0.7,2.4-2.2,2.2c-2.9-0.5-4.7,0.4-5.2,3.5c-0.1,0.8-0.7,1.6-1.2,2.8
				c1,0.9,2.1,1.8,3.1,2.7c0.9,0.8,0.9,1.8,0,2.6c-3.3,3.3-6.5,6.5-9.8,9.8c-0.9,0.9-1.9,1-2.6-0.1c-2-3-4.2-2.8-7.1-1.3
				c-1.4,0.7-2.1,1.3-2,2.9c0.1,1.3-0.4,2.7-0.7,4C52.7,90.1,47.3,90.1,42,90.1z"/>
			<path class="st0" d="M50.5,9.9c2.2,3.1,4.5,6.2,6.7,9.4c0.5,0.7,0.9,1.3,1.5,2.2c1.1-1.5,2-2.9,2.9-4.2c1-1.4,2.1-1.4,3.1,0
				c1.8,2.6,3.7,5.2,5.4,7.9c2.5,4,1.5,8.5-2.2,11.4c-0.5,0.4-1,1.3-1,2c-0.1,9.7-7.8,17.4-17.4,17.1c-9.8-0.3-17.3-8.4-16.4-18.2
				c0.2-2.7,1.2-5.5,2.7-7.8c4-6.3,8.3-12.4,12.6-18.5c0.3-0.4,0.7-0.8,1.1-1.2C49.8,9.9,50.2,9.9,50.5,9.9z M50.1,14.3
				c-0.3,0.3-0.4,0.4-0.5,0.6c-3.7,5.3-7.4,10.6-10.9,16c-3.4,5.1-3.4,10.4-0.1,15.5c3,4.8,8.6,6.9,14.4,5.8c6.5-1.2,11.6-8,10.7-14
				c-8.5-0.7-10.8-8.6-6.8-14c-0.2-0.4-0.5-0.8-0.7-1.2C54.1,20.2,52.1,17.3,50.1,14.3z M63.3,20.4c-1.7,2.6-3.3,4.7-4.6,7
				c-1.2,2.1-0.6,4.7,1.2,6.3c1.7,1.5,4.3,1.7,6.2,0.5c2-1.3,3.1-3.8,2.1-5.8C66.8,25.6,65,23.1,63.3,20.4z"/>
			<path class="st0" d="M52.3,72.7c-1.1,0.6-1.8,1.3-2.4,1.3c-0.5-0.1-1-0.9-1.4-1.5c0.6-0.5,1.1-1.2,1.7-1.3
				C50.7,71.1,51.3,71.9,52.3,72.7z"/>
			<path class="st0" d="M42.1,32c1.6,0.1,2.2,1.3,1.5,2.7c-1,1.9-1.6,3.9-0.8,5.9c0.5,1.3,1.3,2.5,2.1,3.6c0.6,0.9,1.1,1.6,0.3,2.5
				c-0.9,1-1.8,0.4-2.6-0.3c-3.4-3.2-4.3-9-1.8-13C41.2,32.8,41.8,32.3,42.1,32z"/>
			<path class="st0" d="M49.8,50c-0.6-1-1.3-1.7-1.3-2.3c0-0.5,1.1-1.4,1.5-1.3c0.6,0.2,1.3,1,1.4,1.6C51.5,48.5,50.6,49.1,49.8,50z
				"/>
		</g>
	</g>
</g>
</svg>
