<?xml version="1.0" encoding="utf-8"?>
<!-- Generator: Adobe Illustrator 24.0.0, SVG Export Plug-In . SVG Version: 6.00 Build 0)  -->
<svg version="1.1" id="Layer_1" xmlns="http://www.w3.org/2000/svg" xmlns:xlink="http://www.w3.org/1999/xlink" x="0px" y="0px"
	 viewBox="0 0 100 100" style="enable-background:new 0 0 100 100;" xml:space="preserve">
<style type="text/css">
	.st0{fill:#004EFF;}
</style>
<g>
	
		<image style="overflow:visible;opacity:0.75;" width="172" height="172" xlink:href="B8E7CC3F.png"  transform="matrix(1 0 0 1 -36 -36)">
	</image>
	<g>
		<g>
			<path class="st0" d="M51.5,15.2c-0.1,1-0.1,1.9-0.2,2.9c-1,0-1.8,0-2.8,0c0-1,0-2,0-2.9C49.5,15.2,50.5,15.2,51.5,15.2z"/>
			<path class="st0" d="M40.6,36c-1-1.1-1.7-1.8-3.2-1.3c-1.9,0.7-3.9-0.3-4.9-2c-1-1.7-0.8-3.7,0.4-5.2c1.2-1.5,3.3-2,5.1-1.3
				c1.8,0.7,3.1,2.6,3,4.5c-0.1,2.4,2.5,4.4,4.5,3.1c3.1-1.9,5.9-1.8,9.1,0c3.8,2.1,7.8,3.7,11.8,5.4c1.3,0.6,1.9,1.4,1.8,2.9
				c-0.1,2.1,0,4.2,0,6.3c0.2,0.1,0.3,0.2,0.5,0.3c0.4-0.5,0.9-0.9,1.2-1.4c1-2.2,2.6-3.4,4.7-3.2c1.9,0.2,3.6,1.6,4,3.3
				c0.5,1.8-0.2,3.8-1.8,4.9c-1.8,1.2-3.7,1-5.7-0.4c-0.7-0.5-1.8-0.3-2.9-0.5c0,2.6-0.1,4.7,0,6.8c0.1,1.4-0.5,2.1-1.8,2.7
				c-5,2.2-9.9,4.6-14.9,6.7c-0.9,0.4-2.2,0.3-3.1,0c-2.7-1-5.3-2.3-8-3.6c-0.7,1.2-1.1,2.1-0.2,3.4c1.5,2.2,0.6,5.1-1.8,6.3
				c-2.3,1.2-5.2,0.1-6.2-2.3c-1-2.5,0.2-5.3,2.8-6c1.5-0.4,2.2-1.1,2.4-2.8c-1.2-0.6-2.5-1.2-3.9-1.8c-1.2-0.5-1.7-1.2-1.7-2.5
				c0-5.5,0.1-11,0-16.6c0-1.3,0.5-2,1.7-2.5C35.8,38.2,38.1,37.1,40.6,36z M48.5,64.2c0-4.9,0-9.5,0-14c0-0.4-0.6-1-1.1-1.2
				c-2-1-4-1.9-6.1-2.8c-2.1-0.9-4.1-1.9-6.4-2.9c0,4.9,0,9.4,0,13.9c0,0.4,0.4,1,0.8,1.2c0.9,0.5,1.9,0.9,3,1.4
				c0.8-2,1.6-3.8,2.4-5.8c1,0.4,1.8,0.7,2.7,1.1c-0.8,2.1-1.6,4-2.3,6C43.9,62.2,46,63.1,48.5,64.2z M65.1,43.3
				c-4.5,2-8.6,3.9-12.7,5.8c-0.4,0.2-0.9,0.8-0.9,1.2c-0.1,4.6,0,9.1,0,14c4.5-2,8.7-3.9,12.9-5.9c0.3-0.1,0.7-0.6,0.7-1
				c0.1-1.5,0-3.1,0-4.8c-2.5,0.6-4.8,1.2-7.2,1.8c-0.3-1-0.5-1.9-0.8-2.9c2.3-0.6,4.5-1.2,6.6-1.8c0.5-0.2,1.3-0.7,1.3-1.2
				C65.2,46.9,65.1,45.3,65.1,43.3z M62.9,40.9c-2.3-1.1-4.2-2-6.2-2.8c-2.3-1-4.5-2.7-6.8-2.7c-2.2,0-4.4,1.7-6.6,2.7
				c-2,0.9-4,1.8-6.2,2.9c4.3,2,8.2,3.8,12.2,5.5c0.4,0.2,0.9,0.2,1.2,0.1C54.5,44.8,58.5,42.9,62.9,40.9z M76.3,48.4
				c-1-0.7-1.6-1.4-2-1.3c-0.6,0.1-1,0.9-1.5,1.4c0.5,0.5,1,1.2,1.6,1.3C74.8,49.9,75.4,49.1,76.3,48.4z M36.4,71.7
				c0.7-0.9,1.5-1.5,1.4-2c-0.1-0.6-0.9-1.1-1.4-1.6c-0.5,0.5-1.3,1-1.4,1.6C34.9,70.2,35.7,70.8,36.4,71.7z M36.5,32.5
				c0.7-1.1,1.3-1.7,1.3-2.3c0-0.5-0.9-1.2-1.4-1.2c-0.5,0-1.4,0.8-1.4,1.3C35,30.9,35.7,31.5,36.5,32.5z"/>
			<path class="st0" d="M51.6,84.8c0-1.1,0-2,0-3.1c0.8-0.1,1.6-0.2,2.7-0.3c0.1,1,0.2,1.9,0.3,2.9C53.6,84.5,52.7,84.6,51.6,84.8z"
				/>
			<path class="st0" d="M78.2,70.4c-0.9-0.7-1.6-1.2-2.4-1.8c0.5-0.8,1-1.5,1.5-2.4c0.9,0.5,1.6,1,2.6,1.6
				C79.3,68.7,78.8,69.5,78.2,70.4z"/>
			<path class="st0" d="M72,72.7c0.6-0.5,1.2-1.1,2-1.7c0.6,0.5,1.3,1.1,2.2,1.9c-0.7,0.7-1.4,1.4-2,2.1
				C73.5,74.3,72.9,73.6,72,72.7z"/>
			<path class="st0" d="M79.8,32c0.5,1,1,1.8,1.5,2.7c-0.9,0.5-1.8,0.9-2.7,1.4c-0.5-0.9-0.9-1.6-1.3-2.5C78,33.1,78.8,32.6,79.8,32
				z"/>
			<path class="st0" d="M83.5,40.6c-1.1,0.3-1.9,0.5-2.8,0.8c-0.3-0.9-0.6-1.6-1-2.6c0.9-0.4,1.8-0.7,2.8-1.1
				C82.9,38.7,83.2,39.5,83.5,40.6z"/>
			<path class="st0" d="M20.2,38.9c-0.3,0.9-0.5,1.7-0.9,2.7c-1-0.3-1.9-0.5-2.9-0.8c0.4-1,0.7-1.9,1-2.9
				C18.4,38.2,19.3,38.5,20.2,38.9z"/>
			<path class="st0" d="M23.7,27.2c0.8,0.7,1.5,1.3,2.3,2c-0.6,0.7-1.1,1.4-1.7,2.2c-0.8-0.6-1.5-1.1-2.4-1.7
				C22.5,28.8,23.1,28,23.7,27.2z"/>
			<path class="st0" d="M83.6,59.2c-1.1-0.3-1.9-0.5-2.9-0.8c0.2-0.9,0.4-1.7,0.6-2.7c1,0.2,1.8,0.3,3,0.5
				C84,57.2,83.8,58.1,83.6,59.2z"/>
			<path class="st0" d="M84.8,50.1c-0.1,0.9-0.1,1.9-0.2,3c-1-0.1-1.9-0.2-2.7-0.3C81.4,49.9,81.8,49.5,84.8,50.1z"/>
			<path class="st0" d="M42.3,83.9c-1-0.3-1.9-0.5-3-0.7c0.3-1,0.6-1.8,0.9-2.9c0.9,0.2,1.8,0.5,2.7,0.7
				C42.7,81.9,42.6,82.7,42.3,83.9z"/>
			<path class="st0" d="M69.7,25.1c0.7-0.8,1.2-1.5,1.9-2.3c0.8,0.7,1.5,1.3,2.4,2c-0.7,0.8-1.4,1.4-2.1,2.2
				C71.1,26.3,70.5,25.8,69.7,25.1z"/>
			<path class="st0" d="M75.6,31.2c-0.6-0.8-1.1-1.4-1.8-2.2c0.7-0.6,1.4-1.3,2.2-2c0.7,0.8,1.3,1.6,1.9,2.4
				C77.2,30.1,76.5,30.6,75.6,31.2z"/>
			<path class="st0" d="M45.7,18.5c-1,0.2-1.9,0.4-2.8,0.5c-0.2-1-0.5-1.9-0.7-2.9c1-0.2,1.9-0.4,3-0.6
				C45.3,16.5,45.5,17.4,45.7,18.5z"/>
			<path class="st0" d="M57,19c-1-0.2-1.8-0.3-2.8-0.5c0.1-0.9,0.2-1.8,0.4-2.9c1,0.2,1.9,0.3,3,0.5C57.4,17,57.2,17.9,57,19z"/>
			<path class="st0" d="M39.1,16.9c0.4,1.1,0.6,1.9,1,2.9c-0.9,0.4-1.7,0.7-2.6,1c-0.4-0.9-0.8-1.6-1.2-2.7
				C37.2,17.7,38.1,17.3,39.1,16.9z"/>
			<path class="st0" d="M30.1,25.2c-0.8,0.7-1.4,1.2-2.1,1.8c-0.7-0.7-1.3-1.4-2-2.2c0.7-0.6,1.4-1.2,2.2-2
				C28.9,23.7,29.5,24.4,30.1,25.2z"/>
			<path class="st0" d="M16.5,59.3c-0.3-1.1-0.5-2-0.7-3c1-0.2,1.9-0.4,2.9-0.6c0.2,0.9,0.4,1.8,0.7,2.8
				C18.4,58.8,17.6,59,16.5,59.3z"/>
			<path class="st0" d="M78.6,63.7c0.4-1,0.7-1.7,1.1-2.6c1,0.4,1.8,0.7,2.8,1.1c-0.4,1-0.8,1.8-1.2,2.8
				C80.4,64.6,79.6,64.2,78.6,63.7z"/>
			<path class="st0" d="M21.9,70.5c-0.6-1-1.1-1.7-1.7-2.6c0.9-0.5,1.6-1,2.5-1.5c0.5,0.7,1,1.4,1.6,2.3
				C23.6,69.2,22.8,69.8,21.9,70.5z"/>
			<path class="st0" d="M23.7,73c0.9-0.8,1.6-1.4,2.3-2c0.7,0.7,1.4,1.3,2.2,2c-0.9,0.8-1.5,1.4-2.2,2C25.3,74.4,24.6,73.7,23.7,73z
				"/>
			<path class="st0" d="M69.2,79c-0.6-0.9-1.1-1.7-1.7-2.5c0.8-0.6,1.4-1.1,2.3-1.7c0.6,0.8,1.2,1.5,1.9,2.4
				C70.9,77.8,70.1,78.3,69.2,79z"/>
			<path class="st0" d="M30.9,79c-0.9-0.7-1.6-1.2-2.5-1.8c0.6-0.8,1.2-1.5,1.9-2.3c0.8,0.6,1.5,1,2.3,1.7
				C32,77.3,31.5,78.1,30.9,79z"/>
			<path class="st0" d="M65.1,78c0.5,0.9,0.9,1.7,1.5,2.6c-0.9,0.5-1.8,0.9-2.8,1.4c-0.4-1-0.8-1.8-1.2-2.7
				C63.4,78.8,64.1,78.4,65.1,78z"/>
			<path class="st0" d="M45.4,84.4c0.1-1.1,0.3-2,0.4-3c1,0.1,1.8,0.2,2.6,0.3c0,1,0,1.9,0,3C47.4,84.6,46.5,84.5,45.4,84.4z"/>
			<path class="st0" d="M15.8,43.9c1.1,0.2,1.9,0.4,2.9,0.6c-0.1,0.9-0.2,1.7-0.4,2.8c-0.9-0.1-1.8-0.1-3-0.2
				C15.5,45.9,15.6,45,15.8,43.9z"/>
			<path class="st0" d="M84.2,43.7c0.2,1.1,0.3,1.9,0.4,3c-1,0.1-1.9,0.1-3,0.2c-0.2-0.9-0.3-1.8-0.5-2.8
				C82.3,44,83.2,43.9,84.2,43.7z"/>
			<path class="st0" d="M20.1,32.2c0.9,0.5,1.7,1,2.6,1.5c-0.5,0.8-0.9,1.6-1.4,2.5c-0.9-0.5-1.8-0.8-2.7-1.3
				C19.1,34,19.5,33.2,20.1,32.2z"/>
			<path class="st0" d="M35,78c0.9,0.4,1.6,0.8,2.5,1.2c-0.4,1-0.7,1.8-1.2,2.8c-1-0.5-1.9-0.9-2.8-1.4C34.1,79.7,34.5,78.9,35,78z"
				/>
			<path class="st0" d="M59.8,80.2c0.3,1,0.6,1.8,0.9,2.8c-1,0.3-1.8,0.5-2.9,0.8c-0.3-1-0.5-1.9-0.8-2.9
				C58.1,80.7,58.9,80.5,59.8,80.2z"/>
			<path class="st0" d="M63.6,17.9c-0.5,1-0.8,1.8-1.2,2.7c-0.8-0.3-1.6-0.6-2.6-0.9c0.3-0.9,0.5-1.7,0.9-2.8
				C61.6,17.3,62.5,17.6,63.6,17.9z"/>
			<path class="st0" d="M69.1,20.9c-0.6,0.9-1.1,1.7-1.7,2.5c-0.8-0.5-1.6-0.9-2.4-1.4c0.5-0.9,0.9-1.7,1.4-2.7
				C67.3,19.8,68.1,20.3,69.1,20.9z"/>
			<path class="st0" d="M18.7,65.1c-0.4-0.9-0.8-1.8-1.3-2.8c0.9-0.4,1.8-0.7,2.8-1.1c0.4,0.9,0.8,1.7,1.2,2.6
				C20.5,64.3,19.7,64.7,18.7,65.1z"/>
			<path class="st0" d="M32.4,23.5c-0.6-0.9-1.1-1.6-1.7-2.5c0.9-0.6,1.7-1,2.6-1.6c0.5,0.9,0.9,1.7,1.5,2.6
				C34.1,22.5,33.4,23,32.4,23.5z"/>
			<path class="st0" d="M15.2,50.2c1.1,0,2,0,3,0c0,0.9,0.1,1.7,0.1,2.6c-1,0.1-1.8,0.3-2.9,0.4C15.4,52.2,15.3,51.3,15.2,50.2z"/>
		</g>
	</g>
</g>
</svg>
