<?xml version="1.0" encoding="utf-8"?>
<!-- Generator: Adobe Illustrator 24.0.0, SVG Export Plug-In . SVG Version: 6.00 Build 0)  -->
<svg version="1.1" id="Layer_1" xmlns="http://www.w3.org/2000/svg" xmlns:xlink="http://www.w3.org/1999/xlink" x="0px" y="0px"
	 viewBox="0 0 100 100" style="enable-background:new 0 0 100 100;" xml:space="preserve">
<style type="text/css">
	.st0{fill:none;stroke:#004EFF;stroke-width:3;stroke-linecap:round;stroke-linejoin:round;stroke-miterlimit:10;}
</style>
<g>
	<path class="st0" d="M86.22,88.74H10.39c-3.29,0-5.96-2.67-5.96-5.96l0,0h87.75l0,0C92.18,86.08,89.51,88.74,86.22,88.74z"/>
	<path class="st0" d="M67.53,40.7v3.73c7.3,5.78,11.41,10.95,10.03,13.32c-1.22,2.1-6.48,1.55-13.67-1.02l-7.96,4.45
		c-1.39,7.59-3.56,12.48-6.01,12.48c-2.34,0-4.43-4.46-5.82-11.46l-9.23-5.16c-6.66,2.23-11.49,2.62-12.64,0.62
		c-1.27-2.2,2.17-6.76,8.46-11.98V40.7H12.56v41.17h71.5V40.7H67.53z"/>
	<path class="st0" d="M56.62,26.61c-1.28-10.04-3.79-16.87-6.69-16.87c-2.79,0-5.23,6.36-6.55,15.83l5.73-3.37L56.62,26.61z"/>
	<path class="st0" d="M44.11,62.2c1.39,7.01,3.48,11.46,5.82,11.46c2.45,0,4.62-4.89,6.01-12.48l-6.82,3.81L44.11,62.2z"/>
	<path class="st0" d="M67.53,39.04c7.32-5.76,11.46-10.91,10.09-13.29c-1.45-2.51-8.63-1.27-17.99,2.64l7.9,4.65V39.04z"/>
	<path class="st0" d="M30.7,45.68c-6.3,5.22-9.73,9.78-8.46,11.98c1.16,2.01,5.98,1.62,12.64-0.62L30.7,54.7V45.68z"/>
	<path class="st0" d="M39.33,27.96c-8.87-3.64-15.62-4.73-17.03-2.32c-1.27,2.19,2.14,6.77,8.4,12v-4.61L39.33,27.96z"/>
	<path class="st0" d="M63.9,56.74c7.18,2.57,12.45,3.13,13.67,1.02c1.38-2.37-2.73-7.54-10.03-13.32V54.7L63.9,56.74z"/>
	<path class="st0" d="M30.7,37.65v3.06"/>
	<path class="st0" d="M40.55,38.54l-9.85-5.5v4.61"/>
	<path class="st0" d="M42.37,39.55l-1.82-1.01"/>
	<path class="st0" d="M49.12,49.95v-6.62l-4.7-2.63"/>
	<path class="st0" d="M67.53,40.7v-1.66"/>
	<path class="st0" d="M67.53,44.44V40.7"/>
	<path class="st0" d="M49.12,50.8v14.19l6.82-3.81"/>
	<path class="st0" d="M67.53,39.04v-6.01l-9,5.03"/>
	<path class="st0" d="M49.12,49.95v0.85"/>
	<path class="st0" d="M57.48,38.66l-3.66,2.05"/>
	<path class="st0" d="M43.38,25.58l-4.06,2.39"/>
	<path class="st0" d="M59.64,28.39l-3.02-1.78"/>
	<path class="st0" d="M58.53,38.07l9-5.03l-7.9-4.65"/>
	<path class="st0" d="M44.42,40.7"/>
	<polyline class="st0" points="40.76,38.66 49.12,43.33 64.35,34.82 	"/>
</g>
</svg>
