<?xml version="1.0" encoding="utf-8"?>
<!-- Generator: Adobe Illustrator 24.0.0, SVG Export Plug-In . SVG Version: 6.00 Build 0)  -->
<svg version="1.1" id="Layer_1" xmlns="http://www.w3.org/2000/svg" xmlns:xlink="http://www.w3.org/1999/xlink" x="0px" y="0px"
	 viewBox="0 0 200 200" style="enable-background:new 0 0 200 200;" xml:space="preserve">
<style type="text/css">
	.st0{fill:#FFFFFF;}
</style>
<path class="st0" d="M104.07,5.95c1.72,0.36,3.46,0.67,5.17,1.09c23.92,5.93,35.03,33.83,21.74,54.6
	c-5.17,8.08-10.38,16.14-15.5,24.26c-0.58,0.92-0.74,2.13-0.97,3.22c-0.36,1.7-0.63,3.43-0.92,5.14c-0.09,0.54-0.17,1.08-0.17,1.63
	c-0.02,2.69,0.06,5.39-0.04,8.08c-0.17,4.61-3.29,7.85-7.87,8.03c-3.35,0.14-6.72,0.14-10.08-0.01c-4.62-0.21-7.78-3.63-7.84-8.27
	c-0.02-1.77,0.11-3.56-0.04-5.32c-0.15-1.91-0.55-3.79-0.83-5.69c-0.07-0.48-0.28-0.98-0.21-1.44c0.48-3.01-0.84-5.37-2.43-7.78
	c-4.75-7.19-9.35-14.49-14-21.74c-2.54-3.96-4.22-8.26-5.13-12.87c-0.08-0.42-0.14-0.85-0.16-1.27c-0.1-1.7,0.72-2.87,2.16-3.12
	c1.57-0.27,2.96,0.54,3.21,2.26c0.89,6.06,3.89,11.11,7.17,16.1c4.34,6.59,8.48,13.3,12.82,19.88c1.3,1.97,2.16,3.92,1.86,6.31
	c-0.07,0.52,0.05,1.06,0.08,1.59c0.2-0.01,0.4-0.02,0.59-0.03c-0.51-8.79-1.02-17.58-1.54-26.61c-0.94,0-1.77,0.01-2.61,0
	c-4.31-0.08-7.54-3.25-7.66-7.51c-0.12-4.43,2.9-7.83,7.23-8.13c4.02-0.28,7.49,2.74,8,6.96c0.12,0.97,0.19,1.95,0.3,3.05
	c2.71,0,5.42,0,8.29,0c0.02-3.29,0.27-6.59,3.33-8.47c1.43-0.88,3.3-1.48,4.95-1.45c4.1,0.07,7.14,3.46,7.2,7.56
	c0.04,2.69-0.85,5.16-3.19,6.43c-2.05,1.11-4.51,1.45-7.15,2.25c-0.48,8.28-0.99,17.07-1.5,25.87c0.14,0.01,0.29,0.03,0.43,0.04
	c0.06-0.28,0.22-0.58,0.17-0.85c-0.55-3.11,0.93-5.5,2.53-7.96c4.98-7.63,9.97-15.25,14.75-23c6.46-10.48,6.84-21.37,0.67-32
	c-6.18-10.65-15.86-15.71-28.12-15.22c-14.32,0.57-24.89,9.57-28.1,23.52c-0.35,1.53-0.91,2.84-2.69,3.03
	c-2,0.21-3.28-1.51-2.77-3.88C67.39,24,72.77,16.04,81.9,10.78c4.23-2.44,8.83-3.81,13.65-4.48c0.4-0.06,0.79-0.23,1.19-0.34
	C99.18,5.95,101.63,5.95,104.07,5.95z M96.66,64.12c0.53,8.94,1.06,17.75,1.58,26.53c1.64,0,3.02,0,4.55,0
	c0.52-8.88,1.04-17.64,1.56-26.53C101.81,64.12,99.39,64.12,96.66,64.12z M93.09,96.38c0,2.59-0.04,4.97,0.01,7.34
	c0.04,1.76,0.96,2.73,2.73,2.77c3.1,0.07,6.21,0.06,9.31,0.01c1.42-0.02,2.57-0.7,2.64-2.24c0.11-2.59,0.03-5.2,0.03-7.88
	C102.86,96.38,98.08,96.38,93.09,96.38z M90.82,58.45c-0.08-0.98-0.11-1.82-0.22-2.65c-0.18-1.3-1.01-1.95-2.29-1.85
	c-1.2,0.09-1.85,0.84-1.91,2.06c-0.07,1.27,0.47,2.18,1.74,2.41C88.95,58.57,89.81,58.45,90.82,58.45z M110.26,58.5
	c1.45-0.13,3.07,0.57,3.96-1.01c0.39-0.69,0.33-2-0.09-2.65c-0.35-0.54-1.68-0.93-2.34-0.7C109.8,54.81,110.42,56.69,110.26,58.5z
	 M68.14,194.05c0.89-0.98,1.82-1.94,2.67-2.96c5.06-6.05,10.1-12.12,15.18-18.15c0.47-0.55,1.18-1.14,1.85-1.24
	c3.14-0.48,6.3-0.79,9.45-1.17c5.51-0.67,11.03-1.31,16.54-2.03c1.88-0.25,2.87-1.51,2.68-3.08c-0.18-1.59-1.48-2.57-3.32-2.36
	c-9.09,1.06-18.19,2.12-27.27,3.32c-1.12,0.15-2.4,0.95-3.15,1.83c-5.72,6.7-11.32,13.49-16.96,20.25
	c-2.03,2.44-2.02,3.39,0.12,5.58C66.67,194.05,67.41,194.05,68.14,194.05z M153.64,105.05c6.84-6.32,16.21-3.25,18.52,5.03
	c0.53-0.41,0.99-0.78,1.45-1.14c4.69-3.65,11.12-3.1,14.83,1.27c3.8,4.48,3.35,11-1.21,14.97c-6.36,5.54-12.84,10.95-19.27,16.41
	c-7.04,5.97-14.1,11.92-21.11,17.92c-6.11,5.23-13.42,7.02-21.17,7.54c-1.52,0.1-2.55-0.79-2.85-2.32
	c-0.28-1.42,0.66-2.78,2.22-3.06c2.16-0.39,4.35-0.58,6.52-0.94c4.44-0.73,8.37-2.62,11.8-5.52c13.29-11.26,26.58-22.54,39.85-33.83
	c2.61-2.22,2.98-5.29,0.99-7.6c-1.91-2.21-4.98-2.33-7.51-0.2c-8.22,6.94-16.43,13.9-24.61,20.89c-2.35,2.01-5,2.96-8.06,2.95
	c-7.03-0.02-14.05-0.04-21.08,0.04c-0.8,0.01-1.76,0.41-2.36,0.96c-2.41,2.19-5.14,3.55-8.4,3.57c-8.31,0.05-16.62,0.05-24.93,0.03
	c-1.96-0.01-3.02-1.03-3.05-2.68c-0.03-1.77,1.12-2.82,3.3-2.83c7.76-0.03,15.52,0,23.28-0.03c1.03,0,2.1-0.05,3.07-0.34
	c3.3-0.99,5.31-4.28,4.84-7.7c-0.45-3.29-3.28-6-6.63-6.01c-13.69-0.05-27.37-0.09-41.06,0.07c-4.79,0.06-9.39,1.43-13.77,3.45
	c-0.5,0.23-0.99,0.49-1.5,0.69c-1.72,0.67-3.18,0.14-3.84-1.37c-0.61-1.41-0.06-2.8,1.55-3.61c4.44-2.27,9.15-3.75,14.09-4.35
	c2.3-0.28,4.63-0.4,6.94-0.41c12.04-0.04,24.07-0.02,36.11-0.02c0.37,0,0.76-0.09,1.1,0.02c2.93,0.94,4.84-0.66,6.87-2.44
	c5.9-5.14,11.85-10.22,17.9-15.19c5.37-4.41,13.13-2.7,16.19,3.43C153.01,103.39,153.26,104.15,153.64,105.05z M130.74,131.87
	c5.1,0,9.6,0.08,14.1-0.06c1.08-0.03,2.33-0.52,3.16-1.21c5.72-4.77,11.37-9.62,16.99-14.52c1.92-1.67,2.28-4.07,1.2-6.16
	c-1.56-3.01-5.26-3.65-8.1-1.28c-5.01,4.19-9.97,8.44-14.95,12.67C139.15,124.72,135.16,128.11,130.74,131.87z M124.29,129.74
	c0.31-0.06,0.46-0.04,0.53-0.1c7.27-6.16,14.59-12.27,21.74-18.57c0.98-0.86,1.48-2.65,1.58-4.06c0.13-1.98-1.14-3.44-2.97-4.23
	c-1.98-0.85-3.83-0.45-5.46,0.93c-6.25,5.29-12.49,10.59-18.72,15.9c-0.22,0.18-0.36,0.45-0.58,0.72
	C122.96,122.95,124.28,126.02,124.29,129.74z M15.35,174.75c6.45-8.07,12.86-16.17,19.22-24.3c1.04-1.33,1.99-2.79,2.71-4.32
	c2.23-4.76,5.11-9.03,8.9-12.68c1.6-1.54,1.76-3.06,0.57-4.33c-1.19-1.27-2.86-1.12-4.48,0.44c-4.1,3.94-7.26,8.55-9.71,13.67
	c-0.68,1.42-1.53,2.79-2.49,4.02c-6.25,7.99-12.56,15.94-18.85,23.9c-0.38,0.48-0.79,0.95-1.05,1.49c-0.9,1.81,0.4,3.89,3.03,3.91
	C13.67,176.16,14.67,175.59,15.35,174.75z M55.36,25.35c-2.01-0.98-4.15-1.71-6.28-2.4c-1.51-0.49-2.86,0.25-3.4,1.65
	c-0.54,1.39,0,2.81,1.5,3.45c2.07,0.87,4.17,1.67,6.3,2.37c1.8,0.58,3.55-0.72,3.62-3.14C56.73,26.84,56.21,25.76,55.36,25.35z
	 M56.16,64.5c1.08-0.55,1.23-1.93,0.62-3.12c-0.64-1.25-1.74-1.84-3.04-1.43c-2.32,0.73-4.67,1.49-6.81,2.61
	c-0.75,0.39-1.41,1.98-1.24,2.85c0.18,0.95,1.38,1.71,2.19,2.62C50.92,66.76,53.63,65.8,56.16,64.5z M155.28,65.71
	c0.58-1.17,0.21-2.58-1.07-3.14c-2.33-1.03-4.74-1.91-7.18-2.64c-1.31-0.39-2.61,0.34-2.83,1.66c-0.16,0.97,0.18,2.67,0.84,3.03
	c2.4,1.28,5.02,2.13,7.97,3.31C153.77,67.22,154.83,66.62,155.28,65.71z M151.93,22.95c-2.15,0.67-4.26,1.49-6.33,2.37
	c-1.47,0.62-2.02,2.1-1.49,3.5c0.5,1.33,1.98,2.07,3.46,1.57c2.08-0.7,4.17-1.39,6.14-2.35c0.85-0.41,1.39-1.46,1.75-1.86
	C155.46,23.68,153.8,22.37,151.93,22.95z M46.56,47.91c1.16,0,2.32,0.04,3.48-0.01c1.58-0.07,2.52-0.99,2.64-2.52
	c0.12-1.55-0.75-2.73-2.26-2.85c-2.48-0.19-5-0.17-7.48,0.02c-1.43,0.11-2.27,1.26-2.2,2.72c0.07,1.51,0.95,2.51,2.54,2.62
	C44.36,47.96,45.47,47.9,46.56,47.91C46.56,47.9,46.56,47.9,46.56,47.91z M154.14,47.89c1.22,0,2.44,0.08,3.65-0.02
	c1.47-0.12,2.32-1.01,2.42-2.49c0.1-1.49-0.64-2.67-2.06-2.79c-2.54-0.21-5.11-0.22-7.65-0.03c-1.51,0.12-2.3,1.33-2.15,2.9
	c0.14,1.48,1.02,2.33,2.5,2.43C151.94,47.95,153.04,47.9,154.14,47.89C154.14,47.89,154.14,47.89,154.14,47.89z M98.24,90.65
	c1.64,0,3.02,0,4.55,0c0.52-8.88,1.04-17.64,1.56-26.53c-2.54,0-4.95,0-7.68,0C97.2,73.07,97.72,81.88,98.24,90.65z"/>
</svg>
