<?xml version="1.0" encoding="utf-8"?>
<!-- Generator: Adobe Illustrator 24.0.0, SVG Export Plug-In . SVG Version: 6.00 Build 0)  -->
<svg version="1.1" id="Layer_1" xmlns="http://www.w3.org/2000/svg" xmlns:xlink="http://www.w3.org/1999/xlink" x="0px" y="0px"
	 viewBox="0 0 100 100" style="enable-background:new 0 0 100 100;" xml:space="preserve">
<style type="text/css">
	.st0{fill:#004EFF;}
</style>
<g>
	
		<image style="overflow:visible;opacity:0.75;" width="148" height="180" xlink:href="960B75EC.png"  transform="matrix(1 0 0 1 -24 -40)">
	</image>
	<g>
		<g>
			<path class="st0" d="M34.4,18.1c0-1.1,0-2.1,0-3.1c0.1-2.3,1.4-3.7,3.8-3.7c7.8,0,15.7,0,23.5,0c2.5,0,3.9,1.4,3.9,4
				c0,0.9,0,1.8,0,2.9c0.5,0.1,1,0.2,1.4,0.3c2.8,0.4,5,2.5,5,5.3c0.1,9.5,0.1,19,0,28.5c0,2.5-1.6,4.1-3.9,5.1
				c-0.5,0.2-1.2,0.6-1.4,1.1c-1.3,4-4,6.3-8.4,7c0,5,0,10,0,14.9c0,3.9-2.5,7.1-6.2,8.1c-5.3,1.4-10.5-2.4-10.6-7.9
				c-0.1-5,0-10,0-15c-4.3-0.7-7.1-2.9-8.4-7.1c-0.1-0.4-0.8-0.8-1.3-1c-2.7-1-4.1-2.9-4.1-5.8c0-9,0-18.1,0-27.1
				C27.9,20.7,29.6,19.1,34.4,18.1z M63.9,57.7c-1.6,0-3.1,0.1-4.5-0.1c-0.7-0.1-1.2-0.9-1.8-1.3c0.6-0.5,1.2-1.3,1.8-1.4
				c2.1-0.2,4.3,0,6.4-0.1c2.4,0,3.6-1.1,3.6-3.5c0-8.8,0-17.7,0-26.5c0-2.5-1.1-3.6-3.5-3.6c-10.5,0-21,0-31.5,0
				c-2.4,0-3.5,1-3.5,3.4c0,9,0,18,0,26.9c0,2.2,1.2,3.3,3.4,3.3c2.1,0,4.3-0.1,6.4,0.1c0.7,0.1,1.3,0.9,2,1.3
				c-0.7,0.5-1.3,1.2-2,1.4c-1.4,0.2-2.8,0.1-4.3,0.1c1,3.1,2.9,4.7,5.7,4.8c5.5,0.1,10.9,0.1,16.4,0C61,62.4,62.9,60.8,63.9,57.7z
				 M44.5,65.4c0,5.4-0.1,10.6,0.1,15.8c0.1,2.7,3.1,4.9,5.8,4.7c2.8-0.2,5.2-2.5,5.2-5.4c0.1-3.6,0-7.2,0-10.8c0-1.4,0-2.9,0-4.3
				C51.7,65.4,48.2,65.4,44.5,65.4z M37.4,18.1c8.6,0,17,0,25.4,0c0-0.6,0-0.9,0-1.2c0-2.8,0-2.8-2.8-2.8c-6.4,0-12.8,0-19.1,0
				C37,14.1,37,14.1,37.4,18.1z"/>
			<path class="st0" d="M50,44.9c-4.7,0-9.4-0.1-14.2,0c-1.7,0-2.4-0.5-2.4-2.3c0.1-5.7,0.1-11.4,0-17.2c0-1.7,0.6-2.2,2.3-2.2
				c9.5,0,19,0,28.5,0c1.6,0,2.3,0.6,2.3,2.2c-0.1,5.8,0,11.6,0,17.4c0,1.6-0.6,2.1-2.2,2.1C59.6,44.8,54.8,44.9,50,44.9z
				 M63.5,41.9c0-5.3,0-10.5,0-15.7c-9.1,0-18.1,0-27.1,0c0,5.3,0,10.4,0,15.7C45.5,41.9,54.4,41.9,63.5,41.9z"/>
			<path class="st0" d="M44,53.7c0-1.3,0-2.7,0-4c0-1.6,0.9-2.5,2.5-2.5c2.4,0,4.8,0,7.2,0c1.5,0,2.4,0.9,2.4,2.4
				c0.1,2.7,0,5.5,0,8.2c0,1.6-0.9,2.5-2.5,2.5c-2.3,0.1-4.7,0.1-7,0c-1.8,0-2.6-1-2.6-2.8C44,56.2,44,54.9,44,53.7z M46.9,50.1
				c0,2.5,0,4.8,0,7.3c2.1,0,4.1,0,6.2,0c0-2.5,0-4.9,0-7.3C50.9,50.1,49,50.1,46.9,50.1z"/>
			<path class="st0" d="M36.6,49.6c1.5,0,2.9-0.1,4.3,0.1c0.6,0.1,1.1,0.8,1.6,1.2c-0.4,0.5-0.8,1.4-1.3,1.4c-2.1,0.2-4.2,0.1-6.3,0
				c-0.5,0-1.2-0.9-1.2-1.5c0-1.2,0-3,0.7-3.4C36,46.4,36.2,48.2,36.6,49.6z"/>
			<path class="st0" d="M63.4,49.6c0.2-0.6,0.2-1.4,0.5-1.6c0.6-0.4,1.3-0.4,2-0.6c0.2,1.3,0.5,2.5,0.4,3.8c0,0.4-0.9,1.1-1.5,1.2
				c-1.9,0.1-3.8,0.2-5.7,0c-0.6-0.1-1.1-0.9-1.6-1.4c0.6-0.5,1.1-1.2,1.8-1.3C60.7,49.4,62.1,49.6,63.4,49.6z"/>
			<path class="st0" d="M52.9,32.1c-0.5,0.4-0.9,0.9-1.4,1.2c-2.6,1-5.2,2-7.8,2.9c-0.6,0.2-1.4-0.5-2.1-0.7
				c0.4-0.6,0.6-1.5,1.1-1.8c2.6-1.1,5.3-2.1,8-3.1C51.9,30.1,52.5,30.7,52.9,32.1z"/>
			<path class="st0" d="M61,36.4c-0.5,0.4-0.9,1.1-1.5,1.3c-2.6,1-5.2,2-7.8,2.9c-0.5,0.2-1.3-0.4-2-0.6c0.3-0.6,0.4-1.7,0.9-1.9
				c2.7-1.2,5.4-2.2,8.2-3.1c0.6-0.2,1.5,0.4,2.2,0.6C60.9,35.9,61,36.1,61,36.4z"/>
		</g>
	</g>
</g>
</svg>
