<?xml version="1.0" encoding="utf-8"?>
<!-- Generator: Adobe Illustrator 24.0.0, SVG Export Plug-In . SVG Version: 6.00 Build 0)  -->
<svg version="1.1" id="Layer_1" xmlns="http://www.w3.org/2000/svg" xmlns:xlink="http://www.w3.org/1999/xlink" x="0px" y="0px"
	 viewBox="0 0 200 200" style="enable-background:new 0 0 200 200;" xml:space="preserve">
<style type="text/css">
	.st0{fill:#FFFFFF;}
</style>
<g>
	<path class="st0" d="M196.53,107.12c-0.89,2.22-2.6,3.04-4.9,2.98c-2-0.05-4.01,0.04-6.01-0.03c-2.64-0.08-4.23-1.55-4.23-3.79
		c0-2.26,1.59-3.68,4.25-3.73c1.88-0.04,3.76,0.09,5.63-0.03c2.35-0.15,4.16,0.55,5.26,2.72
		C196.53,105.86,196.53,106.49,196.53,107.12z"/>
	<path class="st0" d="M100.16,64.49c14.96,0,29.92,0.05,44.87-0.03c4.17-0.02,7.17,1.58,9.41,5.08
		c6.53,10.21,13.17,20.36,19.75,30.53c2.9,4.49,2.66,8.21-0.88,12.18c-22.02,24.74-44.05,49.47-66.1,74.19
		c-4.46,5-10.01,5.02-14.44,0.05c-22.05-24.72-44.07-49.45-66.09-74.19c-3.55-3.99-3.82-7.74-0.94-12.18
		c6.63-10.22,13.32-20.41,19.9-30.66c2.21-3.44,5.17-5.02,9.26-5C69.99,64.53,85.07,64.49,100.16,64.49z M107.43,174.3
		c0.12,0.07,0.23,0.13,0.35,0.2c19.03-21.36,38.05-42.73,57.3-64.34c-12.93,0-25.36,0-37.89,0
		C120.59,131.56,114.01,152.93,107.43,174.3z M92.2,174.51c0.11-0.06,0.23-0.12,0.34-0.18c-6.6-21.41-13.19-42.83-19.76-64.15
		c-12.67,0-25.07,0-37.87,0C54.15,131.8,73.18,153.16,92.2,174.51z M80.67,110.18c6.41,20.8,12.76,41.4,19.11,61.99
		c0.15-0.02,0.29-0.05,0.44-0.07c6.34-20.59,12.69-41.18,19.07-61.92C106.38,110.18,93.66,110.18,80.67,110.18z M68.67,102.48
		c-5.98-9.24-11.75-18.16-17.69-27.34C45,84.35,39.18,93.3,33.22,102.48C45.17,102.48,56.71,102.48,68.67,102.48z M131.44,102.4
		c11.94,0,23.45,0,35.26,0c-5.93-9.16-11.7-18.08-17.64-27.25C143.13,84.33,137.36,93.25,131.44,102.4z M142,72.18
		c-11.86,0-23.37,0-35.14,0c5.9,9.11,11.65,18,17.57,27.15C130.33,90.23,136.1,81.3,142,72.18z M93.09,72.18
		c-11.81,0-23.31,0-35.04,0c5.9,9.11,11.66,18.01,17.53,27.08C81.5,90.1,87.22,81.25,93.09,72.18z M117.48,102.47
		c-5.91-9.13-11.62-17.95-17.5-27.03c-5.9,9.13-11.63,17.97-17.49,27.03C94.29,102.47,105.69,102.47,117.48,102.47z"/>
	<path class="st0" d="M103.82,25.85c0,3.83,0.02,7.66-0.01,11.49c-0.02,2.77-1.49,4.5-3.74,4.5c-2.24-0.01-3.77-1.74-3.79-4.5
		c-0.04-7.72-0.04-15.45,0-23.17c0.02-2.73,1.61-4.43,3.88-4.37c2.23,0.05,3.62,1.68,3.64,4.38
		C103.84,18.07,103.82,21.96,103.82,25.85z"/>
	<path class="st0" d="M169.39,41.31c-0.35,0.58-0.76,1.67-1.51,2.43c-3.85,3.96-7.77,7.87-11.71,11.74
		c-1.9,1.87-4.11,1.95-5.69,0.37c-1.58-1.57-1.5-3.8,0.36-5.69c3.87-3.95,7.8-7.84,11.72-11.74c1.3-1.29,2.81-1.94,4.61-1.1
		C168.61,38.01,169.31,39.21,169.39,41.31z"/>
	<path class="st0" d="M34.31,36.41c1.35,0.81,2.44,1.22,3.2,1.96c3.96,3.85,7.86,7.77,11.74,11.71c1.83,1.86,1.96,4.14,0.44,5.69
		c-1.59,1.62-3.78,1.55-5.69-0.33c-3.99-3.92-7.92-7.89-11.87-11.85c-1.26-1.26-1.9-2.88-0.97-4.43
		C31.83,38.07,33.16,37.38,34.31,36.41z"/>
	<path class="st0" d="M10.83,110.17c-1.44-0.1-2.95-0.07-4.42-0.34c-1.87-0.34-3.07-2.04-2.93-3.8c0.14-1.8,1.52-3.34,3.4-3.42
		c2.75-0.12,5.51-0.12,8.26-0.01c1.95,0.08,3.28,1.53,3.42,3.36c0.14,1.99-0.94,3.53-3,3.89C14.04,110.13,12.45,110.08,10.83,110.17
		z"/>
	<path class="st0" d="M100.15,47.13c2.04,0.04,3.67,1.74,3.63,3.79c-0.04,2.02-1.79,3.72-3.78,3.67c-1.98-0.05-3.72-1.86-3.68-3.81
		C96.38,48.79,98.16,47.09,100.15,47.13z"/>
</g>
</svg>
