<?xml version="1.0" encoding="utf-8"?>
<!-- Generator: Adobe Illustrator 24.0.0, SVG Export Plug-In . SVG Version: 6.00 Build 0)  -->
<svg version="1.1" id="Layer_1" xmlns="http://www.w3.org/2000/svg" xmlns:xlink="http://www.w3.org/1999/xlink" x="0px" y="0px"
	 viewBox="0 0 200 200" style="enable-background:new 0 0 200 200;" xml:space="preserve">
<style type="text/css">
	.st0{fill:#FFFFFF;}
</style>
<g>
	<path class="st0" d="M160.86,4.39c3.17,2.21,3.43,4.02,1.01,7.06c-4.07,5.09-8.14,10.19-12.27,15.35
		c4.1,5.13,8.14,10.18,12.17,15.22c0.35,0.44,0.71,0.87,1,1.34c1.62,2.62,0.11,5.57-2.98,5.82c-0.62,0.05-1.24,0.02-1.87,0.02
		c-17.24,0-34.47,0-51.71,0c-0.74,0-1.48,0-2.4,0c-0.03,0.68-0.09,1.28-0.09,1.87c0,13.69-0.01,27.37,0.02,41.06
		c0,0.83,0.14,1.77,0.56,2.46c7.46,12.2,14.97,24.36,22.47,36.53c0.1,0.16,0.22,0.3,0.5,0.67c0.41-0.62,0.77-1.15,1.1-1.69
		c4.24-6.88,8.47-13.77,12.71-20.64c2.18-3.53,5.32-3.54,7.37,0c15.42,26.62,30.84,53.25,46.25,79.87c0.27,0.47,0.58,0.93,0.87,1.39
		c0,0.75,0,1.49,0,2.24c-1.11,2-2.78,2.65-5.07,2.65c-60.37-0.05-120.75-0.04-181.12-0.03c-1.6,0-3.14-0.06-4.21-1.48
		c-1.29-1.71-0.79-3.33,0.18-5.02c7.15-12.31,14.27-24.64,21.41-36.96c8.16-14.1,16.32-28.19,24.51-42.27
		c0.55-0.94,1.25-1.92,2.14-2.5c1.8-1.18,3.9-0.37,5.29,1.88c4.25,6.87,8.48,13.76,12.72,20.64c0.36,0.58,0.73,1.15,1.22,1.92
		c0.42-0.6,0.78-1.07,1.09-1.57c7.24-11.75,14.49-23.5,21.68-35.28c0.51-0.84,0.78-1.96,0.78-2.95c0.04-27.44,0.05-54.89,0-82.33
		c0-2.32,0.56-4.13,2.65-5.29C119.53,4.39,140.19,4.39,160.86,4.39z M99.98,101.88c-17.79,28.9-35.35,57.44-53.01,86.13
		c35.48,0,70.6,0,106.02,0C135.3,159.27,117.73,130.73,99.98,101.88z M55.25,117.87c-13.59,23.47-27.04,46.71-40.56,70.05
		c0.43,0.1,0.59,0.17,0.76,0.17c7.21,0.01,14.43,0.04,21.64-0.04c0.61-0.01,1.42-0.64,1.78-1.21c9.58-15.48,19.1-30.99,28.68-46.47
		c0.62-1.01,0.57-1.69-0.04-2.65c-2.21-3.45-4.32-6.97-6.47-10.46C59.16,124.2,57.28,121.16,55.25,117.87z M185.38,188.11
		c-13.62-23.52-27.07-46.76-40.58-70.08c-0.26,0.27-0.4,0.37-0.49,0.51c-4.05,6.55-8.11,13.1-12.09,19.69
		c-0.28,0.46-0.16,1.43,0.15,1.94c9.57,15.63,19.17,31.24,28.83,46.82c0.36,0.57,1.33,1.04,2.04,1.07c3.04,0.12,6.09,0.05,9.14,0.05
		C176.59,188.11,180.79,188.11,185.38,188.11z M151.85,11.99c-16.24,0-32.14,0-47.99,0c0,9.98,0,19.83,0,29.58
		c16.01,0,31.87,0,47.96,0c-3.16-3.95-6.15-7.69-9.14-11.43c-2.17-2.71-2.16-3.98,0.05-6.74C145.72,19.66,148.7,15.93,151.85,11.99z
		"/>
	<path class="st0" d="M104.33,136.58c0.87-1.01,1.55-2.2,2.57-2.9c1.3-0.89,2.77-0.51,3.94,0.54c0.5,0.45,0.9,1.03,1.26,1.61
		c7.87,12.75,15.72,25.51,23.57,38.27c1.57,2.55,1.22,4.85-0.85,6.01c-1.49,0.83-3.21,0.6-4.43-0.68c-0.47-0.49-0.86-1.06-1.21-1.64
		c-7.76-12.6-15.52-25.2-23.25-37.81C105.35,139.05,104.98,138,104.33,136.58z"/>
	<path class="st0" d="M103.68,124.69c-0.04,1.97-1.82,3.68-3.77,3.64c-1.97-0.04-3.68-1.81-3.64-3.77c0.04-1.97,1.81-3.68,3.77-3.64
		C102.01,120.96,103.73,122.74,103.68,124.69z"/>
</g>
</svg>
